<?xml version="1.0" standalone="no"?>
<!DOCTYPE svg PUBLIC "-//W3C//DTD SVG 1.1//EN" "http://www.w3.org/Graphics/SVG/1.1/DTD/svg11.dtd" >
<svg xmlns="http://www.w3.org/2000/svg" xmlns:xlink="http://www.w3.org/1999/xlink" version="1.1">
<metadata>
Created by FontForge 20170731 at Thu Sep 26 23:10:19 2019
 By Aleksey,,,
Copyright (c) 2019 NEXON. All rights reserved. Font designed by FONTRIX Inc.
</metadata>
<defs>
<font id="BazziRegular" horiz-adv-x="1000" >
  <font-face 
    font-family="Bazzi"
    font-weight="400"
    font-stretch="normal"
    units-per-em="1000"
    panose-1="0 0 5 0 0 0 0 0 0 0"
    ascent="800"
    descent="-200"
    x-height="417.5"
    cap-height="678"
    bbox="-39.0625 -254 1262 803"
    underline-thickness="25"
    underline-position="-260"
    unicode-range="U+0020-FFE6"
  />
<missing-glyph horiz-adv-x="960" 
d="M875 -42h-800v800h800v-800zM825 8v700h-700v-700h700z" />
    <glyph glyph-name=".notdef" horiz-adv-x="960" 
d="M875 -42h-800v800h800v-800zM825 8v700h-700v-700h700z" />
    <glyph glyph-name="glyph1" horiz-adv-x="0" 
 />
    <glyph glyph-name="glyph2" horiz-adv-x="180" 
 />
    <glyph glyph-name="space" unicode=" " horiz-adv-x="180" 
 />
    <glyph glyph-name="exclam" unicode="!" horiz-adv-x="287" 
d="M184 193q-2 -23 -17 -34t-32.5 -10.5t-31.5 12t-14 34.5q1 96 2.5 197.5t5.5 227.5q1 27 18.5 39.5t38 11.5t37 -14.5t15.5 -38.5q-5 -75 -7.5 -131.5t-5 -105t-4.5 -93t-5 -95.5zM203 16q0 -28 -19 -47t-48 -19q-28 0 -47 19t-19 47q0 29 19 48t47 19q29 0 48 -19
t19 -48z" />
    <glyph glyph-name="quotedbl" unicode="&#x22;" horiz-adv-x="478" 
d="M178 588q-2 -24 -15.5 -37t-30 -14t-30.5 11.5t-16 39.5q-2 26 -4 57.5t-3 57.5q-1 28 15 43t35.5 15.5t35.5 -14t15 -44.5q-1 -26 -0.5 -57.5t-1.5 -57.5zM390 588q-2 -24 -15.5 -37t-30 -14t-30.5 11.5t-16 39.5q-2 26 -2 57.5t-1 57.5q-1 28 15 43t35.5 15.5t35.5 -14
t15 -44.5q-1 -26 -2.5 -57.5t-3.5 -57.5z" />
    <glyph glyph-name="numbersign" unicode="#" horiz-adv-x="795" 
d="M572 188q17 0 34 -0.5t37 -0.5q24 0 36.5 -14.5t12.5 -32t-12.5 -31.5t-37.5 -13q-23 0 -45 0.5t-43 1.5q-7 -35 -13.5 -65t-11.5 -53q-6 -23 -23 -30.5t-35 -4t-30 18t-7 35.5l20 100h-182q-7 -32 -13 -59.5t-11 -49.5q-5 -23 -22 -30.5t-34 -4t-29 18t-8 35.5
q7 42 18 90h-66q-25 0 -37 14t-11.5 30.5t13.5 30.5t39 14h80l44 211h-68q-25 0 -37 14t-11.5 30.5t13.5 30.5t39 14h82q7 31 13 61.5t12 60.5q5 25 22 34t35 5.5t30.5 -18.5t7.5 -39l-21 -104h180q7 35 13 67.5t13 64.5q5 25 22 34t35 5.5t30.5 -18.5t7.5 -39l-23 -114
q16 0 32.5 -0.5t34.5 -0.5q24 0 36.5 -14.5t12.5 -32t-12.5 -31.5t-37.5 -13q-23 0 -43.5 0.5t-40.5 1.5zM473 188l41 211h-180q-11 -54 -21.5 -107.5t-21.5 -103.5h182z" />
    <glyph glyph-name="dollar" unicode="$" horiz-adv-x="628" 
d="M268 4q-60 8 -113 30.5t-85 58.5q-12 14 -9 32.5t14.5 32t29 16t34.5 -15.5q21 -23 55.5 -38.5t73.5 -23.5q0 47 -0.5 94t-0.5 95q-33 14 -63.5 30.5t-53 38t-34.5 49t-9 63.5q3 33 17 57.5t36 42t50 28.5t58 17q0 8 0.5 16.5t0.5 16.5q0 23 15 34.5t32.5 11.5
t31.5 -11.5t14 -35.5q0 -7 -0.5 -13.5t-0.5 -13.5q23 -2 44 -4t39 -7q21 -5 29.5 -22t4.5 -34.5t-18.5 -28.5t-38.5 -5q-14 4 -29 6t-31 4q0 -45 0.5 -91.5t0.5 -94.5q30 -12 62 -25t59 -32t45 -44.5t20 -61.5q1 -41 -13 -72t-40 -52t-60.5 -33t-73.5 -16q-1 -11 -1 -22v-22
q-1 -23 -15.5 -34.5t-31.5 -11t-31 12.5t-14 36v42zM362 91q38 5 63.5 23t24.5 52q-2 29 -28 48t-60 33v-156zM267 520q-25 -7 -41.5 -21t-18.5 -37q-3 -26 14 -45.5t46 -35.5v139z" />
    <glyph glyph-name="percent" unicode="%" horiz-adv-x="821" 
d="M762 53q-13 -30 -35 -50.5t-51 -31.5t-60 -12q-28 -1 -55.5 8.5t-50 29t-37 48.5t-15.5 67q-2 38 9.5 69.5t32.5 54.5t49.5 36.5t61.5 15.5t63 -9t52.5 -32.5t35.5 -52.5t13 -70q0 -40 -13 -71zM619 33q27 2 44.5 29t16.5 67q-1 41 -22.5 62.5t-46.5 20.5
q-26 -1 -43.5 -26.5t-17.5 -65.5t20.5 -64.5t48.5 -22.5zM235 -29q-13 -20 -32.5 -24t-35 4t-21 27t11.5 45q25 36 59.5 86.5t74.5 107.5t81.5 117.5t80 116.5t70.5 104.5t53 81.5q13 21 34 25t38 -4.5t24 -26.5t-8 -41q-26 -41 -63.5 -96.5t-79.5 -116t-86 -122t-83 -116.5
t-70.5 -99t-47.5 -69zM350 412q-13 -31 -34.5 -52t-50.5 -32.5t-60 -12.5q-28 -1 -55.5 8.5t-50 29t-37 48.5t-15.5 67q-2 38 9.5 69.5t32.5 54.5t49.5 36.5t61.5 15.5t63 -8.5t52 -31.5t35 -51.5t13 -69.5q0 -40 -13 -71zM208 389q27 2 43 29t15 67q-1 41 -21 60.5
t-45 18.5q-26 -1 -43.5 -24.5t-17.5 -63.5t20.5 -64.5t48.5 -22.5z" />
    <glyph glyph-name="ampersand" unicode="&#x26;" horiz-adv-x="673" 
d="M589 31q20 -18 20 -38t-12 -33t-30.5 -15t-36.5 15l-65 68q-51 -42 -111.5 -66.5t-131.5 -26.5q-55 -2 -91.5 15.5t-54.5 47.5t-18 70t16.5 82.5t48.5 85.5t80 79l-28 31q-14 16 -27.5 34.5t-23.5 39.5t-16 45t-4 50q2 32 17 60t40.5 49t60 32.5t75.5 10.5q38 -1 73 -10
t62.5 -28t44 -47.5t18.5 -68.5q1 -36 -14 -66.5t-39 -56.5t-54 -48t-59 -40l138 -150q24 28 45 57.5t38 60.5q11 21 28 24t30.5 -5.5t19.5 -25.5t-5 -36q-21 -38 -44.5 -72.5t-49.5 -64.5zM334 171q-40 44 -76 84q-39 -29 -67 -70t-36 -78.5t7 -63.5t62 -26t93.5 20.5
t88.5 55.5q-32 35 -72 78zM357 423q20 18 33.5 36.5t14.5 36.5q1 42 -31 65.5t-82 22.5q-49 -1 -72 -20.5t-25 -51.5q-2 -30 13.5 -60t44.5 -65q4 -5 9 -11t13 -14q19 12 41 28t41 33z" />
    <glyph glyph-name="quotesingle" unicode="'" horiz-adv-x="258" 
d="M177 588q-2 -26 -16.5 -39t-31.5 -13.5t-31.5 12.5t-16.5 40q-2 26 -3 57.5t-2 57.5q-1 30 16 45.5t37 16t37 -15t16 -46.5q-1 -26 -2 -57.5t-3 -57.5z" />
    <glyph glyph-name="parenleft" unicode="(" horiz-adv-x="354" 
d="M292 -88q-4 -18 -18 -27.5t-32.5 -8.5t-32.5 16q-26 28 -50.5 71t-44.5 97t-32 117t-12 132q0 68 13 130.5t34 116t46.5 96t49.5 70.5q18 21 38 23t34 -7.5t18 -27.5t-10 -39q-27 -41 -49.5 -82t-38.5 -85t-25 -92.5t-9 -102.5q0 -55 7.5 -102t21.5 -90t35 -83.5
t48 -82.5q14 -21 9 -39z" />
    <glyph glyph-name="parenright" unicode=")" horiz-adv-x="354" 
d="M145 -108q-14 -15 -32.5 -16t-32 8.5t-18 27.5t9.5 39q27 42 48 82.5t35 83.5t21.5 90t7.5 102q0 54 -9 102.5t-25 92.5t-38.5 85t-49.5 82q-14 21 -10 39t18 27.5t34 7.5t38 -23q24 -28 49.5 -70.5t46.5 -96t34 -116t13 -130.5q0 -69 -12.5 -132t-32 -117t-45 -97
t-50.5 -71z" />
    <glyph glyph-name="asterisk" unicode="*" horiz-adv-x="472" 
d="M358 429q13 -17 7 -33.5t-21 -26.5t-33 -9t-29 20q-9 16 -22 44.5t-28 60.5q-13 -32 -27 -63t-23 -47q-11 -19 -29.5 -20t-33.5 9t-21 26.5t8 33.5q9 11 26 34t31 42q-22 -2 -43.5 -4.5t-35.5 -3.5q-21 -2 -32.5 11.5t-12 30t11.5 30t37 11.5q20 -2 36 -3t43 -4
q-17 20 -31 38.5t-26 35.5q-14 20 -6.5 36t24 24t35 6.5t26.5 -16.5q4 -8 9.5 -21.5t11 -29t11 -30.5t10.5 -27q4 12 10 27t12 30.5t11.5 29.5t9.5 22q7 15 26 16.5t35.5 -6.5t24 -24t-6.5 -36q-12 -17 -27 -36t-32 -39q27 3 43.5 4t36.5 3q25 2 37 -11.5t11.5 -30t-12 -30
t-32.5 -11.5q-14 1 -34.5 3t-42.5 4z" />
    <glyph glyph-name="plus" unicode="+" horiz-adv-x="535" 
d="M320 269q-1 -39 0.5 -75.5t-1.5 -71.5q-3 -24 -17.5 -36t-31 -11.5t-30 12.5t-14.5 36q-2 38 -2.5 74.5t-1.5 70.5l-122 -2q-27 -1 -39.5 13.5t-12 31.5t13 32t34.5 16l124 2v144q0 25 16 38.5t35 14t34.5 -12.5t14.5 -39q-1 -40 0.5 -76.5t0.5 -68.5q35 0 65 1t62 -1
q23 -1 33.5 -15t10 -30.5t-11.5 -30.5t-31 -14z" />
    <glyph glyph-name="comma" unicode="," horiz-adv-x="220" 
d="M47 -31q8 25 11 57q-4 13 -1 26t11 22.5t20.5 15.5t27.5 5q24 -2 37.5 -18.5t10.5 -44.5q-2 -20 -8.5 -42t-15.5 -42.5t-19.5 -39t-20.5 -31.5q-12 -17 -29 -19.5t-30.5 4.5t-19.5 22t4 34q14 25 22 51z" />
    <glyph glyph-name="hyphen" unicode="-" horiz-adv-x="380" 
d="M344 276q-11 -15 -34 -13q-60 3 -124 3t-119 -3q-23 -2 -34.5 12.5t-11.5 32.5t10.5 33.5t33.5 17.5q61 4 128.5 3.5t121.5 -2.5q19 -1 29.5 -16.5t10.5 -34t-11 -33.5z" />
    <glyph glyph-name="period" unicode="." horiz-adv-x="252" 
d="M190 16q0 -28 -19 -47t-48 -19q-28 0 -47 19t-19 47q0 29 19 48t47 19q29 0 48 -19t19 -48z" />
    <glyph glyph-name="slash" unicode="/" horiz-adv-x="308" 
d="M139 -4q-6 -23 -23 -30.5t-35 -4t-30 18t-7 35.5q13 62 28.5 140t31.5 162t32.5 169t31.5 160q5 25 22 34t35 5.5t30.5 -18.5t7.5 -39q-15 -76 -32.5 -166.5t-34 -178.5t-31.5 -164t-26 -123z" />
    <glyph glyph-name="zero" unicode="0" horiz-adv-x="466" 
d="M222 86q29 1 49.5 22.5t33.5 54.5t19.5 73.5t7.5 80.5q1 42 -3.5 82.5t-15.5 71.5t-29 50t-43 19q-30 0 -50.5 -20t-34 -52.5t-20.5 -73.5t-9 -84q-2 -41 3 -81.5t17 -73t30.5 -52t44.5 -17.5zM369 97q-25 -41 -59.5 -65t-76.5 -27q-50 -4 -87.5 18t-63 63t-37.5 97
t-10 121q2 61 15 119t38 103t62.5 72t89.5 27q52 -1 89 -29.5t59.5 -73t32 -98.5t7.5 -105q-3 -68 -18 -124.5t-41 -97.5z" />
    <glyph glyph-name="one" unicode="1" horiz-adv-x="298" 
d="M112 402q5 62 11 121q-12 -8 -26 -18t-34 -24q-15 -9 -28.5 -4t-21.5 16t-8 25.5t12 24.5q29 21 66.5 44.5t68.5 38.5q13 7 26.5 5.5t24 -9t16 -19t3.5 -23.5q-7 -42 -12.5 -106.5t-8.5 -138t-2.5 -149.5t6.5 -142q2 -20 -11.5 -31t-30.5 -12.5t-32.5 7.5t-16.5 30
q-6 56 -7.5 117t0 123t5.5 124z" />
    <glyph glyph-name="two" unicode="2" horiz-adv-x="452" 
d="M185 134q-27 -29 -47 -51q27 -3 59.5 -2t65.5 4.5t64 8.5t55 10q18 3 29.5 -7t14.5 -25t-4 -29.5t-26 -19.5q-32 -8 -73.5 -13.5t-85 -8t-85.5 -1t-75 7.5q-19 3 -32 14t-18 25.5t-2 30.5t16 30q37 43 82.5 90.5t85 94t66 90t26.5 79.5q-1 37 -22 51t-48 16
q-32 2 -62 -12.5t-56 -39.5q-14 -14 -30 -10t-26.5 16.5t-12 30.5t12.5 32q30 32 77.5 51.5t98.5 17.5q30 0 58.5 -8.5t51.5 -25.5t37.5 -43t16.5 -62q2 -33 -10.5 -68.5t-35 -72t-51 -72t-58 -68t-57.5 -61.5z" />
    <glyph glyph-name="three" unicode="3" horiz-adv-x="376" 
d="M239 323q-19 -24 -40 -46q13 3 31.5 3.5t37.5 -3.5t36.5 -12t28.5 -21q18 -22 19 -48t-10.5 -53t-33.5 -53.5t-48 -49t-54 -40.5t-52 -27q-19 -7 -33.5 1.5t-21 23.5t-2 31.5t23.5 25.5q39 18 66 39t43 40t21.5 34t2.5 22q-5 9 -20.5 12t-36 3t-41 -2.5t-33.5 -5.5
q-15 -4 -28 3t-20 19.5t-6.5 27t13.5 24.5q30 24 54.5 51.5t42 54t26.5 51t9 42.5q0 29 -15 46t-37.5 23t-49.5 2t-51 -16q-17 -9 -31 -2t-20 21.5t-2 31t21 26.5q38 22 86 25.5t90 -12.5t71 -50.5t29 -87.5q0 -25 -8.5 -51t-23 -52t-34.5 -51z" />
    <glyph glyph-name="four" unicode="4" horiz-adv-x="492" 
d="M417 227q21 7 35 0t18 -20.5t-2.5 -28t-25.5 -21.5q-14 -5 -28.5 -8.5t-31.5 -7.5q-3 -28 -7 -55.5t-9 -54.5q-4 -18 -18.5 -25.5t-30.5 -5t-27 14.5t-8 32q3 19 6 39t5 40q-55 -8 -109 -11t-95 -1q-40 2 -59.5 28.5t-8.5 58.5q18 50 44.5 104t56 105t58 96t49.5 76
q12 19 30.5 21t33 -7.5t20 -26.5t-9.5 -35q-16 -21 -42 -60.5t-53.5 -87t-52.5 -97t-40 -91.5q-1 -7 3 -7q38 0 86 2.5t96 8.5q3 51 2 102t-6 102q-2 18 11.5 28.5t30 12t31 -6.5t16.5 -27q3 -46 4 -95t-1 -100z" />
    <glyph glyph-name="five" unicode="5" horiz-adv-x="428" 
d="M335 91q-22 -28 -49 -53.5t-57.5 -47.5t-59.5 -37q-17 -9 -33 -1.5t-25 21.5t-8 29.5t18 24.5q43 21 75.5 47.5t52.5 51.5t27.5 46t1.5 31q-7 12 -28.5 15.5t-47 2t-49.5 -5t-36 -6.5q-20 -4 -39 7t-19 34q0 64 9.5 131t31.5 117q8 17 24.5 22t32 0t24.5 -18.5t2 -32.5
q-13 -32 -21 -78t-8 -94q20 4 51 5t62.5 -3t58.5 -15t40 -30q16 -24 16 -51t-12.5 -55.5t-34.5 -56.5zM367 564q-11 -12 -30 -11q-64 2 -131.5 -0.5t-133.5 -12.5q-19 -3 -30 9t-13.5 27.5t4.5 29.5t25 17q62 8 137 12.5t147 0.5q19 -1 28 -14t8.5 -29t-11.5 -29z" />
    <glyph glyph-name="six" unicode="6" horiz-adv-x="439" 
d="M221 443q-41 -63 -65 -133q13 5 31.5 9.5t37.5 8t36.5 5.5t29.5 2q54 0 89 -32.5t40 -78.5q5 -47 -19 -87.5t-62 -70.5t-84 -47.5t-85 -17.5q-65 0 -97 39.5t-37 102.5q-3 42 6 89.5t25 94.5t39.5 92.5t49.5 84t54.5 68t56.5 46.5q16 10 32.5 6.5t26.5 -15t9.5 -27.5
t-16.5 -29q-56 -46 -98 -110zM278 121q23 17 38.5 39.5t14.5 48.5q-1 21 -17.5 31t-38.5 10q-11 0 -27.5 -1.5t-35.5 -5.5t-39 -10.5t-38 -16.5q-6 -21 -8 -44t2 -42.5t14.5 -32t30.5 -12.5q25 0 53 9.5t51 26.5z" />
    <glyph glyph-name="seven" unicode="7" horiz-adv-x="446" 
d="M167 482q-50 -8 -107 -26q-22 -8 -36 2t-18.5 26.5t2.5 34t28 24.5q60 19 124.5 30t134.5 11q26 0 47.5 -6.5t35.5 -21.5t19 -39t-1 -59q-8 -45 -22 -102.5t-32 -117.5t-38.5 -117t-40.5 -100q-7 -16 -25 -19.5t-35 3t-26.5 20.5t-0.5 33q22 46 41.5 100t35.5 108.5
t28.5 106.5t19.5 94q2 14 -6 20.5t-22 5.5q-55 -3 -106 -11z" />
    <glyph glyph-name="eight" unicode="8" horiz-adv-x="452" 
d="M279 85q16 9 26.5 21.5t10.5 27.5t-11 32t-26.5 32.5t-32 28.5t-25.5 21q-18 -22 -33 -44t-25.5 -41t-16.5 -33.5t-6 -22.5q0 -20 20 -28.5t46 -9.5q18 0 37.5 4t35.5 12zM213 356q22 23 42.5 52t41.5 55q14 19 11 36.5t-16.5 30.5t-34 20.5t-41.5 7.5q-32 0 -59 -19
t-29 -52q-1 -20 6 -39t19 -36t27.5 -31.5t32.5 -24.5zM310 351q-19 -22 -34 -40q21 -17 45.5 -37t44.5 -43.5t32.5 -49.5t11.5 -54q-2 -29 -22 -54.5t-50.5 -43.5t-69 -28t-75.5 -8q-45 3 -84.5 20.5t-56.5 50.5q-11 20 -7 44.5t12 44.5q6 11 16.5 27.5t24.5 36t30.5 41
t33.5 42.5q-25 19 -48.5 40t-41.5 44t-28.5 49.5t-8.5 55.5q2 37 20 65t45 47t59.5 27.5t62.5 6.5q41 -2 77.5 -14.5t61.5 -34t35.5 -50t0.5 -61.5q-5 -17 -18.5 -37.5t-31.5 -42.5t-37 -44z" />
    <glyph glyph-name="nine" unicode="9" horiz-adv-x="454" 
d="M249 17q-12 -15 -30 -16t-32.5 7.5t-20.5 23t6 31.5t26.5 41t28.5 52.5t27.5 61t23.5 65.5q-21 -5 -41.5 -8.5t-40.5 -3.5q-75 0 -119 33.5t-46 85.5q-2 49 21.5 92.5t60 75.5t81 50.5t84.5 18.5q33 0 57 -12t39 -32.5t22.5 -48.5t7.5 -60q0 -57 -16.5 -125.5
t-40.5 -133.5t-50.5 -118.5t-47.5 -79.5zM300 366q8 32 12 60t4 51q0 10 -1 21.5t-5 22t-12 17.5t-22 7q-21 0 -47.5 -10t-50 -29.5t-39.5 -47t-15 -61.5q1 -26 22 -35t52 -9q23 0 49 3t53 10z" />
    <glyph glyph-name="colon" unicode=":" horiz-adv-x="246" 
d="M189 131q0 -28 -19 -47t-48 -19q-28 0 -47 19t-19 47q0 29 19 48t47 19q29 0 48 -19t19 -48zM189 501q0 -28 -19 -47t-48 -19q-28 0 -47 19t-19 47q0 29 19 48t47 19q29 0 48 -19t19 -48z" />
    <glyph glyph-name="semicolon" unicode=";" horiz-adv-x="246" 
d="M189 501q0 -28 -19 -47t-48 -19q-28 0 -47 19t-19 47q0 29 19 48t47 19q29 0 48 -19t19 -48zM110 -23q-12 -17 -29 -19.5t-30.5 4.5t-19.5 22t4 34q14 25 22 50.5t11 57.5q-4 13 -1 26t11.5 22.5t21 15.5t27.5 5q24 -2 37 -18.5t10 -44.5q-2 -20 -8.5 -42t-15.5 -42.5
t-19.5 -39t-20.5 -31.5z" />
    <glyph glyph-name="less" unicode="&#x3c;" horiz-adv-x="429" 
d="M391 -89q-5 -21 -21.5 -31.5t-38.5 -7t-39 28.5q-18 28 -47 71t-60.5 91t-61.5 96t-50 86q-11 21 -16.5 37t-5.5 31t5.5 31t16.5 37q20 38 51 86t63.5 96t62.5 91t48 71q16 25 36.5 28.5t36.5 -7t21.5 -31t-8.5 -43.5q-26 -41 -58.5 -88.5t-65 -95.5t-61.5 -93.5
t-48 -81.5q19 -36 47.5 -81.5t60.5 -93.5l64 -96t58 -88q16 -23 10 -43z" />
    <glyph glyph-name="equal" unicode="=" horiz-adv-x="475" 
d="M415 393q-11 -14 -32 -15q-70 -4 -141 -5l-142 -2q-25 0 -38.5 14.5t-14.5 32t11 32.5t38 16q44 1 79 2t68 1h67t76 -1q22 -1 32 -14.5t9 -30t-12 -30.5zM416 161q-12 -14 -33 -15q-70 -4 -141 -5l-142 -2q-25 0 -38.5 14.5t-15 32t10.5 32.5t39 16q44 1 79 2t68 1h67
t76 -1q23 -1 33.5 -14.5t9.5 -30t-13 -30.5z" />
    <glyph glyph-name="greater" unicode="&#x3e;" horiz-adv-x="429" 
d="M232 231q29 46 48 82q-19 36 -48 81.5t-61.5 93.5t-65 95.5t-58.5 88.5q-14 23 -8.5 43.5t21.5 31t36.5 7t36.5 -28.5q18 -28 48 -71t62.5 -91t63.5 -96t51 -86q11 -21 16.5 -37t5.5 -31t-5.5 -31t-16.5 -37q-20 -38 -50 -86t-61.5 -96t-60.5 -91t-47 -71
q-17 -25 -39 -28.5t-38.5 7t-22 31t10.5 43.5q26 40 58 88l64 96t60 93z" />
    <glyph glyph-name="question" unicode="?" horiz-adv-x="528" 
d="M283 179q0 -26 -15 -38.5t-33 -13t-33 11.5t-15 36q0 21 5 46.5t18.5 54.5t38 60.5t62.5 64.5q10 9 21 19t20 23t14 29.5t4 39.5q-2 46 -35.5 71t-83.5 21q-29 -2 -50 -14.5t-34 -31.5t-18.5 -42.5t-2.5 -48.5q3 -26 -9.5 -40.5t-30.5 -16t-35 9.5t-21 36q-6 35 0.5 75
t29 74.5t62 59.5t98.5 30q57 5 101 -9.5t73 -42t44 -65t15 -77.5q0 -33 -12.5 -60.5t-32.5 -52t-45.5 -47.5t-50.5 -46q-13 -12 -22 -27t-15 -31t-9 -31.5t-3 -26.5zM303 16q0 -28 -19 -47t-48 -19q-28 0 -47 19t-19 47q0 29 19 48t47 19q29 0 48 -19t19 -48z" />
    <glyph glyph-name="at" unicode="@" horiz-adv-x="862" 
d="M551 475q4 15 18 21t28 3t24 -15t6 -32q-6 -29 -12 -55.5l-12 -53t-12.5 -54t-13.5 -58.5q-4 -17 2.5 -36.5t25.5 -22.5t38 7.5t34.5 31t27 48.5t14.5 59q9 75 -10 133.5t-57.5 98.5t-93 59.5t-116.5 18.5q-63 -1 -117 -24.5t-94 -65.5t-64 -101t-27 -132
q-3 -72 19 -132.5t62.5 -103.5t94 -66.5t113.5 -21.5q41 1 74.5 8t60.5 17.5t48 23.5t38 26t33 9t25 -16.5t9 -29.5t-15 -30q-21 -18 -51 -33.5t-65.5 -27.5t-75 -19.5t-79.5 -8.5q-82 -1 -153.5 25t-123.5 77.5t-81 127.5t-27 175q2 85 32.5 157.5t83.5 126t124.5 85.5
t155.5 35q81 3 154.5 -23.5t126 -79t78 -127.5t12.5 -169q-9 -63 -37.5 -106.5t-67 -68.5t-81 -30.5t-79.5 8.5q-14 5 -29 20.5t-17 34.5q-18 -31 -50 -48.5t-77 -13.5q-37 3 -65.5 23t-46.5 52.5t-23 74t4 87.5q9 42 28 74.5t45.5 54.5t57.5 32t63 7q19 -2 36.5 -9
t31.5 -17t23 -22t11 -24zM466 208q16 15 27.5 37.5t16.5 53.5q10 63 -7 96t-55 43q-20 5 -40.5 0.5t-38 -19t-30.5 -38t-17 -56.5q-5 -32 -0.5 -59.5t15.5 -47t28 -30t37 -9.5q15 1 32 8t32 21z" />
    <glyph glyph-name="A" unicode="A" horiz-adv-x="553" 
d="M415 52q3 84 -3 164q-50 -5 -97.5 -7t-98.5 -2q-22 1 -31.5 14.5t-8.5 29t13 28t33 11.5q35 0 81.5 3t97.5 8q-8 45 -19.5 85t-28 70.5t-37.5 50t-48 24.5q-18 4 -31 0.5t-25 -20.5q-25 -37 -39.5 -91t-21 -116t-8 -128t0.5 -128q2 -24 -12.5 -35.5t-33 -12t-34.5 10.5
t-16 32q-4 76 -0.5 156.5t15.5 154t33 134.5t54 98q26 29 67.5 38.5t76.5 0.5q48 -13 83.5 -45.5t60.5 -78.5t40.5 -102t23.5 -116t9.5 -120.5t-0.5 -115.5q-1 -23 -17 -33t-34 -9t-32.5 13t-12.5 34z" />
    <glyph glyph-name="B" unicode="B" horiz-adv-x="537" 
d="M153 200q8 -62 24 -120q43 2 79.5 14t63.5 29.5t43 39.5t16 45q0 24 -15 40.5t-39 27.5t-52.5 16.5t-54.5 5.5q-17 0 -25.5 13.5t-8.5 29.5t8.5 30.5t26.5 17.5q30 5 63.5 18.5t61 31t45.5 37t18 37.5q0 16 -15 24t-38 9t-50.5 -4t-53.5 -15q-20 -8 -32.5 1t-17 24t1 31
t22.5 23q23 10 53.5 16.5t62.5 8t62.5 -3.5t53.5 -18t37 -34.5t13 -54.5q-1 -26 -16.5 -52.5t-39 -49.5t-51.5 -40.5t-53 -25.5q21 -5 44.5 -17t43.5 -30.5t32 -42.5t11 -53q-2 -54 -34.5 -93t-81.5 -65t-105.5 -39t-105.5 -14q-17 0 -34 6t-22 22q-19 54 -30 128.5
t-13 153.5t4.5 155t23.5 134q5 21 22.5 29.5t35 5.5t29 -17.5t5.5 -38.5q-13 -60 -19.5 -123.5t-6 -127t7.5 -125.5z" />
    <glyph glyph-name="C" unicode="C" horiz-adv-x="466" 
d="M420 579q-7 -16 -31 -23q-48 -16 -93.5 -45.5t-82 -67t-60.5 -81t-27 -86.5q-4 -47 20.5 -82t66.5 -58t94.5 -34t103.5 -10q21 0 32 -13t12 -29.5t-9 -31t-32 -15.5q-45 -3 -93 3.5t-93 22t-84 39t-67 55.5t-42 72.5t-8 88.5q9 70 42.5 129t80.5 104t102 76t107 46
q23 7 39.5 -2.5t22.5 -25t-1 -32.5z" />
    <glyph glyph-name="D" unicode="D" horiz-adv-x="548" 
d="M155 151q7 -57 21 -109q6 -19 -5.5 -31.5t-28.5 -17t-34 1.5t-22 24q-20 58 -28.5 137t-7.5 162.5t11.5 163.5t28.5 140q5 17 21.5 22.5t33.5 1t28.5 -18t5.5 -32.5q-1 -1 -1 -4q55 18 116 17.5t111 -22t82 -65.5t30 -112q-2 -62 -24 -118t-56 -103t-74.5 -82.5
t-78.5 -54.5q-22 -13 -41 -8t-28.5 19t-6.5 31.5t24 30.5q83 49 132.5 123t51.5 159q1 53 -23.5 81t-62.5 37t-83.5 2t-86.5 -25q-9 -56 -12.5 -115t-1.5 -118t9 -117z" />
    <glyph glyph-name="E" unicode="E" horiz-adv-x="518" 
d="M364 115q36 11 51 22q21 12 38.5 7.5t26.5 -18t6.5 -31t-21.5 -31.5q-21 -14 -60 -28t-85 -22.5t-91.5 -10.5t-79.5 8q-25 8 -46.5 21t-33.5 43q-18 40 -24 96.5t-5 116.5t8.5 117.5t16.5 100.5q-13 4 -19 17t-4.5 27t10 25.5t24.5 13.5q75 10 149.5 14.5t155.5 -1.5
q19 -1 29.5 -13.5t10.5 -27.5t-10 -27t-32 -11q-54 0 -107.5 -1.5t-107.5 -6.5q-11 -51 -19 -109t-9.5 -114t4.5 -105.5t24 -85.5q15 -11 50.5 -11t75 7t74.5 18zM482 302q-8 -15 -29 -20q-22 -6 -52 -10.5t-62 -8t-63.5 -5.5t-56.5 -3q-20 -1 -31 12t-11.5 28.5t9 29
t29.5 14.5q26 1 56.5 3.5t60.5 5.5t56.5 7t45.5 8q21 4 35 -6t17.5 -25t-4.5 -30z" />
    <glyph glyph-name="F" unicode="F" horiz-adv-x="495" 
d="M460 318q-7 -15 -28 -19q-56 -17 -124.5 -26.5t-137.5 -10.5q4 -59 12.5 -113t22.5 -98q6 -20 -4.5 -33t-27.5 -18t-34 0.5t-24 23.5q-18 54 -28.5 115.5t-14 125.5t-1.5 129.5t9 128.5q-2 -1 -5 -1q-19 -3 -30 8.5t-13.5 27.5t5 30.5t26.5 17.5q83 15 168 19.5t169 -0.5
q19 -1 29 -15t9.5 -30t-11 -28.5t-31.5 -10.5q-53 2 -107.5 0.5t-111.5 -7.5q-5 -42 -8 -89.5t-3 -96.5q63 2 127 8.5t118 21.5q20 6 34 -4t18 -25t-3 -31z" />
    <glyph glyph-name="G" unicode="G" horiz-adv-x="604" 
d="M399 36q-57 -11 -118.5 -7.5t-114.5 26t-90 67t-44 116.5q-5 47 6.5 92t34 85.5t54.5 76t68 64t73.5 48t72.5 29.5q21 6 36 -2.5t21 -23t1 -30t-24 -22.5q-47 -17 -93.5 -49t-82.5 -73.5t-57 -89.5t-16 -96q4 -48 28.5 -77t62.5 -44t86.5 -16.5t101.5 6.5q1 39 -1 78.5
t-8 80.5q-27 -2 -53.5 -5.5t-53.5 -7.5q-20 -4 -31 6.5t-13.5 25t5.5 28.5t26 17q33 7 70 11.5t74 7.5t71 4.5t60 0.5q20 0 31 -12t11.5 -26t-9 -26t-30.5 -13q-17 -1 -33.5 -1t-33.5 -2q3 -35 5 -73.5t1.5 -77.5t-3 -76t-7.5 -70q-3 -18 -18 -25.5t-32 -5.5t-29.5 13.5
t-9.5 31.5z" />
    <glyph glyph-name="H" unicode="H" horiz-adv-x="585" 
d="M362 360q37 1 67 1q-2 44 -6 88t-11 90q-3 22 10.5 35.5t32.5 15.5t36.5 -6.5t20.5 -29.5q19 -126 17.5 -255.5t-29.5 -257.5q-4 -20 -20 -28.5t-33.5 -6t-30 15t-8.5 33.5q10 54 15 107.5t7 109.5q-32 0 -68 -0.5t-73 -2t-72 -3.5t-65 -5q3 -53 12 -105t26 -103
q6 -19 -5.5 -33t-29 -19t-35 0t-24.5 25q-21 63 -32.5 137t-12.5 149.5t8.5 150t30.5 139.5q5 18 22.5 24t35 1.5t29 -18.5t5.5 -35q-14 -54 -22 -110.5t-10 -115.5q28 3 64.5 6t74 4.5t73.5 1.5z" />
    <glyph glyph-name="I" unicode="I" horiz-adv-x="386" 
d="M150 86q7 53 9.5 110t1.5 115.5t-5 116.5t-10 112q-16 -2 -31.5 -4.5t-29.5 -4.5q-19 -5 -30.5 6t-14 27t5 31t26.5 18q52 11 112.5 16.5t112.5 2.5q19 0 29 -13.5t11 -29t-8.5 -28.5t-30.5 -12h-28.5t-30.5 -1q6 -51 10 -108.5t5 -117t-1 -119.5t-9 -115q13 1 25.5 2
t26.5 3q19 3 30.5 -7.5t13.5 -25t-6 -28t-28 -16.5q-51 -11 -106 -14.5t-106 -0.5q-19 1 -29 14t-10.5 29t8.5 29t29 13h58z" />
    <glyph glyph-name="J" unicode="J" horiz-adv-x="380" 
d="M271 554q6 -28 11.5 -67t10 -82.5t7 -88.5t0.5 -85q-2 -46 -9.5 -87.5t-22.5 -74t-39.5 -53.5t-60.5 -25t-64.5 7.5t-48.5 32.5t-31.5 48.5t-12.5 55.5q-2 19 11.5 30.5t31 13.5t33 -6.5t17.5 -28.5q2 -23 14.5 -43t32.5 -20q14 1 23 13t15 32.5t9 48t4 59.5
q0 38 -2.5 82t-6.5 87t-9.5 82t-11.5 68q-26 -1 -53 -3t-57 -5q-18 -3 -28.5 8t-12.5 25.5t6 28t28 16.5q24 4 56.5 7.5t67 5t69 1t63.5 -2.5q19 -1 29 -14t10 -28t-10.5 -27t-32.5 -11h-36z" />
    <glyph glyph-name="K" unicode="K" horiz-adv-x="522" 
d="M90 6q-17 8 -20 28q-12 60 -16 130.5t-3.5 144t5.5 147t11 140.5q2 19 18.5 27.5t34.5 7t31.5 -13t10.5 -32.5q-7 -63 -11.5 -125t-6.5 -125q74 66 152 120.5t150 88.5q18 9 34.5 0t24.5 -24.5t5.5 -33.5t-23.5 -28q-70 -36 -135 -80.5t-133 -101.5q63 -55 128 -104
t118 -81q20 -11 21.5 -29.5t-8 -33.5t-28 -21.5t-37.5 5.5q-76 45 -139.5 98t-120.5 107l-3.5 -3.5l-3.5 -3.5q2 -40 6.5 -79.5t12.5 -80.5q4 -21 -9 -33.5t-31 -15.5t-35 5z" />
    <glyph glyph-name="L" unicode="L" horiz-adv-x="462" 
d="M92 22q-20 16 -25 39q-23 128 -15.5 267.5t33.5 270.5q4 21 21.5 29t36 4.5t31.5 -17.5t7 -37q-11 -52 -18.5 -113t-10.5 -125t0 -126.5t12 -117.5q1 -8 14 -9q21 -1 48.5 0t57 4.5t57.5 10t51 17.5q19 9 34 0.5t21.5 -24t2 -32.5t-23.5 -25q-62 -27 -137 -34.5
t-144 -0.5q-32 3 -53 19z" />
    <glyph glyph-name="M" unicode="M" horiz-adv-x="656" 
d="M597 297q-5 -114 7 -235q3 -19 -10.5 -31.5t-31 -15.5t-33.5 5t-19 30q-5 30 -6.5 76.5t0 95t4 92.5t5.5 70q-8 -22 -23 -56.5t-33 -70.5t-37 -68t-34 -49q-7 -8 -18 -12.5t-23.5 -4.5t-24 4.5t-19.5 13.5q-21 24 -43.5 62.5t-43.5 82.5t-39 88t-31 79q-2 -44 -2.5 -94.5
t1.5 -103t7.5 -105t15.5 -101.5q6 -20 -6 -32.5t-29.5 -15.5t-35 4t-21.5 25q-14 61 -19 131.5t-4 143t7.5 144t15.5 134.5q3 18 20.5 29.5t39 13.5t40.5 -6.5t25 -30.5q9 -40 25 -89.5t36 -98.5t42 -93t43 -74q19 28 40 71t40 89t35 87.5t26 66.5q6 18 25.5 25.5t40.5 5.5
t37.5 -15t16.5 -36q-4 -116 -9 -231z" />
    <glyph glyph-name="N" unicode="N" horiz-adv-x="605" 
d="M414 188q24 -37 45 -64q-9 94 -14 194t5 216q2 20 18.5 29.5t35 8.5t33 -12.5t11.5 -33.5q-9 -115 -7 -230.5t13 -236.5q3 -18 -10.5 -31.5t-34 -20.5t-42 -5t-33.5 14q-36 33 -76.5 90.5t-78.5 124.5t-71.5 135.5t-57.5 121.5q-7 -101 -4.5 -216t22.5 -226q5 -20 -7 -32
t-30 -15t-35 4.5t-21 25.5q-13 59 -18.5 129.5t-5.5 143.5t4.5 144.5t12.5 133.5q3 21 23 33.5t44 15t46 -5t28 -25.5q10 -30 27 -69t38 -83t44.5 -89.5t47.5 -88.5t48 -80z" />
    <glyph glyph-name="O" unicode="O" horiz-adv-x="631" 
d="M146 365q-15 -38 -18 -78q-2 -47 9.5 -85t34.5 -65t56 -41.5t74 -13.5q53 1 90 23t61 54t36 71t15 75q1 40 -11 75t-35 61.5t-56 41.5t-74 16q-42 0 -77.5 -18t-62 -47.5t-42.5 -68.5zM516 89q-38 -41 -92.5 -65.5t-123.5 -26.5q-65 -2 -116.5 21.5t-87 63.5t-53 93
t-12.5 111q6 72 32 127.5t66.5 94t92.5 57.5t111 18q66 -1 117.5 -24.5t85.5 -62.5t50.5 -89.5t13.5 -105.5q-3 -62 -24 -116.5t-60 -95.5z" />
    <glyph glyph-name="P" unicode="P" horiz-adv-x="517" 
d="M445 574q34 -22 46 -61q13 -50 -3 -99.5t-52 -92.5t-88 -76t-110 -50q-18 -5 -32 5.5t-18.5 27t2 33.5t29.5 23q42 13 78 36.5t60.5 52t35 58t3.5 54.5q-7 23 -30 34.5t-56 13.5t-72 -4t-77 -18q-24 -112 -18.5 -228t42.5 -228q7 -20 -2.5 -34.5t-25.5 -20.5t-33 -1
t-24 23q-23 59 -35.5 134t-14 154.5t8.5 156.5t31 141q5 15 19.5 21t30 4t28 -11.5t13.5 -24.5q42 10 91.5 13t94 -5.5t78.5 -30.5z" />
    <glyph glyph-name="Q" unicode="Q" horiz-adv-x="614" 
d="M390 20q-49 -18 -107 -20q-56 -1 -104 20t-82.5 58t-52 87.5t-12.5 109.5q6 64 31.5 117.5t64.5 92t89.5 59t106.5 19.5q66 -1 116 -25t82.5 -62t48 -86t12.5 -97q-5 -72 -34 -131t-80 -98l16 -24t16 -23q12 -18 6.5 -34t-19.5 -25.5t-31 -9t-28 15.5zM387 203
q18 -33 38 -67q29 29 44.5 68t17.5 82q1 37 -9.5 72.5t-31 63t-51.5 44t-71 16.5q-44 -1 -79 -19t-60 -47t-40 -66t-19 -74q-5 -48 5.5 -85t33 -62t55 -38t71.5 -12q33 2 57 10q-41 69 -75 147q-8 17 2 31t26 20.5t33 3.5t23 -20q13 -34 30 -68z" />
    <glyph glyph-name="R" unicode="R" horiz-adv-x="543" 
d="M143 273q0 -114 16 -229q4 -20 -9 -31.5t-30 -14t-33 5t-19 27.5q-18 138 -17 279t25 290q3 18 18 26t32 6t30.5 -13t12.5 -29q27 7 60.5 13t68.5 8t69 -2t62 -15t47.5 -31.5t25.5 -51.5q7 -34 -5 -67t-39.5 -61.5t-69.5 -50.5t-93 -33q40 -54 93 -101t103 -84
q20 -14 21.5 -33t-9 -33.5t-29 -19.5t-36.5 8q-35 24 -70 54t-67.5 62t-61 66t-51.5 66q-8 9 -9.5 22.5t2.5 26t13.5 22t24.5 10.5q43 7 79 20.5t61 31t37 37t7 39.5q-6 20 -36 27.5t-68.5 6.5t-78 -8t-63.5 -16q-14 -115 -14 -230z" />
    <glyph glyph-name="S" unicode="S" horiz-adv-x="522" 
d="M473 83q-25 -36 -66.5 -56t-94 -24.5t-105 5t-98.5 31.5t-74 54q-12 14 -9 32.5t14.5 32t29 16t34.5 -15.5q19 -20 48.5 -35.5t62.5 -23.5t66 -9t59.5 6.5t42.5 24.5t15 45q-1 21 -13.5 36t-31.5 26.5t-41.5 20.5t-43.5 17q-39 15 -77 32.5t-67 41t-46 54t-13 72.5
q5 58 41 90.5t85 47t103.5 13t97.5 -11.5q21 -5 29.5 -22t4.5 -34.5t-18.5 -28.5t-38.5 -5q-30 8 -64.5 11t-64.5 -2t-50.5 -20t-23.5 -42q-3 -22 9.5 -39t34.5 -30.5t50 -24.5t57 -23q30 -12 61.5 -25t57 -32t42.5 -45.5t18 -66.5q3 -56 -23 -93z" />
    <glyph glyph-name="T" unicode="T" horiz-adv-x="506" 
d="M361 624q56 0 97 -4q20 -1 29.5 -15t8 -29.5t-13 -28t-32.5 -11.5q-34 2 -68.5 3t-69.5 0q8 -124 5 -247t-14 -257q-2 -20 -18 -29t-34.5 -7.5t-33 13.5t-12.5 34q12 120 12.5 242.5t-7.5 247.5q-80 -5 -160 -15q-18 -2 -28.5 9.5t-11.5 27.5t7.5 30t26.5 16q39 6 93 11
t111.5 7t112.5 2z" />
    <glyph glyph-name="U" unicode="U" horiz-adv-x="590" 
d="M213 111q32 -20 82 -21q48 2 79 24.5t48 58.5t22.5 82t3.5 96t-10.5 100.5t-19.5 94.5q-5 21 8.5 34.5t32 17t36 -4t22.5 -28.5q13 -50 22.5 -110.5t10 -123t-11.5 -122t-41.5 -105.5t-79 -75t-124.5 -30q-69 -1 -117 22.5t-78.5 64t-45 95.5t-16.5 115.5t6.5 124
t24.5 122.5q5 21 23 29t36.5 5t31.5 -16.5t7 -35.5q-10 -42 -18 -90.5t-10 -96.5t3.5 -92.5t23.5 -79t49 -55.5z" />
    <glyph glyph-name="V" unicode="V" horiz-adv-x="603" 
d="M105 594q18 -9 20 -32q6 -42 19 -91.5t29 -100t33.5 -97t33 -83t27.5 -58t16 -21.5q5 0 18 22.5t31 60t38.5 86.5t40.5 102t37 107t28 101q5 20 23.5 26t37.5 0.5t32 -19.5t7 -33q-12 -40 -31 -97.5t-43.5 -121t-53 -125.5t-58 -111.5t-58.5 -79.5t-56 -28
q-21 2 -44.5 27t-48 66t-48.5 95t-45 114t-37.5 122t-26.5 119q-4 23 10 37.5t33 18t36 -5.5z" />
    <glyph glyph-name="W" unicode="W" horiz-adv-x="758" 
d="M401 302q-12 42 -21 79q-8 -34 -18.5 -75.5t-23 -83t-27 -81t-32 -69.5t-37 -49t-41.5 -19q-35 0 -60.5 21.5t-44 59t-30.5 87.5t-19.5 106.5t-11 115.5t-4.5 115q-1 21 13.5 32.5t32.5 13t33 -7.5t16 -29q1 -82 9 -155t18.5 -128t22.5 -87t23 -32q5 0 14.5 21.5t22 56.5
t26 79.5t25 91t20 90t11.5 77.5q2 23 20 34.5t39 11.5t39 -11.5t21 -33.5q3 -30 13 -72t23 -88.5t27.5 -92t28 -81.5t23.5 -58.5t14 -22.5q7 0 17 29.5t19 85t16 133t8 173.5q0 21 15 32t33.5 11.5t33.5 -9.5t15 -29q0 -46 -2.5 -103.5t-8.5 -117.5t-17 -117t-28 -101.5
t-41 -72t-56 -28.5q-21 0 -41 17.5t-38 47t-34 68t-30 81t-26 84.5z" />
    <glyph glyph-name="X" unicode="X" horiz-adv-x="524" 
d="M330 121q-50 53 -100 113q-35 -52 -66.5 -104.5t-57.5 -106.5q-10 -20 -28.5 -23.5t-34.5 4t-24.5 23.5t2.5 36q26 57 64.5 120t83.5 127q-47 60 -85.5 121t-61.5 119q-9 23 1 40t27 24t34.5 2t25.5 -26q18 -48 48.5 -99t68.5 -102q51 68 102 127t96 101q16 15 35 13
t32 -14t16 -30t-13 -34q-57 -57 -109 -116.5t-100 -122.5q56 -66 112 -124t99 -100q14 -14 11 -32.5t-16 -32t-32 -16.5t-37 15q-43 45 -93 98z" />
    <glyph glyph-name="Y" unicode="Y" horiz-adv-x="574" 
d="M160 446q29 -69 67 -114q13 -17 9 -35t-17.5 -30t-32 -13t-33.5 16q-26 31 -47.5 69t-38 79t-27 83t-14.5 81q-2 23 12 36.5t32.5 16t34.5 -7t18 -32.5q9 -80 37 -149zM355 506q51 64 126 110q20 14 39 8t29.5 -21t8.5 -34.5t-23 -32.5q-66 -44 -108 -97.5t-64.5 -115.5
t-29 -132t-3.5 -146q1 -23 -13 -34t-32 -11t-33.5 11t-16.5 32q-6 85 3.5 168t38 157.5t78.5 137.5z" />
    <glyph glyph-name="Z" unicode="Z" horiz-adv-x="530" 
d="M499 548q0 -15 -9 -27q-67 -101 -146.5 -209.5t-186.5 -220.5q31 1 68.5 3t77.5 3.5t81.5 2.5t81.5 1q20 0 31 -13.5t11.5 -30t-9.5 -30t-31 -13.5q-50 0 -102 -0.5t-102.5 -2t-98 -3.5t-86.5 -6q-16 -2 -30 7.5t-21.5 24.5t-6.5 32.5t15 32.5q54 55 103.5 111.5t93 112
t80.5 107.5t64 97q-28 2 -63.5 2t-73.5 -1.5t-76 -5.5t-69 -10q-20 -5 -32.5 6.5t-15.5 27t4 31t27 20.5q37 8 83 12.5t94.5 6.5t96.5 0.5t89 -5.5q19 -1 32 -10.5t20 -23t6 -29.5z" />
    <glyph glyph-name="bracketleft" unicode="[" horiz-adv-x="366" 
d="M229 630q-24 1 -51 -1q-2 -37 -3.5 -86.5t-2.5 -106t-1 -117.5t0.5 -119.5t2.5 -112t5 -96.5q22 -2 44 -0.5t48 4.5q21 3 33.5 -9.5t15 -29t-6.5 -32t-31 -18.5q-32 -4 -66.5 -5.5t-65.5 0.5q-29 2 -47 20t-20 45q-3 41 -5 96.5t-2.5 117.5t-0.5 127.5t1 128.5t2.5 120
t4.5 102q2 27 23 44.5t50 19.5q35 2 69.5 1t57.5 -3q22 -2 32 -17.5t9.5 -33t-12 -31t-30.5 -11.5q-29 3 -53 3z" />
    <glyph glyph-name="backslash" unicode="\" horiz-adv-x="308" 
d="M256 -20q-12 -15 -30 -18.5t-35 4t-23 30.5q-11 47 -26 123t-31.5 164t-34 178.5t-32.5 166.5q-5 24 7.5 39t30.5 18.5t35 -5.5t22 -34q15 -75 31.5 -160t32.5 -169t31.5 -162t28.5 -140q5 -21 -7 -35z" />
    <glyph glyph-name="bracketright" unicode="]" horiz-adv-x="366" 
d="M188 542q-1 50 -3 87q-27 2 -50.5 1.5t-52.5 -3.5q-20 -2 -31 11.5t-11.5 31t9 33t32.5 17.5t57 3t69 -1q29 -2 50 -19.5t23 -44.5q3 -44 4.5 -101.5t2.5 -120.5t1 -128.5t-0.5 -127.5t-2.5 -117.5t-5 -96.5q-2 -27 -20 -45t-47 -20q-31 -2 -65.5 -0.5t-66.5 5.5
q-23 3 -31.5 18.5t-6 32t15 29t33.5 9.5q26 -3 48 -4.5t44 0.5q3 43 5 96.5t2.5 112t0.5 119.5t-1 117.5t-3 105.5z" />
    <glyph glyph-name="asciicircum" unicode="^" horiz-adv-x="434" 
d="M378 591q-5 -17 -19 -27.5t-31.5 -12t-28.5 13.5q-8 10 -18.5 24t-22.5 29t-23 29t-18 24q-7 -11 -18 -26.5t-23 -31.5t-23 -31t-18 -24q-12 -15 -29 -14.5t-31 11t-19 27.5t7 34q21 29 48 62t55 65q9 11 23 16.5t29 5.5t29 -5.5t24 -15.5q28 -30 53.5 -58.5t46.5 -58.5
q13 -18 7 -36z" />
    <glyph glyph-name="underscore" unicode="_" horiz-adv-x="397" 
d="M125 -85q-33 -1 -60 -2q-23 -2 -34.5 12t-11.5 32t10.5 33t33.5 17q30 2 66 2.5t72.5 0.5t70.5 -0.5t61 -1.5q19 -1 29.5 -16.5t10.5 -33.5t-11 -32.5t-34 -12.5q-30 1 -64.5 2t-69.5 1t-69 -1z" />
    <glyph glyph-name="grave" unicode="`" horiz-adv-x="262" 
d="M207 579q-6 -19 -20.5 -29.5t-34 -7.5t-35.5 27q-15 22 -34 49t-33 50q-15 24 -6.5 46t27 33.5t41.5 8t38 -31.5q13 -23 28 -52.5t26 -53.5q9 -20 3 -39z" />
    <glyph glyph-name="a" unicode="a" horiz-adv-x="487" 
d="M350 262q-2 19 11.5 29.5t31 11.5t32.5 -8.5t15 -30.5q-2 -43 0.5 -99t14.5 -109q6 -21 -6 -34.5t-28.5 -17t-33 2.5t-19.5 24q-11 40 -14 74q-26 -35 -62.5 -61.5t-74.5 -37.5t-71 -7.5t-58 20.5t-40 47t-17 71q-2 62 25.5 120t73 99.5t103 61t114.5 6.5q18 -4 24 -19
t3 -31t-14.5 -27t-29.5 -7q-38 7 -74.5 -7t-65 -42t-46 -65.5t-17.5 -76.5q1 -35 17.5 -53.5t48.5 -12.5q16 3 38.5 16.5t45.5 35.5t42.5 53t30.5 69v5z" />
    <glyph glyph-name="b" unicode="b" horiz-adv-x="464" 
d="M200 335q-32 -6 -57 -20q-2 -50 0 -97t7 -88q2 -19 -11 -29.5t-29.5 -12t-31.5 6t-18 25.5q-7 49 -9 114.5t1.5 134.5t12.5 134.5t23 114.5q6 21 23.5 28t35 3t28.5 -19t4 -39q-12 -39 -19.5 -86.5t-12.5 -99.5q41 16 91 18t93.5 -14t73 -50t28.5 -90q-1 -39 -19 -83
t-51 -83.5t-80 -70.5t-105 -43q-20 -5 -33.5 5t-18 25t1.5 29.5t26 20.5q41 12 74.5 34.5t57 51t36 60t12.5 59.5q-1 29 -21.5 44.5t-50 19.5t-62.5 -3z" />
    <glyph glyph-name="c" unicode="c" horiz-adv-x="403" 
d="M189 398q45 25 89 35q22 6 37 -5t19.5 -26.5t-3.5 -31.5t-31 -21q-39 -10 -71 -30t-55 -45.5t-35.5 -55t-12.5 -59.5q0 -24 18.5 -42.5t47.5 -27.5t65.5 -8t74.5 16q19 9 34.5 1.5t22 -22t1.5 -31t-25 -24.5q-54 -23 -112 -24t-107 17t-81 54t-34 87q-2 52 20 98t57.5 83
t80.5 62z" />
    <glyph glyph-name="d" unicode="d" horiz-adv-x="495" 
d="M333 58q1 4 1 8q-32 -26 -77.5 -46.5t-99.5 -17.5q-35 2 -59 14.5t-39 31t-22 41t-7 45.5q0 43 16.5 95t46.5 97t72.5 75t94.5 30q23 0 45 -7t39 -17q-2 48 -6.5 95t-9.5 94q-3 20 10.5 31.5t31 13.5t32.5 -6t17 -27q8 -66 13.5 -138t6.5 -145.5t-3 -148t-16 -145.5
q-3 -19 -18.5 -25.5t-32 -3.5t-28.5 16t-8 33v7zM344 179q3 63 3 128q-27 22 -54.5 31t-53.5 0q-24 -7 -44.5 -30t-35.5 -52.5t-23 -61.5t-8 -56q0 -25 14.5 -40.5t41.5 -15.5q19 0 43.5 10.5t47.5 25.5t41 31t25 26z" />
    <glyph glyph-name="e" unicode="e" horiz-adv-x="457" 
d="M325 10q-41 -15 -96 -11q-46 2 -84 19t-65 46t-40 69t-9 89q4 41 19.5 78.5t42 66.5t63 46.5t81.5 19.5q56 3 94.5 -14t61 -43.5t31.5 -56.5t7 -53q-2 -21 -13.5 -40t-26.5 -26q-20 -10 -53 -16.5t-71 -10t-75 -5t-64 -1.5q6 -36 34.5 -60t76.5 -26q30 -1 57.5 6.5
t52.5 25.5q17 12 32 6t23 -20t6 -31.5t-20 -27.5q-23 -15 -65 -30zM143 288q-10 -19 -12 -44q25 0 57 1.5t61.5 4t52.5 6.5t30 9q5 4 5.5 18.5t-8.5 30t-30 27.5t-58 10q-18 -2 -37 -9t-34.5 -20.5t-26.5 -33.5z" />
    <glyph glyph-name="f" unicode="f" horiz-adv-x="455" 
d="M82 271q-20 -1 -30.5 12.5t-11.5 30t8 30.5t29 14h53q0 49 3 99q3 77 36.5 123.5t93.5 60.5q30 6 58 2t50.5 -17.5t38.5 -36.5t23 -55q5 -21 -6.5 -34.5t-27.5 -17.5t-31.5 3t-18.5 28q-6 29 -25.5 40t-41.5 6q-22 -7 -38.5 -32.5t-18.5 -83.5q-1 -20 -1 -40.5v-41.5
q30 2 58 4t51 5q19 2 30 -10t12.5 -27.5t-6 -29.5t-25.5 -17q-23 -4 -54 -6.5t-64 -4.5q2 -60 7 -119.5t12 -116.5q3 -18 -10.5 -28t-30.5 -11.5t-33 5.5t-18 25q-8 61 -13.5 121t-7.5 120h-50z" />
    <glyph glyph-name="g" unicode="g" horiz-adv-x="474" 
d="M342 121q-23 -30 -60 -57t-85 -34q-36 -5 -66.5 3t-53 27t-35 47t-12.5 62q0 63 30 117t78 89t108 47t119 -10q16 -6 19.5 -22t-2 -32t-18 -26.5t-28.5 -5.5q-34 13 -72 4.5t-69.5 -31t-52 -55.5t-20.5 -70q0 -29 15.5 -48t48.5 -14q36 5 76 34.5t70 73.5q-2 6 -2 9
q1 16 14 27t29 13t29.5 -5t16.5 -26q4 -30 7 -73t1 -90t-10.5 -94.5t-27.5 -86t-49.5 -64t-75.5 -28.5q-30 -2 -58 3.5t-51 19t-39.5 34t-22.5 49.5q-5 20 7 34.5t29.5 19.5t34 -1.5t21.5 -27.5q6 -29 26.5 -40.5t43.5 -9.5q22 1 39 18t28.5 45t17 65t4.5 79z" />
    <glyph glyph-name="h" unicode="h" horiz-adv-x="478" 
d="M223 305q-39 -30 -74 -87q-1 -46 -0.5 -90.5t1.5 -88.5q1 -19 -12.5 -29t-30.5 -10.5t-31.5 9t-15.5 29.5q-7 133 -3.5 281t17.5 287q2 20 17.5 28.5t33.5 7t31.5 -12.5t11.5 -30q-7 -63 -11 -128t-6 -132q33 43 73.5 68t79.5 25q41 0 66.5 -21t39.5 -55.5t18.5 -77
t4 -85.5t-4.5 -82t-7 -65q-2 -17 -17.5 -25t-33 -7t-31 11t-11.5 28q6 51 9.5 101.5t0.5 90.5t-13.5 65t-32.5 25q-30 0 -69 -30z" />
    <glyph glyph-name="i" unicode="i" horiz-adv-x="238" 
d="M138 402q16 -8 19 -27q4 -38 7 -81t3.5 -87t-1.5 -88.5t-7 -84.5q-2 -18 -17.5 -26.5t-32.5 -7.5t-30.5 12t-11.5 32q8 74 6.5 159t-11.5 162q-3 19 10.5 30.5t31.5 13t34 -6.5zM32 590q12 11 30 8q31 -8 66 -21t62 -25q17 -8 20.5 -24.5t-2.5 -32t-20 -25t-32 -1.5
q-21 11 -54 23t-59 20q-18 5 -24 20.5t-2.5 31t15.5 26.5z" />
    <glyph glyph-name="j" unicode="j" horiz-adv-x="284" 
d="M244 490q-6 -15 -20 -23.5t-34 0.5q-32 15 -66.5 25.5t-70.5 24.5q-18 6 -22.5 21t0.5 30.5t17.5 26t28.5 6.5q19 -5 41.5 -12t43.5 -14.5t40 -15.5t33 -15q12 -6 13.5 -22t-4.5 -32zM172 -61q-23 -28 -61 -37q-47 -8 -78.5 3.5t-57.5 39.5q-15 14 -14 31.5t10.5 30.5
t25 16.5t30.5 -11.5q17 -18 33 -26.5t30 -2.5q23 9 32 46.5t7.5 90.5t-11 115t-23.5 120q-5 20 8 33t31 16.5t35.5 -3.5t21.5 -26q8 -40 16 -88t11.5 -97.5t1.5 -97t-13.5 -87t-34.5 -66.5z" />
    <glyph glyph-name="k" unicode="k" horiz-adv-x="435" 
d="M142 196q1 -75 9 -153q2 -18 -10.5 -29.5t-29.5 -13.5t-32 6t-17 28q-7 65 -9.5 136t-1.5 144.5t5.5 147t11.5 143.5q2 19 17.5 27.5t33 7.5t30.5 -12t10 -31q-7 -73 -11.5 -145t-5.5 -145q92 75 190 124q17 8 32.5 -0.5t23.5 -23.5t5.5 -31.5t-21.5 -25.5
q-33 -17 -64.5 -34.5t-63.5 -39.5q35 -56 79 -103t77 -79q16 -14 14 -31.5t-14.5 -30t-30.5 -16t-33 11.5q-38 36 -83 88.5t-79 107.5z" />
    <glyph glyph-name="l" unicode="l" horiz-adv-x="210" 
d="M144 32q-2 -18 -17.5 -27t-33 -9t-31 10.5t-11.5 31.5q6 65 9 135t3 141.5t-3 142.5t-9 137q-3 20 10.5 31.5t31.5 13t34 -6.5t18 -27q15 -135 14 -283.5t-15 -289.5z" />
    <glyph glyph-name="m" unicode="m" horiz-adv-x="688" 
d="M315 15q-15 9 -13 24q5 58 7.5 105.5t2 81t-6 52.5t-15.5 20q-16 2 -38.5 -17t-44 -54t-38 -83.5t-20.5 -105.5q-2 -17 -16 -26.5t-31.5 -11t-32 6.5t-15.5 26q-3 42 -4 88t0 93.5t5 93.5t10 87q3 18 19.5 26t34.5 6t31.5 -13.5t9.5 -31.5q-3 -15 -6 -35.5t-6 -42
t-5 -41.5t-3 -33q6 31 22.5 61.5t39 54.5t49.5 38.5t55 13.5q23 -1 40.5 -10.5t29.5 -26t17.5 -39t3.5 -47.5q8 30 23.5 56t35 45t40.5 30t41 11q40 0 63.5 -21t35 -54.5t13 -75.5t-1.5 -83.5t-9.5 -78t-10.5 -60.5q-3 -17 -19 -25t-34 -7.5t-31.5 10t-11.5 28.5q4 41 11 88
t9 87.5t-3 67t-23 27.5q-10 0 -23 -13.5t-26 -36t-26 -52.5t-23.5 -61.5t-17.5 -63t-8 -58.5q-1 -15 -17.5 -22t-35 -6.5t-33.5 8.5z" />
    <glyph glyph-name="n" unicode="n" horiz-adv-x="503" 
d="M142 301q-4 -45 -4 -77q10 35 29.5 69.5t44.5 63t54 47t59 21.5q42 3 68.5 -13.5t41 -47t19 -71t4 -84.5t-5 -88t-8.5 -81q-2 -17 -17.5 -24.5t-33.5 -6t-31.5 11t-11.5 27.5q7 62 11 114t1.5 90t-13.5 59.5t-33 21.5q-14 0 -31.5 -14t-35.5 -37.5t-35.5 -54t-30.5 -64
t-20.5 -67.5t-6.5 -64q1 -15 -12 -23.5t-30 -10t-32 5t-17 21.5q-12 86 -14 182.5t11 184.5q2 18 17 27t31.5 8.5t29.5 -11t11 -31.5q-5 -39 -9 -84z" />
    <glyph glyph-name="o" unicode="o" horiz-adv-x="487" 
d="M351 166q9 25 11 51q1 27 -6 50.5t-21.5 41t-35 28t-45.5 10.5q-27 0 -49.5 -11t-39.5 -29.5t-27.5 -43.5t-12.5 -53q-2 -32 6.5 -56.5t24 -41.5t36.5 -26t45 -8q28 1 50.5 13t38.5 31.5t25 43.5zM174 412q40 16 86 15q47 0 85 -18t63.5 -48t38 -68.5t9.5 -78.5
q-3 -43 -20 -82t-45.5 -68t-68.5 -46.5t-89 -17.5q-42 0 -80.5 16t-66.5 44.5t-43.5 66.5t-11.5 83q4 47 23.5 87t49.5 69.5t70 45.5z" />
    <glyph glyph-name="p" unicode="p" horiz-adv-x="476" 
d="M149 -29q3 -61 8 -130q2 -18 -11 -28.5t-29.5 -11.5t-31.5 7.5t-17 27.5q-5 67 -8.5 128.5t-4 123.5t3 126.5t12.5 138.5q-1 3 -1 9q-2 7 3 13q-2 6 9 11q5 5 12 9t15 7q53 17 112.5 21.5t109 -9t82 -47.5t32.5 -94q0 -38 -16 -77.5t-45 -76t-69.5 -66t-89.5 -46.5
q-18 -6 -32.5 3.5t-20.5 24.5t-1 31t25 23q36 12 65 32.5t48.5 46t29.5 55.5t9 60q-1 27 -21 40t-48.5 17t-61 -0.5t-59.5 -12.5q-7 -63 -9.5 -121t-2 -116.5t2.5 -118.5z" />
    <glyph glyph-name="q" unicode="q" horiz-adv-x="482" 
d="M329 -45q4 55 6 109q-38 -32 -81 -48.5t-78 -16.5q-31 0 -57.5 9.5t-46 28t-31 44.5t-11.5 59q0 37 13 81.5t37.5 85t59 70.5t77.5 39q26 5 58 6t59 -10q7 9 20 13t25.5 1.5t22.5 -10.5t12 -23q9 -64 11.5 -133.5t0 -140.5t-7.5 -142.5t-9 -139.5q-1 -18 -15.5 -27
t-31 -8.5t-29.5 10t-11 29.5q4 58 7 114zM337 252q-1 38 -4 75q-9 6 -21.5 9t-26 3.5t-26.5 -0.5t-23 -4q-26 -6 -47 -26t-35.5 -45.5t-22.5 -53.5t-8 -52q0 -29 14.5 -51.5t48.5 -22.5q15 0 35.5 6t42 17.5t41 28t33.5 38.5q0 40 -1 78z" />
    <glyph glyph-name="r" unicode="r" horiz-adv-x="426" 
d="M140 241q-1 -22 -1 -38q12 44 38 82t58.5 66t68 44.5t68.5 18.5q19 1 30 -11.5t13 -29t-5.5 -31.5t-25.5 -18q-35 -5 -74 -30t-71.5 -64t-53 -87.5t-18.5 -99.5q2 -21 -13 -32.5t-33.5 -13.5t-35.5 6.5t-20 28.5q-12 89 -14.5 181.5t8.5 180.5q2 18 18.5 26.5t34 7
t31 -13t9.5 -32.5q-3 -21 -5.5 -45.5t-4 -48.5t-2.5 -47z" />
    <glyph glyph-name="s" unicode="s" horiz-adv-x="428" 
d="M386 72q-13 -23 -35.5 -39t-52 -25t-62.5 -10q-58 -2 -109.5 15t-90.5 48q-17 13 -15.5 31t12.5 31.5t27.5 17.5t28.5 -9q11 -12 29 -22t38 -16.5t40.5 -10t37.5 -2.5q26 2 48 11t22 35q0 15 -9 25.5t-23.5 17t-32.5 10.5t-35 5q-44 3 -76 15.5t-51.5 31t-27 41
t-2.5 46.5q7 36 35.5 62.5t67 44.5t81.5 27.5t80 11.5q21 1 32 -12.5t12.5 -30.5t-7.5 -32t-30 -16q-30 -2 -59 -6t-52 -12t-39.5 -20t-21.5 -28q-2 -6 0.5 -12.5t11.5 -12.5t25.5 -10.5t42.5 -6.5q34 -3 67 -11.5t58 -25.5t39.5 -42.5t11.5 -61.5q-2 -30 -16 -53z" />
    <glyph glyph-name="t" unicode="t" horiz-adv-x="441" 
d="M71 304q-19 0 -29 13.5t-11 30t8 30.5t29 14h62q5 50 13 95.5t17 80.5q5 21 22.5 29t35.5 5t30 -16t7 -34q-8 -35 -15.5 -75.5t-13.5 -82.5q33 1 65.5 3t61.5 7q18 3 29 -9t13 -27.5t-5.5 -30.5t-25.5 -18q-26 -5 -65.5 -7.5t-82.5 -4.5q-3 -32 -4 -59.5t-1 -49.5
q0 -38 4.5 -70.5t16.5 -39.5q6 -3 19 1.5t29.5 12.5t34 18t30.5 20q18 13 34.5 8t26 -19t9 -32.5t-16.5 -33.5q-16 -12 -42 -26t-55.5 -23.5t-58.5 -13t-50 4.5q-41 14 -58.5 61t-17.5 122q0 23 1.5 53t3.5 63h-50z" />
    <glyph glyph-name="u" unicode="u" horiz-adv-x="498" 
d="M430 412q14 -10 11 -28q-3 -37 -5.5 -76.5t-2.5 -80t3 -82t11 -81.5q4 -20 -7.5 -32t-28 -15.5t-32 3.5t-18.5 27q-2 16 -5 42.5t-3 48.5q-7 -22 -21 -46t-33.5 -44t-45 -34t-56.5 -15q-61 -2 -94 30t-46 84.5t-9.5 118t16.5 130.5q4 19 20.5 26.5t34.5 5t30.5 -15.5
t8.5 -34q-11 -53 -16.5 -100.5t-2 -84.5t17.5 -58.5t43 -21.5q20 0 38.5 15.5t34 40.5t28.5 57.5t22.5 67t15 68.5t7.5 63q1 20 17.5 28t34.5 6t32 -13z" />
    <glyph glyph-name="v" unicode="v" horiz-adv-x="448" 
d="M294 74q-21 -33 -42.5 -54t-39.5 -22q-20 -1 -42 16t-42.5 46t-39.5 67t-33 78t-23.5 79.5t-10.5 72.5q-1 20 13.5 31.5t32.5 13.5t33.5 -6t17.5 -27q4 -48 16 -96t26.5 -87t28.5 -63t20 -24t21.5 29.5t34 73t36 94.5t26.5 93q5 22 23.5 30t37 4t31.5 -19t6 -39
q-6 -23 -19 -58.5t-30.5 -76t-38.5 -81.5t-43 -75z" />
    <glyph glyph-name="w" unicode="w" horiz-adv-x="637" 
d="M118 373q15 -12 13 -34q-2 -46 1.5 -89.5t10.5 -77.5t16 -55t17 -21q10 0 22 22t22.5 56.5t17.5 77.5t9 84q1 24 19.5 34.5t40 9.5t40 -13.5t18.5 -34.5q0 -43 9.5 -85t22.5 -75.5t27 -54t25 -20.5q10 0 20.5 24t18.5 64t12.5 92t2.5 107q-1 19 14 29.5t33.5 11t34.5 -9
t16 -29.5q1 -38 -1.5 -82t-9 -87t-18 -83t-29 -71t-41 -49.5t-53.5 -19.5q-27 -1 -52 20.5t-44 53t-32 68.5t-16 68q-4 -30 -14 -66t-26 -67t-39 -52t-53 -21q-37 0 -63.5 30.5t-44 79t-24.5 110.5t-5 125q1 23 16.5 33.5t33.5 10t32 -13.5z" />
    <glyph glyph-name="x" unicode="x" horiz-adv-x="427" 
d="M322 288q-37 -37 -73 -82q35 -38 71.5 -70t70.5 -55q14 -9 12 -26t-12.5 -32t-26.5 -22.5t-31 3.5q-28 20 -65 53t-76 75q-22 -31 -41.5 -61t-35.5 -58q-9 -15 -25.5 -16t-31 7.5t-22.5 23t1 29.5q19 33 42.5 70t51.5 74q-35 42 -63 85t-45 82q-6 17 4 32.5t26.5 24.5
t33.5 7.5t24 -19.5q13 -34 33 -68.5t46 -67.5q36 45 72 84t66 65q14 13 32 6.5t30 -21.5t14.5 -33.5t-13.5 -29.5q-32 -23 -69 -60z" />
    <glyph glyph-name="y" unicode="y" horiz-adv-x="507" 
d="M348 102q7 43 11 82q-11 -38 -30 -73.5t-51 -67.5q-27 -27 -60 -36t-64 -2.5t-56.5 27.5t-37.5 54q-10 24 -13 56.5t-0.5 70t8 77.5t12.5 79q3 20 20 28t34.5 5.5t30 -15t8.5 -33.5q-14 -73 -19 -135.5t8 -101.5q11 -32 36 -29.5t52 30.5q20 21 38 50.5t32.5 64t25 72
t15.5 74.5q3 21 20.5 30.5t37.5 8t35.5 -13.5t14.5 -33q-1 -62 -7 -132.5t-15.5 -142t-21.5 -139.5t-25 -125q-4 -20 -21 -26.5t-34 -3t-29.5 17t-7.5 34.5q9 36 18.5 77.5t18.5 84.5t16 86z" />
    <glyph glyph-name="z" unicode="z" horiz-adv-x="430" 
d="M26 57q2 16 17 30q31 33 64.5 66.5t64 66t57 63t44.5 56.5q-18 2 -41.5 1t-48 -4t-49.5 -9t-47 -13q-18 -6 -32.5 3t-19.5 24t0 30.5t26 23.5q28 10 62 17t70 10t72 3t67 -3q17 -2 29 -11t18 -22t6.5 -26.5t-5.5 -24.5q-13 -24 -40.5 -57.5t-60.5 -70t-67.5 -72
t-61.5 -62.5q24 0 52.5 1.5t57 4l57 5t52.5 5.5q16 2 25 -10t10 -27.5t-6.5 -29.5t-23.5 -16q-23 -3 -55.5 -5t-70.5 -3.5t-80 -2.5t-83 -1q-18 0 -32 9t-21 22.5t-6 28.5z" />
    <glyph glyph-name="braceleft" unicode="{" horiz-adv-x="424" 
d="M234 629q0 -14 -0.5 -42.5t-1 -62t-1 -66.5t-0.5 -54q0 -31 -17.5 -52t-40.5 -26q23 -9 41.5 -26t18.5 -48q0 -95 1.5 -155t2.5 -106q25 -2 47 -1t43 3q20 1 30 -12t11 -30t-8 -31.5t-28 -15.5q-31 -2 -62 -2.5t-63 -1.5q-26 -1 -40.5 10t-16.5 33q-4 55 -6.5 126
t-2.5 148q0 28 -12.5 43t-42.5 15q-28 0 -39.5 14.5t-11.5 43.5t10.5 42.5t36.5 13.5q29 0 44.5 12.5t15.5 47.5q0 60 1 121t5 109q2 22 17.5 32.5t41.5 10.5h30h37t37 -0.5t30 -1.5q22 -1 31.5 -15.5t8.5 -31t-11.5 -30t-28.5 -13.5z" />
    <glyph glyph-name="bar" unicode="|" horiz-adv-x="292" 
d="M192 -21q-1 -25 -16 -37t-32.5 -11.5t-32 13.5t-14.5 39q0 165 -0.5 328t1.5 328q0 24 15.5 36.5t34 12.5t33.5 -12.5t15 -37.5q-1 -79 -1 -162.5v-167.5t-0.5 -167.5t-2.5 -161.5z" />
    <glyph glyph-name="braceright" unicode="}" horiz-adv-x="424" 
d="M209 300q19 17 42 26q-23 5 -40.5 26t-17.5 52q0 21 -0.5 54t-1 66.5t-1 62t-0.5 42.5q-27 1 -53.5 1t-53.5 -2q-18 -1 -28.5 12.5t-11.5 30.5t8.5 31.5t31.5 15.5q12 1 30 1.5t37 1t37 1t30 0.5q26 0 41.5 -10.5t17.5 -32.5q4 -48 5 -109t1 -121q0 -35 15.5 -47.5
t44.5 -12.5q26 0 36.5 -13.5t10.5 -42.5t-11.5 -43.5t-39.5 -14.5q-30 0 -42.5 -15t-12.5 -43q0 -77 -2.5 -148t-6.5 -126q-2 -22 -16.5 -33t-40.5 -10q-32 1 -63 1.5t-62 2.5q-19 1 -28 15.5t-8 31.5t11 30t30 12q21 -2 43 -3t47 1q1 46 2.5 106t1.5 155q0 31 18 48z" />
    <glyph glyph-name="asciitilde" unicode="~" horiz-adv-x="516" 
d="M373 335q12 10 25 20q19 17 38 13.5t31 -17.5t13.5 -33.5t-14.5 -35.5q-27 -26 -53.5 -39t-59.5 -18t-57 5.5t-43 24.5t-35 26.5t-33 12.5q-23 -1 -41 -17.5t-29 -28.5q-18 -18 -37.5 -16t-32.5 16t-14.5 34.5t16.5 38.5q10 10 24 22t30 22.5t34 18t36 9.5
q33 3 57.5 -8.5t44 -26t36 -26t32.5 -9.5q21 3 32 12z" />
    <glyph glyph-name="exclamdown" unicode="&#xa1;" horiz-adv-x="960" 
d="M420 -132q4 26 7 58.5t4 55.5l18 481h66l18 -481q0 -24 2.5 -55.5t8.5 -58.5h-124zM546 646q0 -30 -19 -49t-46 -19t-46 19t-19 49t19 50t47 20q27 0 45.5 -20t18.5 -50z" />
    <glyph glyph-name="currency" unicode="&#xa4;" horiz-adv-x="960" 
d="M579 56q47 21 82 57t55 84.5t20 102.5t-20 102t-55 84t-82 57.5t-104 21.5t-104.5 -21.5t-82.5 -57.5q-34 -36 -53.5 -84t-19.5 -102t19.5 -102.5t53.5 -84.5q35 -36 82.5 -57t104.5 -21t104 21zM847 -25l-47 -47l-116 115q-42 -36 -95.5 -55t-113.5 -19t-114.5 19.5
t-96.5 55.5l-116 -116l-46 47l116 116q-35 42 -54.5 95.5t-19.5 113.5t19.5 113.5t55.5 96.5l-117 118l46 47l118 -119q42 35 95.5 54.5t113.5 19.5q58 0 112 -19.5t96 -53.5l117 118l47 -47l-119 -115q36 -43 56.5 -98t20.5 -115t-19.5 -113.5t-54.5 -95.5z" />
    <glyph glyph-name="section" unicode="&#xa7;" horiz-adv-x="480" 
d="M184 -17q-1 -3 -1 -10q0 -18 21 -33.5t55 -15.5q38 0 62.5 19.5t24.5 43.5t-24.5 48.5t-81.5 67.5q-96 70 -135 115q-40 46 -40 98q0 26 9 46.5t24.5 35t35.5 23t41 11.5q-48 42 -73.5 81.5t-25.5 76.5q0 30 12 55.5t34 45.5q21 19 50 30t62 11q34 0 64 -11.5t53 -30.5
t36.5 -45t13.5 -55q0 -24 -15 -41.5t-36 -17.5q-24 0 -38 17t-14 42q0 11 4 20q2 5 3.5 10t1.5 11q0 16 -21.5 32t-53.5 16q-42 0 -62.5 -19.5t-20.5 -49.5q0 -29 27 -63q26 -32 104 -93q38 -31 64 -55t42 -45q30 -40 30 -82q0 -51 -31 -82t-74 -36q24 -19 45 -36.5
t36.5 -36t24.5 -38.5t9 -44q0 -54 -46 -88t-110 -34q-36 0 -69.5 10.5t-59.5 28.5q-25 18 -40.5 42.5t-15.5 53.5q0 24 15.5 40.5t39.5 16.5q21 0 35.5 -16.5t14.5 -37.5q0 -6 -1.5 -11.5t-2.5 -10.5zM206 387q-30 0 -49 -17t-19 -40t16.5 -47t53.5 -52q27 -21 43 -28.5
t36 -7.5q22 0 35.5 13.5t13.5 38.5q0 18 -7.5 33.5t-24.5 36.5q-9 10 -22 22t-26 23q-13 10 -24.5 17.5t-16.5 7.5h-9z" />
    <glyph glyph-name="dieresis" unicode="&#xa8;" horiz-adv-x="960" 
d="M383 730q0 -30 -19.5 -49.5t-48.5 -19.5q-31 0 -50.5 19.5t-19.5 49.5t19.5 49.5t49.5 19.5t49.5 -19.5t19.5 -49.5zM705 730q0 -30 -19.5 -49.5t-48.5 -19.5q-31 0 -50.5 19.5t-19.5 49.5t19.5 49.5t49.5 19.5t49.5 -19.5t19.5 -49.5z" />
    <glyph glyph-name="ordfeminine" unicode="&#xaa;" horiz-adv-x="960" 
d="M598 112q-7 13 -11 29.5t-5 31.5q-27 -33 -73.5 -55t-100.5 -22q-65 0 -109 40q-44 41 -44 104q0 57 27.5 101t81.5 60q14 5 30 9t32 7l62 12q39 6 65.5 18.5t26.5 42.5q0 33 -27 63q-25 31 -83 31q-54 0 -83.5 -30.5t-29.5 -84.5h-83v7q0 43 15.5 77.5t41.5 58.5
q27 24 62 37.5t77 13.5q94 0 144 -53.5t50 -147.5v-257q0 -21 4.5 -46.5t13.5 -46.5h-84zM738 -70h-516v75h516v-75zM582 377q-11 -8 -27.5 -14t-31.5 -9l-60 -12q-15 -3 -29.5 -6.5t-27.5 -6.5q-27 -8 -44 -29.5t-17 -47.5q0 -34 19 -52.5t56 -18.5q26 0 54.5 11t52.5 29
t39.5 41t15.5 46v69z" />
    <glyph glyph-name="uni00AD" unicode="&#xad;" horiz-adv-x="960" 
d="M661 163h-372v91h372v-91z" />
    <glyph glyph-name="registered" unicode="&#xae;" horiz-adv-x="960" 
d="M596 65q-7 21 -10.5 36t-4.5 45q-3 38 -6.5 62.5t-11.5 39.5q-8 14 -22 19.5t-37 5.5h-122v-208h-62v474h209q54 0 85.5 -35.5t31.5 -95.5q0 -77 -55 -109q21 -13 30.5 -32.5t12.5 -55.5q1 -22 2 -41t4 -37q2 -18 7 -35t13 -33h-64zM519 331q33 0 52.5 21.5t19.5 57.5
q0 32 -19.5 51.5t-51.5 19.5h-138v-150h137zM318 -68q-72 31 -126 86q-55 54 -86 126.5t-31 156.5q0 82 31 155t86 127q54 55 126.5 86.5t156.5 31.5q82 0 155 -31.5t127 -85.5q55 -54 86.5 -126.5t31.5 -156.5t-31.5 -156.5t-86.5 -126.5q-54 -55 -127 -86t-155 -31
q-84 0 -157 31zM719 56q48 48 75 110.5t27 134.5t-27 134t-75 110t-110 75t-134 27t-134.5 -27t-110.5 -75t-74.5 -110t-26.5 -134t26.5 -134.5t74.5 -110.5t110.5 -74.5t134.5 -26.5t134 26.5t110 74.5z" />
    <glyph glyph-name="degree" unicode="&#xb0;" horiz-adv-x="480" 
d="M343 615q-9 -21 -24.5 -36.5t-36.5 -24.5t-45 -9q-25 0 -46.5 9t-37 24.5t-24 36.5t-8.5 45t8.5 45t24 36.5t37 24.5t46.5 9q24 0 45 -9t36.5 -24.5t24.5 -36.5t9 -45t-9 -45zM237 598q24 0 41 18.5t17 43.5q0 24 -17 42.5t-41 18.5q-26 0 -42.5 -18.5t-16.5 -42.5
q0 -25 16.5 -43.5t42.5 -18.5z" />
    <glyph glyph-name="plusminus" unicode="&#xb1;" horiz-adv-x="960" 
d="M755 341h-235v-194h-91v194h-235v81h235v198h91v-198h235v-81zM755 -14h-561v80h561v-80z" />
    <glyph glyph-name="uni00B2" unicode="&#xb2;" horiz-adv-x="480" 
d="M241 494h-205q0 33 16 62t59 57l46 30q15 10 25 24t10 30q0 21 -13 33t-36 12q-27 0 -40 -16.5t-13 -39.5h-45q0 33 24 65q24 31 74 31q48 0 72 -26.5t24 -60.5q0 -27 -17 -48.5t-41 -35.5q-29 -18 -56 -37.5t-34 -39.5h150v-40z" />
    <glyph glyph-name="uni00B3" unicode="&#xb3;" horiz-adv-x="480" 
d="M84 583q0 -21 13 -38.5t46 -17.5q25 0 40 16t15 37t-16 32t-42 11h-22v40q36 0 54 9.5t18 33.5q0 15 -13 25.5t-36 10.5q-24 0 -37.5 -13t-13.5 -31v-4h-45q0 40 27.5 64t69.5 24t68.5 -21t26.5 -55q0 -23 -11 -38t-24 -23q19 -9 31.5 -26t12.5 -41q0 -38 -28.5 -64.5
t-74.5 -26.5q-48 0 -76.5 25.5t-28.5 65.5v5h46z" />
    <glyph glyph-name="acute" unicode="&#xb4;" horiz-adv-x="480" 
d="M380 756q-3 -16 -17 -28q-16 -14 -38 -27.5t-51 -27.5t-57 -24.5t-57 -18.5q-3 -1 -6 1.5t0 5.5q15 18 35 39t41 41q20 20 40 37.5t37 31.5q15 12 34 12.5t31 -11.5q12 -15 8 -31z" />
    <glyph glyph-name="paragraph" unicode="&#xb6;" horiz-adv-x="960" 
d="M575 -149h-73q0 57 -0.5 114.5t-0.5 115.5v231h-53q-57 0 -103.5 13t-81.5 40q-35 26 -54.5 65t-19.5 90q0 54 21 93t59 65t89.5 39t111.5 13h105v-879zM760 -149h-73v879h73v-879zM501 384v277h-40q-93 0 -144.5 -35t-51.5 -104t53 -104q52 -34 131 -34h52z" />
    <glyph glyph-name="periodcentered" unicode="&#xb7;" horiz-adv-x="480" 
d="M316 324q0 -33 -20.5 -53t-53.5 -20q-32 0 -51.5 20.5t-19.5 52.5q0 33 20 53t54 20q30 0 50.5 -21t20.5 -52z" />
    <glyph glyph-name="cedilla" unicode="&#xb8;" horiz-adv-x="480" 
d="M291 -27q16 -9 26.5 -27.5t10.5 -39.5q0 -43 -36 -71q-35 -29 -83 -29q-15 0 -33.5 3.5t-35.5 12.5l11 34q24 -6 46 -6q43 0 43 38q0 18 -14.5 29.5t-50.5 11.5l57 122h95z" />
    <glyph glyph-name="uni00B9" unicode="&#xb9;" horiz-adv-x="480" 
d="M173 490h-49v211h-60v32q25 0 46 9t21 39h42v-291z" />
    <glyph glyph-name="ordmasculine" unicode="&#xba;" horiz-adv-x="960" 
d="M638 181q-27 -39 -67 -61.5t-91 -22.5t-91 22t-68 61q-28 38 -42 89t-14 111q0 58 14 109.5t42 90.5q27 38 67 61t92 23q51 0 91 -22.5t67 -61.5q27 -38 41.5 -89.5t14.5 -109.5t-14.5 -109.5t-41.5 -90.5zM746 -71h-520v79h520v-79zM531 195q24 15 41 42q36 56 36 143
t-36 144q-34 58 -92 58q-57 0 -93 -58q-35 -58 -35 -144q0 -85 35 -143q34 -57 93 -57q28 0 51 15z" />
    <glyph glyph-name="onequarter" unicode="&#xbc;" horiz-adv-x="960" 
d="M300 329h-68v290h-92v57q21 0 40 3.5t33 11.5t22.5 22.5t8.5 35.5h56v-420zM150 -145l-54 40l669 816l53 -38zM780 -162h-68v70h-202v65l205 287h65v-292h61v-60h-61v-70zM712 -34v183l-129 -183h129z" />
    <glyph glyph-name="onehalf" unicode="&#xbd;" horiz-adv-x="960" 
d="M145 -145l-54 40l669 816l54 -38zM840 -169h-303q0 51 24 95t67 73q10 7 21.5 14t22.5 14l22 14l20 13q21 15 37.5 34.5t17.5 48.5q0 30 -19 50.5t-56 20.5q-43 0 -61.5 -25.5t-17.5 -59.5h-70q-1 25 8.5 51t28.5 46q18 20 46.5 33t66.5 13q71 0 107 -40q37 -38 37 -90
q0 -26 -7.5 -45.5t-19.5 -35.5t-27 -27.5t-30 -20.5q-19 -12 -45.5 -28.5t-47.5 -31.5q-17 -13 -28.5 -29t-14.5 -30h221v-57zM300 329h-68v290h-92v57q21 0 40 3.5t33 11.5t22.5 22.5t8.5 35.5h56v-420z" />
    <glyph glyph-name="threequarters" unicode="&#xbe;" horiz-adv-x="960" 
d="M778 -162h-68v70h-202v65l205 287h65v-292h61v-60h-61v-70zM174 -145l-54 40l670 816l53 -38zM172 456q0 -36 21.5 -58t63.5 -22q38 0 61 20t23 52q0 23 -15.5 40.5t-39.5 23.5q-8 1 -15.5 2t-16.5 1h-31v59q14 0 33 1t32 7q18 7 29 22.5t11 36.5q0 24 -17.5 43t-53.5 19
q-39 0 -56.5 -22.5t-17.5 -49.5h-69q0 58 38.5 93t104.5 35q61 0 101 -35q40 -34 40 -83q0 -20 -6 -35.5t-14 -27t-18 -20t-17 -12.5q28 -12 48 -39t20 -60q0 -57 -43 -94t-110 -37q-69 0 -114 39q-44 41 -41 101h69zM710 -34v183l-129 -183h129z" />
    <glyph glyph-name="questiondown" unicode="&#xbf;" horiz-adv-x="960" 
d="M687 -52q-38 -35 -90.5 -57t-104.5 -22q-87 0 -143 53q-55 52 -55 136q0 57 31 107t76 86q35 29 56.5 62.5t21.5 75.5q0 17 -1 38.5t-2 37.5h86q3 -20 4.5 -43.5t1.5 -42.5q0 -46 -24.5 -86.5t-62.5 -72.5q-17 -15 -33 -32t-29 -36.5t-20.5 -41t-7.5 -43.5
q0 -54 30.5 -86t81.5 -32q37 0 76 17t67 41zM576 651q0 -30 -20 -49.5t-48 -19.5q-29 0 -48.5 19.5t-19.5 49.5t19.5 49.5t48.5 19.5q28 0 48 -19.5t20 -49.5z" />
    <glyph glyph-name="AE" unicode="&#xc6;" horiz-adv-x="960" 
d="M806 -67h-351v247h-165l-114 -247h-87l344 742h372v-85h-268v-225h238v-85h-238v-264h269v-83zM455 265v285l-130 -285h130z" />
    <glyph glyph-name="Eth" unicode="&#xd0;" horiz-adv-x="960" 
d="M269 -67v259h-134v70h134v413h224q67 0 121.5 -28.5t92.5 -79.5q39 -51 59.5 -118t20.5 -145q0 -79 -20.5 -146.5t-59.5 -118.5q-38 -51 -92.5 -78.5t-121.5 -27.5h-224zM482 13q52 0 92 23t67 63t41.5 92.5t14.5 112.5q0 61 -14.5 114t-41.5 92t-67 61.5t-92 22.5h-130
v-332h215v-70h-215v-179h130z" />
    <glyph glyph-name="multiply" unicode="&#xd7;" horiz-adv-x="960" 
d="M687 27l-212 212l-208 -209l-64 59l214 208l-205 204l63 60l200 -204l200 202l60 -58l-199 -202l210 -210z" />
    <glyph glyph-name="Oslash" unicode="&#xd8;" horiz-adv-x="960" 
d="M197 -87l-53 51l95 112q-60 102 -60 231q0 81 22 149t62 117t95.5 76.5t122.5 27.5q60 0 106.5 -21.5t85.5 -60.5l92 111l55 -49l-102 -123q28 -48 43 -99.5t15 -117.5q0 -87 -21.5 -158t-60.5 -122t-93 -79t-118 -28q-121 0 -199 86zM620 532q-26 31 -60.5 48t-76.5 17
q-104 0 -163 -80q-58 -79 -58 -217q0 -48 7 -85.5t25 -70.5zM336 77q22 -30 60.5 -48.5t78.5 -18.5q46 0 86 21t68 60q29 38 45.5 92.5t16.5 120.5q0 48 -8 88t-23 72z" />
    <glyph glyph-name="Thorn" unicode="&#xde;" horiz-adv-x="960" 
d="M354 -72h-83v751h83v-142h137q46 0 89 -13.5t76 -42.5t53 -74t20 -109t-19.5 -109.5t-51.5 -74.5q-33 -29 -76 -42t-91 -13h-137v-131zM487 140q68 0 109 34q43 34 43 124q0 43 -11 73.5t-31.5 50t-48.5 28t-61 8.5h-133v-318h133z" />
    <glyph glyph-name="germandbls" unicode="&#xdf;" horiz-adv-x="960" 
d="M336 -173h-88v644q0 97 60 157q28 29 66.5 45.5t83.5 16.5q43 0 79.5 -14t63.5 -39q26 -24 41.5 -57t15.5 -71q0 -51 -25 -94t-79 -62q39 -12 67 -33t46 -49.5t26.5 -63.5t8.5 -74q0 -53 -16.5 -93.5t-46 -68.5t-71 -42.5t-90.5 -14.5q-36 0 -74 6.5t-68 21.5v-115z
M336 22q23 -15 55 -20.5t62 -5.5q72 0 116.5 36t44.5 114t-44 120.5t-122 40.5v84q58 3 89.5 31t31.5 85q0 46 -29.5 76.5t-77.5 30.5q-57 0 -91.5 -37t-34.5 -95v-460z" />
    <glyph glyph-name="ae" unicode="&#xe6;" horiz-adv-x="960" 
d="M803 71q-14 -69 -55.5 -114t-114.5 -45q-51 0 -92.5 27t-66.5 81q-23 -50 -71 -78q-50 -31 -102 -32q-25 -2 -50.5 4t-47.5 20t-38.5 37t-21.5 58q-5 30 -1.5 58t14.5 52t29.5 42.5t42.5 29.5q39 17 98 22q29 2 55 3.5t49 1.5v68q0 21 -8 38.5t-22.5 30.5t-33.5 20t-41 7
q-45 0 -73 -27.5t-28 -75.5h-75q0 77 50 127q49 49 128 49q58 0 99 -25.5t62 -68.5q25 45 65 69t79 24q85 0 131 -66t46 -192v-52h-289q0 -34 7 -65.5t21 -55.5t34.5 -38.5t48.5 -14.5q35 0 58.5 22.5t28.5 58.5h85zM432 164h-40h-21.5t-21.5 -1q-22 -2 -42 -5.5t-35 -10.5
q-30 -15 -42 -42.5t-4 -62.5q3 -17 13.5 -27t24.5 -15q27 -10 58 -5q15 1 33 7.5t34 19.5q17 12 28 32.5t13 51.5zM726 239q3 69 -21.5 113t-72.5 44q-49 0 -78 -47t-32 -110h204z" />
    <glyph glyph-name="eth" unicode="&#xf0;" horiz-adv-x="960" 
d="M626 609l-79 -58q63 -68 104.5 -157.5t41.5 -208.5q0 -128 -58 -194.5t-161 -66.5q-101 0 -163 60q-29 28 -45 68.5t-16 89.5q0 51 16 92t46 71q29 30 69.5 47t89.5 17q27 0 54.5 -8.5t47.5 -23.5q-14 45 -41.5 89t-54.5 73l-111 -75l-46 53l106 72q-21 18 -49.5 37
t-55.5 34l21 34l22 34q36 -16 70 -37.5t67 -46.5l80 59zM471 1q63 0 95.5 42.5t32.5 112.5q0 60 -35.5 96.5t-95.5 36.5q-63 0 -97.5 -41t-34.5 -107q0 -63 36 -101.5t99 -38.5z" />
    <glyph glyph-name="divide" unicode="&#xf7;" horiz-adv-x="960" 
d="M549 568q0 -31 -22 -52t-52 -21t-53 20t-23 53q0 32 21 54t53 22q31 0 53.5 -22.5t22.5 -53.5zM799 262h-649v78h649v-78zM549 33q0 -31 -22 -52t-52 -21t-53 20t-23 53q0 32 21 54t53 22q31 0 53.5 -22.5t22.5 -53.5z" />
    <glyph glyph-name="oslash" unicode="&#xf8;" horiz-adv-x="960" 
d="M282 -142l-63 46l71 96q-37 42 -55 95t-18 110q0 60 19 111t54 89t84.5 60t110.5 22q34 0 65 -8.5t56 -21.5l64 92l61 -46l-63 -91q39 -38 58.5 -93t19.5 -112q0 -69 -21.5 -123t-57.5 -92q-37 -39 -85 -59t-102 -20q-39 0 -69.5 8t-62.5 30zM390 12q18 -14 37 -18.5
t47 -4.5q42 0 77.5 16t61.5 45q26 28 41 67t15 84q0 19 -3.5 40t-9.5 40.5t-14.5 35.5t-19.5 27zM563 395q-36 19 -84 19q-40 0 -73 -16t-57 -44t-37.5 -67.5t-13.5 -85.5q0 -42 11 -75t29 -57z" />
    <glyph glyph-name="thorn" unicode="&#xfe;" horiz-adv-x="960" 
d="M360 -90h-91v771h91v-172q81 19 151 12.5t127 -41.5q48 -30 72 -79.5t26 -112.5q1 -73 -29 -130t-82 -90q-51 -32 -119 -41t-146 8v-125zM360 113q57 -10 107.5 -7.5t89.5 23.5q38 20 62.5 59.5t21.5 103.5q-3 54 -28 87t-64 48q-42 15 -91.5 13t-97.5 -17v-310z" />
    <glyph glyph-name="dcroat" unicode="&#x111;" horiz-adv-x="960" 
d="M674 -80h-90v43q-23 -21 -43.5 -34t-40 -19.5t-38 -8.5t-36.5 -2q-51 0 -93 18t-72 52q-31 34 -47.5 80.5t-16.5 106.5q0 57 16.5 104t47.5 81q30 34 72 52.5t93 18.5q21 0 41 -2t39.5 -9t39 -20t40.5 -35v131h-246v69h246v138h88v-138h78v-69h-78v-557zM439 -23
q73 0 111 51q38 53 38 127q0 73 -38 125q-37 52 -111 52q-73 0 -110 -52q-37 -50 -37 -125t37 -127q37 -51 110 -51z" />
    <glyph glyph-name="Hbar" unicode="&#x126;" horiz-adv-x="960" 
d="M729 -68h-88v347h-324v-347h-86v547h-87v76h87v122h86v-122h324v122h88v-122h85v-76h-85v-547zM641 361v118h-324v-118h324z" />
    <glyph glyph-name="hbar" unicode="&#x127;" horiz-adv-x="960" 
d="M705 -80h-86v255q0 72 -26.5 112t-80.5 40q-34 0 -58.5 -15.5t-40.5 -40.5q-15 -24 -22.5 -55.5t-7.5 -62.5v-233h-88v557h-102v70h102v138h88v-138h216v-70h-216v-140q30 42 69.5 57t84.5 15q69 0 110 -38q42 -39 49 -84q4 -16 5.5 -36t2.5 -58q1 -20 1 -46v-58v-169z
" />
    <glyph glyph-name="dotlessi" unicode="&#x131;" horiz-adv-x="960" 
d="M525 -86h-92v565h92v-565z" />
    <glyph glyph-name="IJ" unicode="&#x132;" horiz-adv-x="960" 
d="M310 -63h-87v738h87v-738zM738 125q0 -51 -15 -89t-40 -63t-58.5 -37.5t-69.5 -12.5q-37 0 -70 12t-58 37t-39.5 62.5t-14.5 88.5v71h87v-64q0 -34 8.5 -56.5t22.5 -35.5t31 -18t33 -5t33 5t31 18t23 35.5t9 56.5v545h87v-550z" />
    <glyph glyph-name="ij" unicode="&#x133;" horiz-adv-x="960" 
d="M683 582h-94v99h94v-99zM374 582h-95v99h95v-99zM681 -83q0 -39 -8 -63.5t-22 -38.5q-21 -22 -50 -29q-16 -4 -38.5 -5t-55.5 -1v82q8 0 16.5 0.5t16.5 1.5q8 2 15 4.5t12 7.5q15 11 19 28q2 8 2.5 17t0.5 20v539h92v-563zM374 -75h-95v558h95v-558z" />
    <glyph glyph-name="kgreenlandic" unicode="&#x138;" horiz-adv-x="960" 
d="M742 -93h-109l-183 261q-26 -27 -39 -40t-28 -25v-197h-89v563h89v-248q30 29 61 63t61 67q29 33 53.5 63.5t41.5 53.5h110q-16 -23 -39 -51t-50 -60q-27 -31 -57 -64t-58 -64q0 -1 9 -13.5t23 -32.5l73 -99q20 -27 40.5 -55t37.5 -52z" />
    <glyph glyph-name="Ldot" unicode="&#x13f;" horiz-adv-x="960" 
d="M612 284q0 -26 -18.5 -44.5t-41.5 -18.5q-24 0 -42 18.5t-18 44.5q0 25 18 45t42 20t42 -20t18 -45zM708 -69h-435v746h88v-662h347v-84z" />
    <glyph glyph-name="ldot" unicode="&#x140;" horiz-adv-x="960" 
d="M679 311q0 -29 -20.5 -48.5t-46.5 -19.5q-27 0 -46.5 19.5t-19.5 48.5q0 27 19.5 47t46.5 20q26 0 46.5 -20t20.5 -47zM445 -81h-92v762h92v-762z" />
    <glyph glyph-name="Lslash" unicode="&#x141;" horiz-adv-x="960" 
d="M749 -70h-434v320l-33 -31q-8 -8 -16 -15.5t-16 -14.5l-50 46q14 14 28.5 28t28.5 29l58 57v328h84v-243l71 69l12 -12l6 -6t7 -5l12 -12l6 -6t7 -5q-15 -16 -30.5 -31t-30.5 -30l-60 -60v-324h350v-82z" />
    <glyph glyph-name="lslash" unicode="&#x142;" horiz-adv-x="960" 
d="M520 -81h-94v315l-126 -111l-41 51l167 147v361h94v-280l131 113l40 -50l-171 -149v-397z" />
    <glyph glyph-name="napostrophe" unicode="&#x149;" horiz-adv-x="960" 
d="M745 -80h-87v347q0 80 -36 110q-35 31 -84 31q-33 0 -59 -12.5t-44 -34.5t-28 -52t-10 -66v-323h-86v548h86v-62q33 43 73 63t91 20q48 0 82.5 -17t57.5 -43q22 -27 33 -60t11 -66v-383zM213 576q7 19 28.5 27.5t40.5 -0.5q29 -18 21 -44q-4 -13 -9.5 -25.5t-13.5 -24.5
q-11 -15 -27.5 -37t-34.5 -42q-17 -21 -32 -35t-21 -14q-9 0 -15 6.5t-6 16.5q0 5 8 25.5t19 46.5z" />
    <glyph glyph-name="Eng" unicode="&#x14a;" horiz-adv-x="960" 
d="M729 200q0 -63 -18 -111.5t-49 -80.5q-31 -33 -73.5 -49t-91.5 -14v89q59 0 102 37q44 38 44 118v271q0 30 -5 54.5t-16.5 42t-31.5 26t-50 7.5q-48 -3 -89 -22t-71 -46t-47 -57t-17 -54v-412h-90v676h90v-125q16 26 41 46.5t53 35.5q27 15 53.5 24t45.5 12q40 7 79.5 2
t70.5 -23t50.5 -47.5t19.5 -71.5v-328z" />
    <glyph glyph-name="eng" unicode="&#x14b;" horiz-adv-x="960" 
d="M685 -45q0 -45 -8.5 -73.5t-19.5 -41.5q-19 -22 -46 -33q-13 -5 -35 -7t-54 -1v80q53 6 67 35q8 13 9.5 29.5t1.5 34.5v288q0 78 -30.5 112t-75.5 34q-60 0 -98 -47q-37 -46 -37 -118v-282h-85v506h85v-65q23 42 64 64t93 22q42 0 74 -16.5t53 -41.5q21 -26 31.5 -58.5
t10.5 -65.5v-355z" />
    <glyph glyph-name="OE" unicode="&#x152;" horiz-adv-x="960" 
d="M862 -51h-392v20q-18 -17 -47.5 -27t-59.5 -10q-60 0 -108 28t-83 79t-54 119.5t-19 149.5t20 148t56 116q36 48 85.5 75.5t107.5 27.5q28 0 54.5 -9t47.5 -23v10h392v-85h-306v-208h268v-84h-268v-243h306v-84zM470 549q-19 18 -45.5 31t-59.5 13q-42 0 -74.5 -21.5
t-56.5 -58.5q-23 -38 -36 -90t-13 -113q0 -72 14.5 -127t39.5 -93t57.5 -57.5t68.5 -19.5q32 0 60 13.5t45 36.5v486z" />
    <glyph glyph-name="oe" unicode="&#x153;" horiz-adv-x="960" 
d="M817 56q-11 -29 -25.5 -55t-35.5 -46q-21 -21 -48.5 -32.5t-63.5 -11.5q-23 0 -46 7t-44.5 22.5t-40 41t-31.5 63.5q-25 -72 -68 -103.5t-91 -31.5q-43 0 -78.5 21.5t-60.5 59.5t-38.5 90t-13.5 113q0 60 13.5 112t38.5 90t60.5 60t78.5 22q48 0 89 -29.5t69 -98.5
q27 66 70 96.5t91 30.5q36 0 71 -18.5t62 -57.5q27 -38 43 -97.5t15 -141.5h-297q1 -30 8 -60.5t20 -54.5q13 -25 32.5 -40t45.5 -15q15 0 28.5 6t24 15t18.5 20.5t11 22.5h93zM222 118q7 -37 20 -67q14 -29 34 -46.5t47 -17.5q26 0 46 17.5t34 46.5q13 30 20 67t7 76
q0 38 -7 75t-20 66q-14 29 -34 47t-46 18q-27 0 -47 -18t-34 -47q-13 -29 -20 -66t-7 -75q0 -39 7 -76zM743 240q-2 28 -9.5 56t-20.5 50t-31 35.5t-40 13.5q-23 0 -41.5 -13t-31.5 -34q-13 -22 -21 -50t-9 -58h204z" />
    <glyph glyph-name="Tbar" unicode="&#x166;" horiz-adv-x="960" 
d="M525 -71h-89v372h-172v73h172v221h-210v81h509v-81h-210v-221h172v-73h-172v-372z" />
    <glyph glyph-name="tbar" unicode="&#x167;" horiz-adv-x="960" 
d="M633 -72h-113q-58 0 -79 30t-21 85v203h-125v67h125v147l-98 -28l-22 59l120 36v102h93v-75l89 26l22 -59l-111 -33v-175h122v-67h-122v-181q0 -31 10.5 -39.5t40.5 -8.5h69v-89z" />
    <glyph glyph-name="caron" unicode="&#x2c7;" horiz-adv-x="960" 
d="M489 606q-14 -12 -28 0l-190 152q-24 18 -12 31q13 14 39 1l176 -90l177 91q25 13 38 -1q13 -13 -10 -31z" />
    <glyph glyph-name="uni02D0" unicode="&#x2d0;" horiz-adv-x="960" 
d="M255 401l-108 184h211zM358 111h-211l108 184z" />
    <glyph glyph-name="breve" unicode="&#x2d8;" horiz-adv-x="960" 
d="M692 779q-43 -69 -92 -99t-115 -33q-72 -4 -127.5 26t-100.5 100l49 30q36 -54 77 -76.5t96 -20.5q51 1 87 22t71 70z" />
    <glyph glyph-name="dotaccent" unicode="&#x2d9;" horiz-adv-x="960" 
d="M545 730q0 -30 -22 -50.5t-49 -20.5q-30 0 -50 22.5t-20 50.5q0 27 22 47.5t49 20.5q28 0 49 -21t21 -49z" />
    <glyph glyph-name="ring" unicode="&#x2da;" horiz-adv-x="960" 
d="M588 701q0 -43 -32 -73q-32 -29 -75 -29q-22 0 -41 8t-33.5 21.5t-22.5 32.5t-8 40t8 39.5t22.5 32t33.5 21.5t41 8t41.5 -8t34 -21.5t23 -32t8.5 -39.5zM521 663q17 16 17 38q0 21 -16.5 37t-40.5 16q-23 0 -39 -16t-16 -37q0 -22 16 -38t39 -16q24 0 40 16z" />
    <glyph glyph-name="ogonek" unicode="&#x2db;" horiz-adv-x="480" 
d="M317 -99q6 6 12 6q8 0 11 -6t3 -12q0 -17 -6 -32.5t-16.5 -27.5t-24 -19.5t-28.5 -7.5q-33 0 -55.5 26.5t-22.5 62.5q0 26 13.5 53t39.5 50q5 4 9.5 6.5t7.5 2.5q13 0 13 -13q0 -9 -4.5 -17t-8.5 -17q-5 -9 -9 -21t-4 -28q0 -17 8.5 -26.5t20.5 -9.5q9 0 16 5.5t13 12.5z
" />
    <glyph glyph-name="hungarumlaut" unicode="&#x2dd;" horiz-adv-x="960" 
d="M458 801q21 4 32 -11q9 -15 8.5 -30.5t-9.5 -23.5q-17 -15 -47 -32.5t-61 -32.5q-30 -15 -55.5 -25t-31.5 -11q-9 -1 -11 4.5t5 13.5q15 15 32.5 33.5t36.5 36.5q19 19 37 36t33 31q10 8 31 11zM626 801q21 4 32 -11q9 -15 8.5 -30.5t-9.5 -23.5q-17 -15 -47 -32.5
t-61 -32.5q-30 -15 -55.5 -25t-31.5 -11q-9 -1 -11 4.5t5 13.5q15 15 32.5 33.5t36.5 36.5q19 19 37 36t33 31q10 8 31 11z" />
    <glyph glyph-name="Alpha" unicode="&#x391;" horiz-adv-x="960" 
d="M784 -69h-99l-18 187h-337l-121 -187h-103l482 747h116zM658 205l-38 381l-235 -380z" />
    <glyph glyph-name="Beta" unicode="&#x392;" horiz-adv-x="960" 
d="M139 -71l214 749l215 -1q51 -1 87.5 -14t63.5 -44q43 -49 43 -118q0 -66 -34.5 -109t-106.5 -75q116 -50 116 -180q0 -46 -17.5 -87.5t-47.5 -67.5q-59 -53 -162 -53h-371zM515 366q33 0 61.5 10t49.5 28q21 17 33 40t12 49q0 45 -31 74t-80 29h-140l-66 -230h161z
M510 11q66 0 104 34.5t38 92.5q0 30 -11 57t-29 46q-19 20 -44 31.5t-53 11.5h-182l-79 -273h256z" />
    <glyph glyph-name="Gamma" unicode="&#x393;" horiz-adv-x="960" 
d="M152 -70q25 94 50 186.5t51 186.5q25 94 50 187.5t51 187.5h391q13 -39 26.5 -77.5t27.5 -76.5q-11 -4 -21.5 -8t-21.5 -7q-11 -4 -21.5 -8t-20.5 -7l-36 90h-252q-45 -165 -89 -327.5t-87 -326.5h-98z" />
    <glyph glyph-name="uni0394" unicode="&#x394;" horiz-adv-x="960" 
d="M764 -69h-689q75 94 149 186t149 186l300 374h91v-746zM676 16q0 136 0.5 270t0.5 270q-57 -69 -111.5 -136t-108.5 -134q-55 -69 -110 -136l-110 -134h439z" />
    <glyph glyph-name="Epsilon" unicode="&#x395;" horiz-adv-x="960" 
d="M600 -70h-452q28 94 57 186.5t59 186.5q29 94 58 187t58 187h424q-4 -11 -7 -21t-6 -21q-4 -10 -7 -20.5t-6 -20.5h-328l-75 -237h320l-15 -42q-4 -10 -7.5 -20.5t-6.5 -20.5h-317l-20 -66q-5 -17 -10 -33l-10 -32q-11 -33 -21 -66t-19 -65h352l-11 -41z" />
    <glyph glyph-name="Zeta" unicode="&#x396;" horiz-adv-x="960" 
d="M679 21q-3 -11 -5 -22.5t-4 -22.5q-3 -11 -5 -22.5t-4 -22.5h-504q4 23 8.5 45.5t9.5 45.5l122 140t122 142t121.5 141.5t123.5 141.5h-360q2 11 4.5 22.5t5.5 22.5q2 11 4.5 22.5t5.5 23.5h473q-3 -12 -5.5 -24t-4.5 -24q-3 -12 -5.5 -24t-4.5 -24l-123 -141l-122 -140
l-123 -140l-122 -140h392z" />
    <glyph glyph-name="Eta" unicode="&#x397;" horiz-adv-x="960" 
d="M565 -69l46 170t47 173h-365l-46 -172q-12 -43 -23.5 -86t-22.5 -85h-98q25 94 50.5 186.5t50.5 186.5t50.5 187t51.5 187h97q-11 -40 -21.5 -79.5t-21.5 -79.5q-10 -40 -21 -79.5t-21 -78.5h363q10 39 20.5 78.5t21.5 79.5q19 79 42 159h95q-26 -94 -51 -187t-50 -187
t-50 -186.5t-49 -186.5h-95z" />
    <glyph glyph-name="Theta" unicode="&#x398;" horiz-adv-x="960" 
d="M701 59q-42 -64 -113.5 -99t-152.5 -35q-125 0 -201 69t-76 201q0 46 8.5 96t24.5 98q16 49 38 94t49 82q42 57 106 87t149 30q63 0 114 -17.5t86.5 -51.5t55 -83.5t19.5 -113.5q0 -46 -8 -95t-23 -97q-14 -48 -33.5 -90.5t-42.5 -74.5zM534 22q43 17 77 56
q23 26 43.5 69t35.5 92q15 51 24 100.5t9 91.5q0 85 -49 128.5t-142 43.5q-60 -1 -101.5 -18.5t-74.5 -56.5q-27 -32 -47.5 -71t-34.5 -84t-21.5 -90t-7.5 -87q0 -97 50 -144t138 -47q58 0 101 17zM549 214l3 13l4 14l3 13l4 14h-185l-4 -14l-3 -13l-4 -14l-3 -13h-47
l39 177h48q-2 -7 -3.5 -14t-3.5 -14q-4 -13 -6 -27h185q2 14 6 27q2 7 3.5 14t3.5 14h48l-10 -45l-10 -44q-6 -22 -11 -44t-9 -44h-48z" />
    <glyph glyph-name="Iota" unicode="&#x399;" horiz-adv-x="960" 
d="M328 -69q49 187 98 372.5t98 374.5h101q-25 -94 -50 -187t-49 -187q-25 -94 -50 -186.5t-49 -186.5h-99z" />
    <glyph glyph-name="Kappa" unicode="&#x39a;" horiz-adv-x="960" 
d="M595 -67l-192 246l-63 83l-18 -83l-18 -82l-35 -164h-88l156 742h93l-69 -312l326 312h116l-390 -372q36 -48 72.5 -93.5t73.5 -91.5q36 -48 72.5 -93.5t73.5 -91.5h-110z" />
    <glyph glyph-name="Lambda" unicode="&#x39b;" horiz-adv-x="960" 
d="M592 -63v310q0 78 0.5 155.5t0.5 155.5l-360 -621h-98q52 91 105 182.5t107 184.5l106 184l106 185h128q0 -186 0.5 -369t0.5 -367h-96z" />
    <glyph glyph-name="Mu" unicode="&#x39c;" horiz-adv-x="960" 
d="M616 -68l126 612q-38 -78 -75 -154t-73 -152q-37 -78 -74 -154l-74 -152h-71q-8 79 -15.5 158.5t-15.5 158.5q-8 81 -15.5 159.5t-14.5 159.5q-17 -81 -33 -159.5t-31 -159.5l-64 -317h-88l76 372q18 94 37 186.5t39 186.5h131q7 -75 14 -147t15 -145q7 -73 14 -145.5
t15 -145.5q34 73 69 145.5t70 145.5q34 73 69 145t70 147h141q-38 -188 -75.5 -373t-74.5 -372h-92z" />
    <glyph glyph-name="Nu" unicode="&#x39d;" horiz-adv-x="960" 
d="M652 -69h-112q-45 157 -88.5 313t-86.5 314q-17 -79 -34 -157.5t-33 -156.5q-17 -78 -34 -156.5t-33 -156.5h-96l167 746h120l84 -310l85 -309q16 78 33 154.5t35 154.5l68 310h95q-22 -94 -43 -187t-42 -187q-11 -47 -21.5 -93t-21.5 -93z" />
    <glyph glyph-name="Xi" unicode="&#x39e;" horiz-adv-x="960" 
d="M749 536h-65l10 55h-280l-16 -55h-68l32 141h422zM665 267h-374l22 86h373zM657 -69h-474l35 140h69l-13 -55h334l16 55h69z" />
    <glyph glyph-name="Omicron" unicode="&#x39f;" horiz-adv-x="960" 
d="M697 85q-42 -69 -104 -112t-146 -43q-132 0 -199.5 73t-67.5 202q0 78 20 154t57 145q46 88 109.5 131t154.5 43q123 0 192 -69.5t69 -199.5q0 -85 -21.5 -170t-63.5 -154zM554 51q24 19 44.5 49.5t39.5 73.5q24 57 38 118t14 116q0 42 -11 77t-32.5 60.5t-53 40
t-72.5 14.5q-104 0 -164 -98q-20 -32 -36.5 -71.5t-27.5 -81.5q-12 -42 -18.5 -83.5t-6.5 -76.5q0 -81 45.5 -127.5t126.5 -46.5q34 0 62.5 8.5t51.5 27.5z" />
    <glyph glyph-name="Pi" unicode="&#x3a0;" horiz-adv-x="960" 
d="M521 -66l32 164l32 165q15 82 31 164t33 166h-267q-17 -84 -34 -166t-33 -164q-17 -84 -34 -165.5t-33 -163.5h-91q33 165 66.5 329t67.5 330h-64l9 41l10 41h564l-11 -41l-10 -41h-49q-16 -84 -32 -166l-32 -164q-16 -84 -32 -165.5t-31 -163.5h-92z" />
    <glyph glyph-name="Rho" unicode="&#x3a1;" horiz-adv-x="960" 
d="M185 -66l147 741h218q97 0 150 -51.5t53 -145.5q0 -112 -59 -174t-171 -62h-186q-8 -39 -16 -77.5t-15 -76.5q-8 -39 -16 -77.5t-15 -76.5h-90zM516 325q70 0 108 38t38 116q0 57 -32 84.5t-92 27.5h-137q-12 -66 -24 -133t-23 -133h162z" />
    <glyph glyph-name="Sigma" unicode="&#x3a3;" horiz-adv-x="960" 
d="M649 -66h-490q2 10 4.5 21.5t5.5 22.5l11 45q69 76 139 152t139 154q-42 64 -82 128t-82 130q1 9 5 22l6 22l11 44h452q-4 -21 -8.5 -42t-8.5 -41h-356q21 -34 42 -67.5t43 -66.5q21 -34 42 -67.5t43 -66.5l-140 -155q-36 -39 -71 -77.5t-69 -76.5h383l-10 -41z" />
    <glyph glyph-name="Tau" unicode="&#x3a4;" horiz-adv-x="960" 
d="M320 -68q15 82 30.5 164.5t31.5 164.5l62 330h-216l20 85h500l-20 -85h-191l-63 -330q-16 -82 -31.5 -164.5t-30.5 -164.5h-92z" />
    <glyph glyph-name="Upsilon" unicode="&#x3a5;" horiz-adv-x="960" 
d="M416 15q-4 -22 -7 -43l-6 -42h-86l60 379q7 48 7.5 91.5t-11.5 81.5q-12 37 -41 68t-80 52q7 21 14.5 41t15.5 41q78 -28 120.5 -71.5t51.5 -110.5q38 83 104 125q69 45 195 52l-21 -96q-114 -12 -182 -83q-66 -69 -92 -226q-8 -45 -15 -87.5t-13 -85.5z" />
    <glyph glyph-name="Phi" unicode="&#x3a6;" horiz-adv-x="960" 
d="M442 -34q-7 -18 -8 -31h-87l8 33q2 8 4 16.5t5 16.5q-59 9 -100.5 28.5t-68 50.5t-39.5 74t-14 100q-2 75 21.5 140t71.5 114q46 49 113 77t154 30l3 14l4 14q1 7 3 14t4 15h87l-4 -16l-3 -16l-4 -16l-3 -15q118 -18 173 -79.5t55 -170.5q0 -93 -39 -175
q-37 -82 -98 -129q-40 -31 -94.5 -46t-135.5 -12zM519 304q-13 -57 -26 -112t-25 -110q63 0 111.5 21.5t81.5 59.5t50 88.5t17 107.5q0 72 -38 115.5t-119 52.5zM486 533q-27 -2 -48 -5t-37.5 -7.5t-30.5 -11.5t-28 -16q-52 -36 -82.5 -98t-30.5 -134q0 -75 37 -117.5
t115 -54.5z" />
    <glyph glyph-name="Chi" unicode="&#x3a7;" horiz-adv-x="960" 
d="M602 -69l-33 77l-32 78q-16 38 -32.5 77t-32.5 78l-239 -310h-107l152 196q37 49 75 97.5t77 99.5l-147 354h97l117 -276l207 276h103l-270 -364q20 -48 40.5 -96t41.5 -96t41.5 -95.5t41.5 -95.5h-100z" />
    <glyph glyph-name="Psi" unicode="&#x3a8;" horiz-adv-x="960" 
d="M420 -69h-89l21 109q5 27 10.5 54.5t11.5 55.5q-129 5 -177 47q-49 43 -49 128q0 27 7.5 70t23.5 112q7 31 11.5 56t4.5 39q0 15 -2 25.5t-4 18.5t-5 13.5t-4 10.5q9 1 21.5 1h28.5q16 1 28.5 1h21.5q11 -18 6 -55q-2 -18 -6.5 -38.5t-9.5 -43.5q-17 -71 -28 -121
q-5 -25 -8 -45t-3 -37q0 -27 7 -45.5t24 -29.5q18 -12 47.5 -17.5t77.5 -6.5l82 441h90q-23 -113 -42 -222q-11 -55 -21.5 -110.5t-20.5 -110.5q60 0 97.5 8t61.5 36q23 28 38 82.5t32 147.5q10 58 18.5 91.5t14.5 50.5q6 16 9.5 20.5t4.5 6.5h50q17 0 31 -0.5t17 -1.5
q-3 -4 -5.5 -7.5t-4.5 -7.5q-3 -5 -6 -10.5t-6 -13.5q-8 -17 -14 -39.5t-11 -49.5l-24 -124q-17 -75 -35 -127t-51 -85q-33 -34 -87.5 -48.5t-142.5 -12.5z" />
    <glyph glyph-name="uni03A9" unicode="&#x3a9;" horiz-adv-x="960" 
d="M695 -64h-263q6 29 13 58t15 59q127 66 184 150.5t57 194.5q0 43 -13 79t-37.5 61t-59 39t-77.5 14q-52 0 -92.5 -22t-69.5 -61q-28 -39 -43 -92t-15 -114q0 -82 25 -138q13 -28 34 -57t51 -58q-4 -15 -8 -29t-7 -28l-8 -28q-2 -7 -3.5 -14t-3.5 -14h-242l21 81h172
q-67 74 -92 141q-25 68 -25 157q0 79 22 145.5t64 114.5t98 75t125 27q61 0 111 -20t86 -55q36 -36 56 -86t20 -110q0 -69 -17 -127.5t-49 -106.5t-77 -86.5t-100 -68.5h166z" />
    <glyph glyph-name="alpha" unicode="&#x3b1;" horiz-adv-x="720" 
d="M513 -62q-9 -2 -17 -2.5t-14 -0.5q-39 0 -57 17.5t-28 62.5q-42 -40 -80 -63q-34 -22 -89 -22q-72 0 -114.5 52t-42.5 139q0 67 20.5 132.5t57.5 116.5q36 51 85 83t106 32q52 -1 82.5 -21.5t43.5 -55.5q13 -36 12 -85t-10 -106q19 34 33.5 63.5t25.5 58.5t19.5 59.5
t16.5 65.5l80 -37q-17 -54 -33.5 -97.5t-36.5 -82.5t-45 -76.5t-58 -79.5q3 -36 11.5 -51t34.5 -15h5q4 0 7 1q4 1 8 1.5t10 2.5q-10 -25 -17 -46zM388 359q-15 35 -57 37q-32 0 -63 -24.5t-56 -62.5q-24 -39 -39.5 -85.5t-15.5 -91.5q0 -23 6 -44t17.5 -36.5t28.5 -25
t40 -9.5q30 0 55.5 14t52.5 44q11 12 18.5 20t11.5 25q5 18 8 52.5t6 101.5q2 51 -13 85z" />
    <glyph glyph-name="beta" unicode="&#x3b2;" horiz-adv-x="720" 
d="M161 -166h-88q16 72 32.5 143t32.5 143l32 144l33 144q30 135 83.5 203t148.5 68q36 0 66 -11t51 -31.5t32.5 -49t11.5 -62.5q0 -63 -32.5 -106.5t-107.5 -70.5q57 -27 83 -70t26 -109q0 -54 -17 -97.5t-46 -75.5q-30 -32 -69.5 -49.5t-85.5 -17.5q-44 0 -77 16.5
t-69 59.5l-20 -86zM316 305l3 20l4 20q2 9 3.5 19t3.5 21h40q31 0 56 11t43 29q17 19 27 42.5t10 49.5q0 35 -20.5 57.5t-55.5 22.5q-46 0 -77 -38.5t-49 -111.5q-9 -39 -22.5 -92.5t-26.5 -104.5t-21.5 -90.5t-8.5 -49.5q0 -26 9.5 -45t25 -32t36 -19.5t41.5 -6.5
q30 0 55 12.5t43 34t28 52t10 66.5q0 30 -8.5 54.5t-24 42t-37 27.5t-46.5 10q-6 0 -11 -0.5t-10 -0.5h-20z" />
    <glyph glyph-name="gamma" unicode="&#x3b3;" horiz-adv-x="720" 
d="M222 -73q17 97 27 159.5t16 101.5q5 38 7 57t2 28q0 48 -25 77.5t-68 29.5q-15 0 -30 -4t-37 -16l-4 91q25 15 41.5 19.5t40.5 4.5q54 0 87 -28t59 -97q21 34 39.5 57t39.5 36q20 14 43 19.5t52 5.5q27 0 49.5 -6t56.5 -21l-28 -92q-25 12 -41 16.5t-34 4.5
q-40 0 -67.5 -15.5t-47.5 -45.5q-6 -8 -10 -15t-7.5 -16t-7 -22t-7.5 -32q-7 -37 -18 -106.5t-30 -190.5h-98z" />
    <glyph glyph-name="delta" unicode="&#x3b4;" horiz-adv-x="720" 
d="M608 598q-2 -10 -3 -20q-33 9 -73.5 14.5t-76.5 5.5t-60.5 -6t-24.5 -19q0 -9 8 -20t21.5 -24.5l30 -30t34.5 -36.5t34.5 -43.5t30 -51t21.5 -59.5t8 -68q0 -51 -15.5 -106t-46.5 -101q-32 -46 -79 -76t-111 -30q-94 0 -142.5 54.5t-48.5 154.5q0 64 24 129q13 32 28 58
t33 45q33 34 75.5 49.5t102.5 19.5q-42 42 -65.5 68.5t-36.5 43.5q-13 18 -16.5 29.5t-3.5 22.5q0 37 53.5 58.5t158.5 21.5q18 0 34.5 -1t34 -3t37.5 -6t46 -10q-2 -11 -4 -21.5t-4 -20.5t-4 -21zM366 28q31 21 53 54q23 33 36 74.5t13 86.5q0 55 -26 88t-74 33
q-35 0 -64.5 -23t-51.5 -59q-22 -35 -34 -78t-12 -82q0 -51 25 -82.5t70 -31.5q35 0 65 20z" />
    <glyph glyph-name="epsilon" unicode="&#x3b5;" horiz-adv-x="720" 
d="M471 193h-80q-76 0 -119.5 -26t-43.5 -74q0 -40 31 -60t88 -20q48 0 95 11.5t112 41.5q-3 -13 -5.5 -25.5t-4.5 -24.5q-3 -12 -5.5 -24.5t-4.5 -24.5q-54 -21 -101 -30t-101 -9q-108 0 -157.5 40t-49.5 113q0 57 30 94.5t102 61.5q-31 29 -43 51.5t-12 49.5q0 65 58 105
q58 42 152 42q53 0 99 -11q23 -5 49 -14.5t57 -23.5q-2 -5 -3.5 -10.5t-3.5 -10.5l-6 -20q-4 -10 -7 -20t-6 -19q-57 24 -98 34.5t-83 10.5q-48 0 -77.5 -18.5t-29.5 -51.5q0 -26 22.5 -40t60.5 -14h105z" />
    <glyph glyph-name="zeta" unicode="&#x3b6;" horiz-adv-x="720" 
d="M298 -125q21 -6 34 -7t26 -1q30 0 48 11t18 33q0 23 -19.5 37t-55.5 21q-32 5 -69.5 9.5t-70.5 16.5q-32 12 -54 36t-22 70q0 15 3 30t10.5 33t20.5 39.5t34 50.5q28 39 53.5 73.5t52.5 69.5t57 72.5t68 83.5h-233l12 42q3 10 6.5 20.5t6.5 21.5h248q12 0 22.5 5.5
t17.5 12.5q8 7 13 13.5t7 8.5q9 -4 21 -14t23 -23q10 -12 17.5 -25.5t8.5 -23.5q0 -11 -7.5 -17t-17.5 -9q-11 -3 -21.5 -5.5t-16.5 -6.5q-10 -9 -29 -29.5t-43 -49.5t-51.5 -64t-54.5 -71q-28 -37 -53 -72.5t-44 -66.5q-42 -62 -42 -87q0 -13 4.5 -21t16.5 -13t31.5 -8.5
t49.5 -6.5q107 -13 151 -45q44 -30 44 -96q0 -69 -40 -106t-109 -37q-15 0 -36 1.5t-52 6.5q1 11 3 21.5t5 21.5z" />
    <glyph glyph-name="eta" unicode="&#x3b7;" horiz-adv-x="720" 
d="M424 -146q17 102 34.5 201.5t36.5 202.5q3 16 5 39.5t-3 45.5q-5 21 -21 37t-50 16q-58 0 -104 -36q-46 -34 -55 -94q-6 -36 -12.5 -71t-12.5 -70l-12 -71l-12 -70h-98q10 60 20.5 121t21.5 122q10 61 21 121.5t22 123.5h93l-3 -16l-2 -16q-2 -8 -3 -16t-2 -15
q40 42 76 58t75 16q34 0 65 -10.5t53 -31.5q23 -21 34.5 -53t7.5 -75q-6 -57 -15 -114t-20 -115t-22.5 -115.5t-21.5 -114.5h-96z" />
    <glyph glyph-name="theta" unicode="&#x3b8;" horiz-adv-x="720" 
d="M497 55q-39 -66 -86 -97t-107 -31q-87 0 -132.5 55t-45.5 161q0 52 8 108.5t23 113.5q14 55 34.5 105.5t45.5 90.5q35 57 86.5 88t111.5 31q81 0 127.5 -55.5t46.5 -155.5q0 -51 -8.5 -106.5t-23.5 -110.5t-35.5 -106t-44.5 -91zM509 341q5 39 9 73t4 54q0 64 -22.5 99.5
t-70.5 35.5q-39 0 -69 -24.5t-52 -62.5t-38 -84t-26 -91h265zM226 267q-6 -39 -9 -68.5t-3 -54.5q0 -69 21 -104t72 -35q57 0 101 61.5t80 200.5h-262z" />
    <glyph glyph-name="iota" unicode="&#x3b9;" horiz-adv-x="720" 
d="M445 -60q-33 -6 -59 -7.5t-54 -1.5q-42 0 -58.5 14.5t-16.5 44.5q0 33 9 68l24 103l24 104q12 51 24 103t25 104h92q-11 -45 -21 -90.5t-20 -90.5l-40 -181q-5 -18 -8 -36t-3 -27q0 -21 11.5 -27.5t32.5 -6.5q12 0 28.5 2t26.5 7z" />
    <glyph glyph-name="kappa" unicode="&#x3ba;" horiz-adv-x="720" 
d="M413 -69q-45 60 -88 120.5t-86 121.5q-7 -31 -13 -61.5t-12 -60.5q-4 -15 -7 -30l-6 -30l-12 -60h-95l116 542h96q-6 -26 -11.5 -52t-11.5 -51q-6 -26 -11.5 -52t-10.5 -51q31 25 62.5 51t62.5 52q31 25 62 51t63 52h127l-321 -261q25 -36 50.5 -71t51.5 -70
q25 -35 50.5 -70t51.5 -70h-108z" />
    <glyph glyph-name="lambda" unicode="&#x3bb;" horiz-adv-x="720" 
d="M567 -72q-23 27 -35 44t-21 35q-17 28 -29.5 65.5t-23.5 82.5l-43 201q-23 -15 -33.5 -25.5t-22.5 -31.5q-6 -11 -16 -31t-20 -42q-11 -23 -20.5 -43.5t-14.5 -32.5q-21 -46 -39.5 -79.5t-38.5 -58.5q-20 -26 -43.5 -46t-53.5 -39l-32 40q-8 9 -16 19t-15 21
q27 13 49.5 30.5t44.5 43.5q21 26 42 62.5t46 87.5l33 69q14 30 25.5 51t24.5 38q12 16 26.5 30t34.5 29q-14 36 -27 60.5t-29 41.5q-15 18 -35 30t-47 24l21 38q5 10 10.5 19.5t11.5 19.5q31 -13 55 -26.5t41 -29.5q35 -32 65 -87q21 -42 35.5 -87.5t25.5 -91.5
q12 -46 22.5 -91.5t24.5 -90.5q10 -34 20.5 -61t22.5 -49t26 -40.5t32 -35.5z" />
    <glyph glyph-name="uni03BC" unicode="&#x3bc;" horiz-adv-x="720" 
d="M201 -108q-2 -10 -3.5 -19.5t-3.5 -19.5h-98l61 311q15 78 30.5 155.5t31.5 155.5h97l-48 -265q-2 -12 -4.5 -23t-3.5 -22q-4 -20 -4 -42q0 -48 23 -78t65 -30q51 0 84.5 41.5t47.5 120.5q6 37 12.5 74.5t13.5 74.5q6 37 12.5 74t13.5 75h97q-16 -88 -31.5 -174.5
t-30.5 -174.5q-4 -19 -5.5 -36t-1.5 -28q0 -20 11 -27.5t41 -9.5q-2 -5 -2.5 -10.5t-2.5 -14.5q-1 -9 -4 -22.5t-7 -35.5q-59 0 -83 11q-22 10 -34 47q-18 -21 -34 -34.5t-31 -22t-31.5 -11.5t-35.5 -3q-39 0 -66.5 18.5t-51.5 64.5z" />
    <glyph glyph-name="nu" unicode="&#x3bd;" horiz-adv-x="720" 
d="M645 388q-51 9 -80 -44q-29 -54 -60 -152q-23 -69 -41.5 -120t-38.5 -84q-37 -65 -97 -64q-20 0 -35 7t-26.5 19t-19 27.5t-13.5 32.5q-10 34 -12.5 68t-3.5 51q-6 78 -11 128t-13 80q-8 29 -21 40t-34 10q-11 -1 -23 -5t-33 -19l-8 20q-2 5 -3.5 10.5t-3.5 10.5l-8 20
q-2 5 -3.5 10.5t-3.5 10.5q27 20 48 28t48 8q45 0 73.5 -18t47.5 -57q14 -31 22 -94.5t14 -174.5q3 -55 8.5 -82t21.5 -27q7 0 16 11.5t19 29.5q9 18 17.5 40t14.5 43q15 54 24 81.5t14 43.5q5 15 8 23t8 21q16 48 32.5 79.5t38.5 49.5t53 25.5t79 7.5q-2 -12 -3.5 -23.5
t-3.5 -22.5l-4 -24z" />
    <glyph glyph-name="xi" unicode="&#x3be;" horiz-adv-x="720" 
d="M495 269q-23 0 -41.5 -0.5t-35.5 -0.5q-42 -2 -76.5 -14.5t-61.5 -32.5q-26 -20 -41 -46t-15 -56q0 -29 15.5 -44t55.5 -23q54 -12 92 -22t61 -24t33.5 -35.5t10.5 -55.5q0 -67 -42 -100t-118 -33q-12 0 -31 1.5t-40 4.5q3 21 7 42t9 42q18 -4 29 -5t22 -1
q33 0 52.5 10.5t19.5 32.5q0 26 -27 35t-64 15q-83 11 -131 44.5t-48 103.5q0 72 48 127t145 88q-46 23 -62.5 45t-16.5 55q0 37 23.5 68t80.5 64h-111q2 10 4.5 20t5.5 20q3 9 5.5 19t5.5 21h240q13 0 26 4t23 9q5 2 9 5t8 5t6.5 4t4.5 3l6 -7l16 -18q8 -11 15 -25t7 -28
q0 -10 -4.5 -13.5t-16.5 -5.5q-12 -1 -33.5 -3t-55.5 -8q-48 -14 -81.5 -28.5t-53.5 -30.5t-29 -33t-9 -35q0 -40 38.5 -58t102.5 -18h36z" />
    <glyph glyph-name="omicron" unicode="&#x3bf;" horiz-adv-x="720" 
d="M129 221q8 41 24 78q15 38 36.5 71.5t47.5 58.5q30 30 71.5 45.5t89.5 15.5q93 0 146 -54.5t53 -151.5q0 -36 -6.5 -73t-18 -72t-28.5 -67t-38 -58q-35 -45 -79.5 -66t-104.5 -21q-47 0 -84 15t-63 43t-40 68t-14 90q0 38 8 78zM322 382q-32 -22 -56 -70
q-23 -42 -35.5 -92.5t-12.5 -93.5q0 -54 28 -84t82 -30q43 0 75.5 27t58.5 87q18 39 29 85t11 85q0 51 -28.5 80t-79.5 29q-40 0 -72 -23z" />
    <glyph glyph-name="pi" unicode="&#x3c0;" horiz-adv-x="720" 
d="M515 -57l-21 -10q-38 33 -51.5 74t-13.5 80q0 27 2 58t7 68.5t13 83.5t20 103h-197q-12 -105 -23.5 -177t-26.5 -124q-14 -52 -32.5 -90t-42.5 -74q-5 2 -10.5 5t-10.5 6l-20 12q-5 2 -10 5l-10 6l-20 12q17 24 29 45t22 46q10 28 18.5 55t15.5 63t14 85.5t15 121.5
q-22 -1 -39.5 -2t-35.5 -4q1 19 6 42q2 11 3.5 21.5t3.5 21.5q9 1 17.5 2t19.5 2t27 1t41 1h422q-3 -11 -5 -21t-5 -20l-9 -41h-64q-13 -58 -21 -99.5t-13 -74.5q-5 -32 -6.5 -58.5t-1.5 -53.5q0 -17 2 -35.5t8.5 -37t18 -36t29.5 -32.5q-23 -12 -43 -20z" />
    <glyph glyph-name="rho" unicode="&#x3c1;" horiz-adv-x="720" 
d="M71 -172q11 45 27 110.5t33 134.5q16 69 31 128.5t24 89.5q29 103 90 153t148 50q91 0 142 -53.5t51 -150.5q0 -67 -20 -127.5t-55 -108.5q-35 -46 -81.5 -73.5t-100.5 -27.5q-22 0 -40 3.5t-35 13t-33.5 25t-35.5 39.5q-13 -51 -26 -103t-25 -103h-94zM416 60
q31 21 54 55t37 77.5t14 89.5q0 57 -27.5 90t-75.5 33q-39 0 -68 -20.5t-49 -54.5q-20 -33 -32 -77t-17 -90q0 -55 27.5 -89t73.5 -34q33 0 63 20z" />
    <glyph glyph-name="sigma" unicode="&#x3c3;" horiz-adv-x="720" 
d="M596 533q3 -11 6.5 -21t6.5 -20q-26 -7 -45 -12.5t-35 -11.5q-16 -5 -32 -11.5t-35 -15.5q27 -16 45.5 -33t29.5 -37.5t16 -45.5t5 -56q0 -70 -20 -132t-55 -108q-35 -48 -82.5 -74t-104.5 -26q-88 0 -138.5 57t-50.5 160q0 78 31.5 149.5t89.5 122.5q31 27 72 50.5
t89 42.5t97.5 34.5t97.5 28.5l6 -21zM361 36q31 22 54 56q23 35 37 78t14 88q0 60 -27 93t-73 33q-34 0 -64 -21.5t-53 -55.5q-22 -35 -35 -79t-13 -89q0 -60 25 -92t70 -32q34 0 65 21z" />
    <glyph glyph-name="tau" unicode="&#x3c4;" horiz-adv-x="720" 
d="M441 -63q-39 -5 -66 -7t-51 -2q-39 0 -63 18t-18 48l5 41l58 348q-43 6 -84.5 2t-84.5 -17l10 89q17 4 31 7.5t28.5 5t30 2.5t35.5 1q33 0 56 -2t43 -4q19 -2 39.5 -4.5t48.5 -3.5q21 -2 37.5 -1.5t32.5 2t32 4.5t34 8l-17 -92q-22 -5 -38.5 -7t-35.5 -2q-19 -1 -42.5 1
t-59.5 5l-53 -317q-6 -32 9 -41.5t71 -3.5l29 3z" />
    <glyph glyph-name="upsilon" unicode="&#x3c5;" horiz-adv-x="720" 
d="M515 483q51 -23 68 -47t17 -52q0 -17 -4 -43t-11 -57q-6 -32 -14 -67t-16 -69q-17 -66 -35.5 -108.5t-46.5 -67.5q-28 -24 -69 -33.5t-102 -9.5q-91 0 -131 32.5t-40 92.5q0 17 5 42q2 11 5 22t6 23q6 27 14.5 58.5t15.5 62.5q8 30 13.5 55.5t5.5 39.5q0 15 -9.5 26.5
t-39.5 24.5l54 69q51 -21 71 -44.5t20 -58.5q0 -10 -1.5 -24t-4.5 -27q-7 -34 -17 -69.5t-19 -69.5t-15 -64t-6 -52q0 -29 25 -40.5t70 -11.5q34 0 57 10.5t38 33.5q13 19 27 62t25 91q12 47 20.5 90t11.5 63q0 18 -9.5 31t-32.5 29z" />
    <glyph glyph-name="phi" unicode="&#x3c6;" horiz-adv-x="720" 
d="M315 -166h-89l14 67l15 67q-107 14 -153.5 66.5t-46.5 141.5q0 57 18 108.5t52 93.5t82.5 71t109.5 41q-1 -12 -1.5 -23.5t-0.5 -22.5q-1 -11 -1.5 -22.5t-0.5 -22.5q-88 -27 -125.5 -84.5t-37.5 -135.5q0 -30 6 -52t20.5 -37.5t38 -25t58.5 -14.5q13 63 27 124.5
t29 124.5q10 44 24.5 79.5t35.5 60t49 38t64 13.5q72 0 114.5 -53t42.5 -143q0 -44 -8.5 -85t-24.5 -76.5t-38 -64.5t-49 -48q-39 -27 -84.5 -38.5t-109.5 -15.5zM361 51q108 4 152 67q45 62 53 181q3 48 -14 75.5t-47 27.5q-27 0 -48.5 -26t-30.5 -61q-5 -17 -9 -33t-8 -33
z" />
    <glyph glyph-name="chi" unicode="&#x3c7;" horiz-adv-x="720" 
d="M527 -69q-28 0 -47.5 3.5t-33 11t-23 20t-16.5 30.5q-17 31 -30 66q-8 17 -15.5 33.5t-14.5 33.5l-150 -198h-58q-14 0 -28.5 0.5t-28.5 0.5q28 35 57 70.5t58 70.5q28 35 57 70.5t58 71.5q-16 35 -31.5 70t-30.5 71q-9 21 -27.5 31t-41.5 10h-20l-12 75h95
q36 0 56 -13.5t35 -45.5q5 -14 11 -27.5t13 -27.5q6 -14 12.5 -27.5t13.5 -26.5q31 42 63 84t65 84h111q-26 -33 -51.5 -65t-50.5 -64t-50.5 -64t-50.5 -64l18 -43l18 -42q9 -22 18.5 -43t18.5 -42q12 -31 33 -39.5t60 -8.5q-2 -9 -3.5 -17t-3.5 -16q-5 -17 -6 -32
q-6 0 -12 -0.5t-12 -0.5h-23z" />
    <glyph glyph-name="psi" unicode="&#x3c8;" horiz-adv-x="720" 
d="M239 -170q2 13 4.5 26t5.5 26l10 53q-66 2 -108.5 13.5t-67.5 31.5q-25 21 -35 50.5t-10 71.5q0 33 4.5 73.5t13.5 80.5q8 42 19.5 79t25.5 64q12 26 24.5 41.5t36.5 34.5q18 -14 35 -26q18 -14 35 -26q-14 -12 -23 -22.5t-15.5 -21.5t-12 -24t-11.5 -31
q-5 -18 -12 -44.5t-13 -56.5q-7 -29 -11.5 -57t-4.5 -49q0 -32 11 -50t31 -28t47 -13.5t58 -4.5q12 64 24 128.5t25 130.5q12 66 24 129.5t25 129.5h89q-13 -66 -25.5 -130.5t-24.5 -130.5l-49 -260q71 3 101 13q32 10 57 35q33 33 49.5 100.5t16.5 173.5q0 33 -4.5 52.5
t-19.5 45.5l43 14q5 2 10.5 3.5t10.5 3.5l22 8q9 -16 15 -31t10 -32.5t5.5 -38t1.5 -47.5q0 -63 -9 -121t-24 -100q-27 -87 -97 -123q-68 -37 -205 -43q-3 -13 -5.5 -25.5t-4.5 -25.5q-3 -13 -5.5 -25.5t-4.5 -24.5h-88z" />
    <glyph glyph-name="omega" unicode="&#x3c9;" horiz-adv-x="720" 
d="M384 127q-4 -15 -4 -27q0 -36 18 -60.5t46 -24.5q27 0 49.5 18t39.5 50t26.5 75t9.5 92q0 48 -6 76t-17 44t-26.5 24t-34.5 16q5 9 15 30.5t18 39.5q42 -10 69.5 -32t44.5 -52q16 -30 23 -65t7 -70q0 -69 -16 -129t-44 -106q-28 -45 -66.5 -72t-83.5 -27t-76.5 23
t-55.5 80q-30 -57 -59 -78t-68 -21q-66 0 -106 54t-40 147q0 54 14.5 108t43.5 102q28 48 69 84.5t95 54.5q5 -16 12.5 -36.5t13.5 -33.5q-27 -12 -54.5 -40t-49.5 -66q-23 -39 -37 -84.5t-14 -93.5q0 -51 15.5 -78.5t48.5 -27.5q30 0 50 30.5t35 76.5q15 48 26.5 102
t24.5 102h94q-6 -22 -11 -43.5t-10 -42.5l-20 -86l-5 -17z" />
    <glyph glyph-name="uni0401" unicode="&#x401;" horiz-adv-x="960" 
d="M642 666q0 -27 -19 -44.5t-43 -17.5t-42 17.5t-18 44.5t18.5 45t43.5 18q24 0 42 -18t18 -45zM440 666q0 -27 -18.5 -44.5t-42.5 -17.5t-42.5 17.5t-18.5 44.5t19 45t43 18t42 -18t18 -45zM730 -66h-496v628h496v-85h-412v-170h356v-86h-356v-204h412v-83z" />
    <glyph glyph-name="uni0410" unicode="&#x410;" horiz-adv-x="960" 
d="M790 -65h-98l-75 216h-278l-78 -216h-98q33 93 66.5 184.5t67.5 185.5l135 370h94zM590 231l-111 339q-29 -85 -57.5 -169.5t-57.5 -169.5h226z" />
    <glyph glyph-name="uni0411" unicode="&#x411;" horiz-adv-x="960" 
d="M255 -66v742h399l63 -90l-64 -60q-11 16 -21.5 32.5t-20.5 32.5h-266v-217h159q60 0 95.5 -11.5t64.5 -32.5q36 -27 56.5 -71.5t20.5 -110.5q0 -111 -58.5 -162.5t-167.5 -51.5h-260zM494 18q84 0 120.5 32t36.5 99q0 72 -38.5 105.5t-123.5 33.5h-144v-270h149z" />
    <glyph glyph-name="uni0412" unicode="&#x412;" horiz-adv-x="960" 
d="M229 -65v740h270q124 0 173 -52q50 -52 50 -138q0 -51 -20 -88t-62 -66q32 -12 54.5 -32.5t36.5 -47.5t19.5 -59t4.5 -66q-6 -94 -63 -142.5t-160 -48.5h-303zM527 367q48 0 79 32.5t31 84.5q0 51 -30 79.5t-85 28.5h-207v-225h212zM524 19q69 0 107.5 32.5t38.5 95.5
t-39.5 99.5t-108.5 36.5h-207v-264h209z" />
    <glyph glyph-name="uni0413" unicode="&#x413;" horiz-adv-x="960" 
d="M375 -71h-92v668h-50v81h450l26 -43q10 -15 20 -32t19 -30l-70 -52q-6 9 -11.5 18.5t-10.5 18.5q-6 9 -11.5 18.5t-10.5 19.5h-259v-667z" />
    <glyph glyph-name="uni0414" unicode="&#x414;" horiz-adv-x="960" 
d="M771 -83l-34 -33l-34 -32q-10 10 -19 20t-18 21q-10 10 -19 20t-18 21h-318q-19 -28 -42.5 -47t-55.5 -34q-11 16 -28 36t-32 38q9 5 21.5 12.5t24.5 16.5q13 10 25 22.5t22 28.5q7 16 12 45t9 65q3 36 4.5 74.5t1.5 73.5v323h-42v87h504v-87h-42v-581zM604 19v569h-242
v-335q0 -26 -0.5 -55.5t-2 -60.5t-4.5 -61t-7 -57h256z" />
    <glyph glyph-name="uni0415" unicode="&#x415;" horiz-adv-x="960" 
d="M729 -65h-497v741h497v-84h-410v-227h354v-84h-354v-263h410v-83z" />
    <glyph glyph-name="uni0416" unicode="&#x416;" horiz-adv-x="960" 
d="M736 -66q-7 16 -11 38.5t-6 45.5q-3 24 -4 45.5t-2 36.5q-4 42 -8 74t-14 55t-29 35.5t-53 12.5h-85v-342h-85v342h-91q-26 0 -43 -8.5t-28 -28.5q-12 -20 -17.5 -55t-7.5 -87q-2 -37 -3.5 -61.5t-3.5 -42.5t-5.5 -32t-7.5 -27h-103q10 15 17 29t11 33t6.5 44.5t4.5 67.5
q2 51 6.5 91t17.5 69q12 29 34.5 47.5t60.5 27.5q-12 14 -19.5 27t-12.5 27.5t-8 31.5t-6 40q-6 69 -25 91q-20 24 -70 24v90q46 -2 78 -11t53 -29t33 -51.5t18 -79.5q4 -48 10 -76t18 -42q12 -15 31.5 -19.5t51.5 -5.5v314h85v-314q56 3 79 21q24 21 31 73l4 38l3 25
q1 10 1.5 17t2.5 15q11 57 49 89q39 33 132 36v-90q-26 -3 -43.5 -8t-29.5 -13t-19 -21t-11 -31q-6 -26 -9 -48.5t-6 -42.5q-4 -20 -11 -38.5t-21 -36.5q38 -12 61.5 -27.5t36.5 -42.5q13 -28 18.5 -71t7.5 -110q0 -32 2 -54t6 -40t10.5 -33.5t15.5 -32.5q-13 0 -25 -0.5
t-24 -0.5h-49z" />
    <glyph glyph-name="uni0417" unicode="&#x417;" horiz-adv-x="960" 
d="M428 272v91h70q57 0 88 30.5t31 85.5q0 54 -36.5 83.5t-108.5 29.5q-160 0 -197 -161h-68v156q5 -4 10.5 -7t10.5 -6l22 -12q43 60 97 87.5t134 27.5q54 0 97.5 -13.5t74 -38.5t47 -61t16.5 -81q0 -54 -19 -91.5t-64 -66.5q54 -27 79.5 -70t25.5 -103q0 -109 -64 -165
t-184 -56q-121 0 -191.5 62t-78.5 200h88q4 -42 15.5 -74.5t33 -54t54.5 -33t81 -11.5q75 0 114 33t39 94q0 60 -37 92.5t-109 32.5h-71z" />
    <glyph glyph-name="uni0418" unicode="&#x418;" horiz-adv-x="960" 
d="M742 -69h-93v593q-42 -75 -83 -148.5t-83 -148.5t-83 -149t-83 -147h-100v747h92l1 -577l164 288q40 72 81 144.5t83 144.5h104v-747z" />
    <glyph glyph-name="uni0419" unicode="&#x419;" horiz-adv-x="960" 
d="M742 -69h-93l-1 482l-340 -482h-91v628h91l1 -485q85 121 168.5 241.5t168.5 243.5h96v-628zM633 733q-21 -86 -59 -121.5t-98 -35.5q-57 0 -94 34t-55 123h83q9 -37 25 -53.5t44 -16.5q27 0 43.5 16.5t27.5 53.5h83z" />
    <glyph glyph-name="uni041A" unicode="&#x41a;" horiz-adv-x="960" 
d="M677 -65q-25 43 -49 86.5t-49 88.5t-50.5 88.5t-51.5 88.5q-28 -13 -58 -14q-16 0 -36.5 0.5t-48.5 1.5v-340h-92v741h92v-309h76q59 0 82 30q12 16 19.5 40.5t16.5 60.5q10 53 22.5 79t25.5 43q13 18 29 28.5t36.5 16t45 7.5t56.5 4v-92q-33 0 -54.5 -3.5t-34.5 -14.5
q-14 -11 -22 -31.5t-15 -52.5q-8 -35 -14.5 -58t-13.5 -40q-8 -16 -17 -28t-21 -24q28 -51 56.5 -100.5t56.5 -98.5q55 -101 114 -198h-101z" />
    <glyph glyph-name="uni041B" unicode="&#x41b;" horiz-adv-x="960" 
d="M698 -65h-92v654h-236q-1 -17 -1.5 -41.5t-0.5 -51.5q-1 -27 -1.5 -52t-0.5 -41q-8 -124 -16 -207.5t-26 -140.5q-18 -55 -50 -87t-86 -50l-36 86q33 9 50 21t28 32q12 23 21 72t15 118t9 155.5t3 186.5h-62v89h546v-89h-64v-654z" />
    <glyph glyph-name="uni041C" unicode="&#x41c;" horiz-adv-x="960" 
d="M847 -67h-88q-20 138 -39.5 274.5t-38.5 275.5l-8 -23q-2 -8 -7 -25t-13 -43l-47 -161l-83 -298h-86q-20 69 -37.5 137.5t-35.5 137.5t-37.5 137t-40.5 137q-20 -139 -39.5 -275t-37.5 -274h-87q12 93 24.5 185t25.5 186q12 94 24.5 186t25.5 186h102q37 -144 78 -288
q20 -72 39.5 -143.5t39.5 -143.5q22 72 42 143t39 143q20 72 39 144t40 145h103q6 -47 12 -93t13 -93l52 -372z" />
    <glyph glyph-name="uni041D" unicode="&#x41d;" horiz-adv-x="960" 
d="M753 -73h-96v357h-356v-357h-96v756h96v-309h356v309h96v-756z" />
    <glyph glyph-name="uni041E" unicode="&#x41e;" horiz-adv-x="960" 
d="M686 30q-37 -49 -88.5 -75t-115.5 -26t-115.5 26t-87.5 75t-55.5 117t-19.5 155q0 175 72 276t203 101q64 0 116 -26t89 -74q36 -49 56.5 -117.5t20.5 -156.5t-19.5 -157t-55.5 -118zM483 22q88 0 137.5 74.5t49.5 206.5q0 135 -50 210.5t-138 75.5q-90 0 -139 -74.5
t-49 -207.5q0 -66 13 -119t37 -89.5t59 -56.5t80 -20z" />
    <glyph glyph-name="uni041F" unicode="&#x41f;" horiz-adv-x="960" 
d="M702 -69h-93v656h-260v-656h-91v656h-75v91h589v-91h-70v-656z" />
    <glyph glyph-name="uni0420" unicode="&#x420;" horiz-adv-x="960" 
d="M336 -68h-93v746h286q51 0 93 -12t73 -38t48.5 -66.5t18.5 -100.5q0 -64 -20 -105.5t-53 -65.5t-75 -33.5t-85 -9.5q-23 -1 -46 -1h-48h-99v-314zM525 339q69 0 106 31.5t37 91.5t-36 92t-105 32h-191v-247h189z" />
    <glyph glyph-name="uni0421" unicode="&#x421;" horiz-adv-x="960" 
d="M754 192q-10 -69 -33.5 -119.5t-58.5 -83.5t-81 -48.5t-100 -15.5q-69 0 -124 26t-94 77q-39 49 -59.5 119t-20.5 158q0 116 31.5 190t78.5 116q46 42 97.5 57.5t91.5 15.5q107 0 181 -65q75 -64 90 -188h-94q-1 33 -14.5 63t-36.5 52q-24 22 -55 35t-67 13
q-48 0 -87 -19.5t-66.5 -56.5t-42 -89.5t-14.5 -118.5q0 -131 53 -213q53 -80 154 -80q33 0 61.5 9t51.5 30t39 54.5t24 81.5h95z" />
    <glyph glyph-name="uni0422" unicode="&#x422;" horiz-adv-x="960" 
d="M526 -69h-92v657h-223v90h534v-90h-219v-657z" />
    <glyph glyph-name="uni0423" unicode="&#x423;" horiz-adv-x="960" 
d="M451 160q-63 131 -126 260.5t-126 262.5h98q12 -26 24 -52.5t25 -52.5l100 -208l50 -103l159 416h95q-63 -161 -124 -320.5t-124 -319.5q-12 -31 -23.5 -55t-25.5 -40q-14 -17 -34 -25.5t-50 -8.5q-18 0 -35.5 2t-44.5 11v101q28 -9 42.5 -11.5t27.5 -2.5q21 0 32 10
t24 43z" />
    <glyph glyph-name="uni0424" unicode="&#x424;" horiz-adv-x="960" 
d="M522 -72h-86v75q-146 10 -220 92q-72 82 -72 206q0 73 29 137t80 106q18 14 36 24.5t39.5 19t48 14t59.5 8.5v71h86v-71q144 -13 216.5 -94t72.5 -210q0 -131 -73 -213q-72 -83 -216 -90v-75zM522 88q92 6 147 66q26 29 41 67.5t15 83.5t-11.5 82.5t-36 66t-63 46.5
t-92.5 24v-436zM437 522q-102 -8 -153 -66t-51 -150q0 -94 50.5 -150t153.5 -68v434z" />
    <glyph glyph-name="uni0425" unicode="&#x425;" horiz-adv-x="960" 
d="M670 -69l-96 149l-96 150q-25 -38 -50 -75.5t-50 -74.5q-26 -38 -51 -75t-49 -74h-111l64 94l64 95l129 190l-61 92l-60 92q-60 91 -120 186h112q22 -36 45 -71.5t47 -70.5l92 -141q43 70 90 141q22 35 45 70.5t46 71.5h111q-30 -48 -60 -93t-59 -91q-30 -46 -60 -91.5
t-59 -91.5q31 -48 62.5 -95.5t63.5 -95.5q31 -48 62.5 -95.5t63.5 -95.5h-115z" />
    <glyph glyph-name="uni0426" unicode="&#x426;" horiz-adv-x="960" 
d="M739 -45q19 -24 42 -48q-10 -8 -19.5 -16t-18.5 -15q-20 -18 -37 -31q-18 19 -36 42q-9 10 -17.5 20.5t-17.5 21.5h-453v89h62v662h93v-662h269v662h92v-676z" />
    <glyph glyph-name="uni0427" unicode="&#x427;" horiz-adv-x="960" 
d="M705 -72h-93v298q-37 -33 -77 -47.5t-92 -14.5q-60 1 -100.5 16t-66 44.5t-36.5 74.5t-11 107v275h93v-274q0 -38 6 -65.5t21 -46t40.5 -28t64.5 -10.5q78 0 118 37.5t40 110.5v276h93v-753z" />
    <glyph glyph-name="uni0428" unicode="&#x428;" horiz-adv-x="960" 
d="M818 -70h-681v90h58v659h94v-659h144v659h96v-659h139v659h96v-659h54v-90z" />
    <glyph glyph-name="uni0429" unicode="&#x429;" horiz-adv-x="960" 
d="M755 -153q-13 21 -26 41.5t-25 41.5h-575v88h47v660h93v-660h165v660h94v-660h160v660h91v-691l12 -23l12 -22q6 -11 12.5 -22t13.5 -22z" />
    <glyph glyph-name="uni042A" unicode="&#x42a;" horiz-adv-x="960" 
d="M278 -69v657h-130v91h219v-296h188q109 0 166 -57.5t57 -169.5t-53.5 -168.5t-159.5 -56.5h-287zM556 17q130 0 130 133q0 69 -33.5 108.5t-94.5 39.5h-191v-281h189z" />
    <glyph glyph-name="uni042B" unicode="&#x42b;" horiz-adv-x="960" 
d="M777 -72h-93v754h93v-754zM183 -72v754h92v-298h127q103 0 158.5 -61t55.5 -175q0 -106 -57 -163t-160 -57h-216zM385 15q139 0 139 140q0 66 -36 103t-102 37h-111v-280h110z" />
    <glyph glyph-name="uni042C" unicode="&#x42c;" horiz-adv-x="960" 
d="M244 -71v754h91v-298h186q112 0 169.5 -57.5t57.5 -171.5q0 -111 -53 -169t-170 -58h-281zM494 16q86 0 124 29q37 30 37 113q0 69 -32.5 104.5t-104.5 35.5h-183v-282h159z" />
    <glyph glyph-name="uni042D" unicode="&#x42d;" horiz-adv-x="960" 
d="M291 184q17 -87 59.5 -126t117.5 -39q61 0 107 29.5t68 83.5q9 26 14.5 55t10.5 77q-27 -18 -43.5 -25.5t-29.5 -7.5q-20 0 -40 9.5t-39 21.5q-19 11 -36.5 21t-31.5 10t-32 -11t-49 -41l-9 20l-8 20q-5 9 -9 19t-8 21q42 35 67 48.5t49 13.5q19 0 40.5 -9.5t42.5 -20.5
q20 -11 38 -20t31 -9q11 0 26.5 7.5t39.5 25.5q-8 114 -56 173t-135 59q-75 0 -119 -40.5t-64 -125.5h-87q19 127 92 192t181 65q81 0 145 -41t96 -116q18 -45 27.5 -98t9.5 -107q0 -195 -75.5 -292t-215.5 -97q-110 0 -177 61t-86 194h88z" />
    <glyph glyph-name="uni042E" unicode="&#x42e;" horiz-adv-x="960" 
d="M218 -61h-90v736h90v-299h102q6 57 25 111.5t52 99.5q34 45 81.5 72t113.5 27q60 0 108.5 -27t83.5 -78q35 -49 54 -118t19 -154q0 -88 -19 -158t-53 -121q-35 -51 -83 -77t-106 -26q-57 0 -104.5 24t-83.5 70q-37 46 -60.5 112.5t-29.5 153.5h-100v-348zM590 16
q78 0 128 78q49 77 49 212q0 139 -48.5 214.5t-133.5 75.5q-38 0 -69.5 -21.5t-55.5 -59.5q-23 -38 -36 -90.5t-13 -115.5q0 -66 13 -120t36 -93q24 -38 57 -59t73 -21z" />
    <glyph glyph-name="uni042F" unicode="&#x42f;" horiz-adv-x="960" 
d="M721 -69h-89v333h-195q-33 0 -54.5 -7t-34.5 -25t-19.5 -49t-8.5 -79q-2 -38 -4 -62t-5 -43q-3 -18 -8 -33.5t-12 -34.5h-100q10 21 17 39.5t11 38.5t6 44t4 56q1 42 5 73.5t11 51.5q14 41 56 68q-45 25 -67 69.5t-22 104.5q0 94 49.5 148t137.5 54h322v-747zM632 353
v238h-218q-54 0 -83.5 -29t-29.5 -83q0 -58 31 -92t82 -34h218z" />
    <glyph glyph-name="uni0430" unicode="&#x430;" horiz-adv-x="960" 
d="M608 -58q-14 23 -15 31q-1 6 -1.5 11.5t-0.5 13.5q-39 -37 -80.5 -52t-93.5 -15q-81 0 -127.5 41.5t-46.5 116.5q0 45 14.5 75.5t42.5 50.5q29 20 70.5 31t98.5 18q66 7 89.5 20t23.5 39q0 30 -27 48.5t-75 18.5q-60 0 -89 -22.5t-34 -70.5h-95q6 93 62 137t153 44
q100 0 151 -40t51 -118v-267q0 -18 1 -32.5t4 -26.5t8.5 -24t14.5 -25zM540 50q43 30 45 97q0 8 0.5 16.5t0.5 16.5t0.5 16.5t0.5 17.5q-15 -8 -29 -13t-29 -8.5t-31.5 -5.5t-37.5 -5q-37 -5 -61.5 -12.5t-38.5 -18t-20 -24.5t-6 -32q0 -36 24 -55.5t69 -19.5q70 0 113 30z
" />
    <glyph glyph-name="uni0431" unicode="&#x431;" horiz-adv-x="960" 
d="M672 571q-30 -16 -46 -21.5t-33 -5.5q-24 0 -43 5t-34 12t-26.5 12.5t-18.5 5.5q-45 0 -70 -47.5t-34 -156.5q25 30 53.5 45t67.5 15q86 0 139 -68q52 -67 52 -179q0 -116 -54 -186q-52 -70 -143 -70q-50 0 -89 23.5t-66 68.5t-41.5 110t-14.5 147q0 29 2.5 61t7.5 69
t13.5 71t21.5 65q26 64 67 100q44 38 108 25q7 -1 21 -8l24 -12q13 -6 26 -11t25 -4q17 0 35.5 5t49.5 20v-91zM525 32q21 12 36 33.5t23.5 51t8.5 65.5q0 75 -29.5 120t-77.5 45q-24 0 -45.5 -12t-37 -33.5t-24.5 -52.5t-9 -68q0 -70 32 -116q33 -44 79 -44q24 0 44 11z
" />
    <glyph glyph-name="uni0432" unicode="&#x432;" horiz-adv-x="960" 
d="M266 -70v547h264q85 0 127.5 -37.5t42.5 -101.5q0 -39 -17 -69t-52 -49q48 -21 69.5 -53t21.5 -77q0 -160 -197 -160h-259zM508 251q21 0 39 6.5t31.5 17t21 24t7.5 27.5q0 30 -26.5 48.5t-78.5 18.5h-145v-142h151zM512 13q48 0 80.5 19t32.5 58q0 18 -9 32.5
t-24.5 24.5t-35.5 15.5t-41 5.5h-158v-155h155z" />
    <glyph glyph-name="uni0433" unicode="&#x433;" horiz-adv-x="960" 
d="M388 -69h-95v549h361l58 -107q-18 -13 -36 -26.5t-36 -26.5l-10 16l-9 16l-10 16l-9 17h-214v-454z" />
    <glyph glyph-name="uni0434" unicode="&#x434;" horiz-adv-x="960" 
d="M658 -153l-62 86h-265q-26 -33 -47 -50q-20 -17 -58 -37q-15 19 -26 38l-25 39q50 30 80 67q33 39 43 115q1 9 3.5 27.5t3.5 50.5q2 33 2.5 82.5t0.5 121.5h-38v88h431v-45q0 -11 0.5 -22t0.5 -21h-37v-389q15 -26 30 -47q15 -26 30 -47q-9 -8 -17.5 -15t-16.5 -14z
M581 21v366h-187q0 -63 -1 -109t-2 -80q-2 -34 -4.5 -58t-3.5 -42l-8 -45q-5 -28 -7 -32h213z" />
    <glyph glyph-name="uni0435" unicode="&#x435;" horiz-adv-x="960" 
d="M705 115q-26 -103 -81 -146.5t-142 -43.5q-112 0 -176 75q-65 77 -65 203q0 63 17 115.5t48 90.5q32 37 76 58t98 21q105 0 168 -81t57 -228h-370q3 -75 38 -118.5t110 -43.5q52 0 81.5 22t42.5 76h98zM612 266q-10 63 -43 96t-91 33t-92.5 -33.5t-46.5 -94.5
q34 0 68 -0.5t68 -0.5h137z" />
    <glyph glyph-name="uni0436" unicode="&#x436;" horiz-adv-x="960" 
d="M660 -65q-15 52 -18 90t-5 65t-8 44t-27 27q-8 3 -13 4.5t-13 2.5l-52 5v-238h-88v238q-32 -2 -54 -6t-36 -14t-21 -28t-8 -49q0 -32 -0.5 -53.5t-1.5 -37.5q-2 -15 -4.5 -26.5t-7.5 -23.5h-102q17 31 21.5 55.5t6.5 54.5q1 43 5 72.5t14 49.5q9 21 26 34.5t44 25.5
q-22 18 -29.5 38t-10.5 40q-2 11 -4.5 25.5t-10.5 27.5q-7 13 -21 22t-37 9v94q74 -7 107.5 -35t42.5 -90q4 -27 9 -45.5t13 -28.5q8 -11 22 -15.5t37 -4.5v220h88v-221q28 2 43 10.5t22 21.5q8 12 10.5 29.5t6.5 38.5q4 30 11.5 50.5t22.5 33.5q16 14 43 22.5t72 14.5v-95
q-35 -3 -47.5 -19.5t-18.5 -40.5t-12 -51.5t-27 -51.5q45 -21 63 -53t21 -86q2 -29 3 -47.5t3 -34.5t6 -32t13 -38h-99z" />
    <glyph glyph-name="uni0437" unicode="&#x437;" horiz-adv-x="960" 
d="M434 166l-2 90q6 0 10.5 -0.5t11.5 -0.5h45q45 0 72 20.5t27 52.5q0 33 -31 53t-88 20q-63 0 -103 -24.5t-58 -78.5h-69v120q12 -5 23 -9.5t23 -8.5q33 48 77.5 69t110.5 21q95 0 153 -43q59 -44 59 -115q0 -37 -15.5 -63.5t-53.5 -50.5q49 -24 69.5 -53t20.5 -74
q0 -39 -16.5 -70t-46 -52t-71.5 -32.5t-93 -11.5q-101 0 -165 47t-79 152h96q13 -60 50 -83t100 -23t96.5 19.5t33.5 55.5q0 32 -31.5 52.5t-85.5 20.5h-70z" />
    <glyph glyph-name="uni0438" unicode="&#x438;" horiz-adv-x="960" 
d="M706 -69h-88v376q-34 -48 -67.5 -94t-66.5 -94t-66.5 -95t-66.5 -93h-90v545h88v-393l273 393h84v-545z" />
    <glyph glyph-name="uni0439" unicode="&#x439;" horiz-adv-x="960" 
d="M703 -70h-88v377q-67 -96 -134 -189.5t-133 -187.5h-90v546h89v-394l68 98l68 99l68 98l69 99h83v-546zM639 650q-14 -85 -53.5 -123t-103.5 -38q-31 0 -56.5 8t-45.5 26.5t-33.5 49.5t-20.5 77h84q7 -40 25 -57t48 -17t48 17t26 57h82z" />
    <glyph glyph-name="uni043A" unicode="&#x43a;" horiz-adv-x="960" 
d="M620 -69q-14 24 -27.5 48.5t-26.5 49.5l-52 98q-22 36 -50 36h-90v-232h-89v545h89v-217h80q30 0 46.5 20t32.5 76q10 37 21.5 61t29.5 39q19 14 47 20t73 8v-99q-25 -1 -40 -4t-25 -11t-16 -23t-12 -40q-5 -20 -9 -33t-9.5 -22.5t-12.5 -17.5t-16 -17q19 -36 38.5 -71.5
t39.5 -71.5t39.5 -71.5t39.5 -70.5h-101z" />
    <glyph glyph-name="uni043B" unicode="&#x43b;" horiz-adv-x="960" 
d="M663 -65h-90v460h-180q0 -109 -6 -183t-22 -128q-17 -54 -46.5 -91t-77.5 -70l-48 84q30 20 51 47t34 67t19.5 95.5t6.5 136.5v42h-65v88h485v-88h-61v-460z" />
    <glyph glyph-name="uni043C" unicode="&#x43c;" horiz-adv-x="960" 
d="M685 -70q-4 46 -7.5 92t-6.5 94l-13 187q-18 -48 -35.5 -93.5t-34.5 -93.5q-18 -48 -35 -94l-34 -92h-75q-19 48 -37.5 96t-36.5 96l-73 193q-4 -48 -7 -96.5t-6 -96.5q-2 -24 -3.5 -48t-3.5 -48l-6 -96h-88q9 138 17 273.5t17 274.5h103q19 -54 39 -105.5t40 -102.5
l80 -208q19 52 38.5 104t38.5 104q20 51 39 102.5t39 105.5h101q9 -139 19 -274.5t21 -273.5h-90z" />
    <glyph glyph-name="uni043D" unicode="&#x43d;" horiz-adv-x="960" 
d="M702 -71h-91v239h-266v-239h-91v548h91v-213h266v213h91v-548z" />
    <glyph glyph-name="uni043E" unicode="&#x43e;" horiz-adv-x="960" 
d="M657 8q-32 -37 -76 -57.5t-98 -20.5t-98 21t-76 58q-33 37 -51 87.5t-18 110.5q0 67 20.5 119t53.5 86q34 35 77.5 53t89.5 18q51 0 95 -18.5t77 -53.5q34 -35 53.5 -86.5t19.5 -117.5q0 -60 -18 -111t-51 -88zM482 23q66 0 108 51q42 52 42 134q0 40 -11 73.5t-31 57.5
t-47.5 37.5t-60.5 13.5t-60.5 -13t-47 -36t-30 -56.5t-10.5 -73.5q0 -42 10.5 -76.5t30 -59.5t47 -38.5t60.5 -13.5z" />
    <glyph glyph-name="uni043F" unicode="&#x43f;" horiz-adv-x="960" 
d="M664 -68h-89v453h-191v-453h-89v453h-54v93h476v-93h-53v-453z" />
    <glyph glyph-name="uni0440" unicode="&#x440;" horiz-adv-x="960" 
d="M354 -200h-90v679h90v-66q33 38 68.5 55.5t77.5 17.5q91 0 151 -69q28 -34 45 -84.5t17 -116.5q0 -126 -60 -198q-59 -72 -153 -72q-43 0 -78 16t-68 55v-217zM488 39q60 0 96 46.5t36 128.5q0 85 -36 132.5t-96 47.5t-96 -48.5t-36 -129.5q0 -87 34.5 -132t97.5 -45z
" />
    <glyph glyph-name="uni0441" unicode="&#x441;" horiz-adv-x="960" 
d="M705 135q-13 -94 -68.5 -149t-155.5 -57q-54 0 -98 20t-76 56q-31 36 -48.5 86.5t-17.5 111.5t18 112.5t52 88.5q33 37 78.5 58t102.5 21q89 0 147 -52q57 -52 62 -139h-89q-9 45 -41 69.5t-83 24.5q-69 0 -110.5 -49.5t-41.5 -133.5q0 -85 40 -131.5t109 -46.5
q54 0 84 26t42 84h94z" />
    <glyph glyph-name="uni0442" unicode="&#x442;" horiz-adv-x="960" 
d="M527 -71h-95v453h-177v97h450v-97h-178v-453z" />
    <glyph glyph-name="uni0443" unicode="&#x443;" horiz-adv-x="960" 
d="M503 -47q-17 -42 -30 -67.5t-27 -39.5t-32 -19t-44 -5q-17 0 -33.5 2.5t-44.5 8.5v107q6 -2 20 -6t30 -6q15 -2 29 0.5t22 14.5l9 18q7 13 27 60q-24 55 -48.5 111t-48.5 113l-96 224h103q36 -82 71.5 -164t71.5 -163l129 327h104l-106 -259z" />
    <glyph glyph-name="uni0444" unicode="&#x444;" horiz-adv-x="960" 
d="M434 360q-30 20 -51 28.5t-43 8.5q-60 0 -95 -51t-35 -138q0 -90 34.5 -141t94.5 -51q25 0 46 8.5t49 31.5v304zM522 58q20 -23 40.5 -33t47.5 -10q63 0 101 50t38 137q0 34 -6 68t-21 62q-15 27 -40 45t-64 20q-29 0 -49.5 -8t-46.5 -29v-302zM520 -145h-86v105
q-24 -18 -46.5 -24.5t-48.5 -6.5q-48 0 -86.5 20.5t-67.5 57.5t-45 87t-16 110t16 111t45 87q29 37 69.5 58t88.5 21q27 0 47.5 -7t44.5 -22v103h86v-106q27 18 49 25.5t50 7.5q48 0 87 -20t67 -56q28 -35 44 -84t16 -109q0 -151 -77 -224q-28 -29 -64 -44.5t-75 -15.5
q-28 0 -51 7.5t-47 25.5v-107z" />
    <glyph glyph-name="uni0445" unicode="&#x445;" horiz-adv-x="960" 
d="M612 -68q-17 24 -33.5 48t-33.5 48t-33.5 48t-32.5 49q-17 -25 -34 -49t-35 -48l-68 -96h-115l98 138q25 34 49.5 69t49.5 70q-24 33 -47 66t-47 67l-93 133h113q16 -23 32.5 -46t32.5 -46t32.5 -46t33.5 -45q30 45 61 91t63 92h113q-23 -34 -46 -67.5t-45 -66.5
q-23 -34 -46 -67.5t-45 -66.5q48 -71 96 -138q24 -35 48.5 -69t48.5 -68h-117z" />
    <glyph glyph-name="uni0446" unicode="&#x446;" horiz-adv-x="960" 
d="M724 -100q-9 -8 -18.5 -15t-18.5 -14l-18 -15l-18 -14q-17 23 -28 44l-28 44h-359v96h53v449h89v-449h198v449h91v-479z" />
    <glyph glyph-name="uni0447" unicode="&#x447;" horiz-adv-x="960" 
d="M675 -70h-95v203q-30 -23 -62.5 -33t-77.5 -10q-112 0 -152 60q-41 61 -41 177v148h94v-176q0 -60 23.5 -86t80.5 -26q61 0 98 23t37 74v191h95v-545z" />
    <glyph glyph-name="uni0448" unicode="&#x448;" horiz-adv-x="960" 
d="M770 -68h-586v92h48v445h91v-445h110v445h90v-445h110v445h91v-445h46v-92z" />
    <glyph glyph-name="uni0449" unicode="&#x449;" horiz-adv-x="960" 
d="M744 -132l-36 -24l-51 87h-470v94h56v444h88v-444h109v444h90v-444h111v444h89v-482q12 -24 25 -47.5t26 -47.5z" />
    <glyph glyph-name="uni044A" unicode="&#x44a;" horiz-adv-x="960" 
d="M331 -69v456h-127v90h217v-185h136q81 0 128.5 -48t47.5 -133q0 -42 -12.5 -75t-35 -56.5t-54 -36t-68.5 -12.5h-232zM552 22q42 0 65.5 22.5t23.5 62.5q0 42 -24.5 67t-63.5 25h-132v-177h131z" />
    <glyph glyph-name="uni044B" unicode="&#x44b;" horiz-adv-x="960" 
d="M742 -71h-89v550h89v-550zM215 -71v550h91v-187h126q37 0 68 -13t53.5 -36t34.5 -56.5t12 -73.5q0 -85 -45.5 -134.5t-123.5 -49.5h-216zM413 21q45 0 68.5 23.5t23.5 65.5t-24.5 66.5t-69.5 24.5h-105v-180h107z" />
    <glyph glyph-name="uni044C" unicode="&#x44c;" horiz-adv-x="960" 
d="M287 -72v552h90v-188h173q78 0 122 -48.5t44 -133.5t-45.5 -133.5t-121.5 -48.5h-262zM530 18q48 0 71 23t23 65q0 45 -24 70.5t-72 25.5h-151v-184h153z" />
    <glyph glyph-name="uni044D" unicode="&#x44d;" horiz-adv-x="960" 
d="M350 107q21 -49 49 -70t73 -21q63 0 98 36t42 114q-18 -10 -28 -13t-19 -3q-14 0 -28 7t-29 16t-31 17t-34 10q-12 0 -26.5 -9.5t-38.5 -39.5q-4 10 -7.5 20t-6.5 21q-3 10 -6.5 20t-6.5 21q26 26 47.5 39.5t42.5 13.5q15 0 33.5 -7.5t36.5 -15.5q18 -9 34 -16t27 -7
q7 0 17 3.5t26 12.5q-7 69 -44.5 107.5t-98.5 38.5q-92 0 -121 -92h-89q18 88 74 134t132 46q55 0 98.5 -19.5t73.5 -55.5t46 -88t16 -116q0 -66 -15.5 -118.5t-44.5 -89.5t-71 -56.5t-96 -19.5q-39 0 -71.5 9t-59 30t-47.5 55.5t-36 85.5h89z" />
    <glyph glyph-name="uni044E" unicode="&#x44e;" horiz-adv-x="960" 
d="M274 -71h-89v543h89v-215h112q6 43 22.5 84t44.5 73q27 32 63.5 51.5t84.5 19.5t87.5 -21t68.5 -58q28 -38 44 -89t16 -112q0 -64 -16 -117t-44 -92q-29 -38 -68.5 -59t-87.5 -21q-88 0 -146 65t-70 188h-111v-240zM601 8q55 0 93 54q38 56 38 141q0 42 -10 77t-27 60
t-41.5 39t-52.5 14q-29 0 -52.5 -13.5t-40.5 -38.5t-26.5 -60.5t-9.5 -78.5q0 -91 35.5 -142.5t93.5 -51.5z" />
    <glyph glyph-name="uni044F" unicode="&#x44f;" horiz-adv-x="960" 
d="M687 -70h-90v227h-168q-38 -2 -53.5 -21.5t-20.5 -50.5q-5 -32 -7 -72.5t-14 -82.5h-102q9 22 13 39t8 43q7 52 10 83.5t9 50.5q5 20 16 31.5t35 25.5q-37 16 -54 46t-17 72q0 81 47 119.5t122 38.5h266v-549zM597 249v139h-177q-36 0 -55.5 -19t-19.5 -52
q0 -31 21 -49.5t56 -18.5h175z" />
    <glyph glyph-name="uni0451" unicode="&#x451;" horiz-adv-x="960" 
d="M615 588q0 -29 -19 -47t-43 -18q-23 0 -42 19t-19 46q0 28 19 46t43 18q23 0 42 -18t19 -46zM452 588q0 -29 -19.5 -47t-42.5 -18q-24 0 -43 19t-19 46t19 45.5t43 18.5q23 0 42.5 -18.5t19.5 -45.5zM707 114q-24 -100 -80 -145t-144 -45q-57 0 -100.5 19.5t-75.5 55.5
q-31 37 -47.5 88t-16.5 114q0 64 17 116.5t48 89.5q31 38 75.5 58.5t98.5 20.5q57 0 100.5 -23t72.5 -63q28 -42 41.5 -97.5t10.5 -124.5h-370q3 -79 40.5 -120.5t106.5 -41.5q54 0 83 22t42 76h98zM613 265q-18 126 -133 126t-139 -126h272z" />
    <glyph glyph-name="uni2015" unicode="&#x2015;" horiz-adv-x="960" 
d="M931 286h-900v53h900v-53z" />
    <glyph glyph-name="quoteleft" unicode="&#x2018;" horiz-adv-x="247" 
d="M168 535q-8 -10 -20.5 -15.5t-27.5 -4.5q-24 2 -37.5 18.5t-10.5 44.5q2 20 8.5 42t15.5 42.5t19.5 38.5t20.5 32q12 16 29 19t30.5 -4t19.5 -22t-4 -34q-14 -25 -22 -50.5t-11 -57.5q4 -14 1 -26.5t-11 -22.5z" />
    <glyph glyph-name="quoteright" unicode="&#x2019;" horiz-adv-x="247" 
d="M57 568q8 26 11 58q-4 13 -1 26t11 22.5t20.5 15.5t27.5 5q24 -2 37.5 -18.5t10.5 -44.5q-2 -20 -8.5 -42t-15.5 -42.5t-19.5 -39t-20.5 -31.5q-12 -17 -29 -19.5t-30.5 4.5t-19.5 22t4 34q14 25 22 50z" />
    <glyph glyph-name="quotedblleft" unicode="&#x201c;" horiz-adv-x="457" 
d="M166 535q-7 -10 -19 -15.5t-27 -4.5q-24 2 -37.5 18.5t-10.5 44.5q2 20 8.5 42t15.5 42.5t19.5 38.5t20.5 32q12 16 28.5 19t29.5 -4t18.5 -22t-4.5 -34q-14 -25 -22 -50.5t-11 -57.5q4 -14 1.5 -26.5t-10.5 -22.5zM366 535q-7 -10 -19 -15.5t-27 -4.5q-24 2 -37.5 18.5
t-10.5 44.5q2 20 8.5 42t15.5 42.5t19.5 38.5t20.5 32q12 16 28.5 19t29.5 -4t18.5 -22t-4.5 -34q-14 -25 -22 -50.5t-11 -57.5q4 -14 1.5 -26.5t-10.5 -22.5z" />
    <glyph glyph-name="quotedblright" unicode="&#x201d;" horiz-adv-x="457" 
d="M271 567q8 26 11 58q-4 13 -1.5 26t10 22.5t19.5 15.5t27 5q24 -2 37.5 -18.5t10.5 -44.5q-2 -20 -8.5 -42t-15.5 -42.5t-19.5 -39t-20.5 -31.5q-12 -17 -28.5 -19.5t-29.5 4.5t-18.5 22t4.5 34q14 25 22 50zM71 567q8 26 11 58q-4 13 -1.5 26t10 22.5t19.5 15.5t27 5
q24 -2 37.5 -18.5t10.5 -44.5q-2 -20 -8.5 -42t-15.5 -42.5t-19.5 -39t-20.5 -31.5q-12 -17 -28.5 -19.5t-29.5 4.5t-18.5 22t4.5 34q14 25 22 50z" />
    <glyph glyph-name="dagger" unicode="&#x2020;" horiz-adv-x="960" 
d="M516 -136h-80v554h-213v77h213v238h80v-238h211v-77h-211v-554z" />
    <glyph glyph-name="daggerdbl" unicode="&#x2021;" horiz-adv-x="960" 
d="M513 -133h-79v504h-196v76h196v85h-214v76h214v128h79v-128h217v-76h-217v-85h199v-76h-199v-504z" />
    <glyph glyph-name="twodotenleader" unicode="&#x2025;" horiz-adv-x="960" 
d="M770 324q0 -33 -21 -53t-54 -20q-30 0 -50 20.5t-20 52.5t20.5 52t54.5 20q29 0 49.5 -21t20.5 -51zM335 324q0 -33 -21 -53t-54 -20q-30 0 -50 20.5t-20 52.5t20.5 52t54.5 20q30 0 50 -21t20 -51z" />
    <glyph glyph-name="ellipsis" unicode="&#x2026;" horiz-adv-x="960" 
d="M826 329q0 -28 -17 -45t-46 -17q-27 0 -44 17.5t-17 44.5t17.5 44.5t47.5 17.5q26 0 42.5 -17.5t16.5 -44.5zM537 329q0 -28 -17.5 -45t-46.5 -17q-27 0 -44 17.5t-17 44.5t17.5 44.5t47.5 17.5q26 0 43 -17.5t17 -44.5zM248 329q0 -28 -18 -45t-47 -17q-26 0 -43 17.5
t-17 44.5t17.5 44.5t46.5 17.5q26 0 43.5 -17.5t17.5 -44.5z" />
    <glyph glyph-name="perthousand" unicode="&#x2030;" horiz-adv-x="960" 
d="M164 319q-29 2 -51 19q-23 16 -33 42t-9 57t13 64t33 63t49 51.5t58 31.5q29 11 58 9.5t52 -16.5q23 -16 33 -42t9 -57q-1 -32 -12.5 -65.5t-31.5 -63.5q-21 -30 -49.5 -51.5t-58.5 -32.5q-30 -10 -60 -9zM107 -77h-75l559 751h75zM140 405q4 -14 15 -20q20 -14 54 2.5
t67 64.5q30 45 35 84t-15 54q-21 14 -56.5 -2.5t-67.5 -62.5q-15 -23 -23.5 -45t-10.5 -41t2 -34zM392 -71q-29 1 -51 18q-23 16 -33 42t-9 57t13 64t33 63t49 51.5t58 31.5q29 11 58 9.5t52 -16.5q23 -16 33 -42t9 -57q-1 -32 -12.5 -65.5t-31.5 -63.5q-21 -30 -49.5 -51.5
t-58.5 -32.5q-30 -10 -60 -8zM368 14q4 -14 15 -20q20 -14 54 2.5t67 64.5q30 45 35 84t-15 54q-21 14 -56.5 -2.5t-67.5 -62.5q-15 -23 -23.5 -45t-10.5 -41t2 -34zM704 -71q-29 1 -51 18q-23 16 -33 42t-9 57t13 64t33 63t49 51.5t58 31.5q29 11 58 9.5t52 -16.5
q23 -16 33 -42t9 -57q-1 -32 -12.5 -65.5t-31.5 -63.5q-21 -30 -49.5 -51.5t-58.5 -32.5q-30 -10 -60 -8zM680 14q4 -14 15 -20q20 -14 54 2.5t67 64.5q30 45 35 84t-15 54q-21 14 -56.5 -2.5t-67.5 -62.5q-15 -23 -23.5 -45t-10.5 -41t2 -34z" />
    <glyph glyph-name="minute" unicode="&#x2032;" horiz-adv-x="480" 
d="M161 578q0 2 2 6q7 19 14.5 38t15.5 39q7 19 14.5 38t15.5 39q5 12 17 21.5t25 9.5q18 0 27.5 -14t9.5 -24q0 -11 -5 -23.5t-12 -24.5q-8 -14 -23.5 -35.5t-31.5 -42.5q-17 -20 -31.5 -35t-20.5 -15q-7 0 -12 4.5t-5 13.5v5z" />
    <glyph glyph-name="second" unicode="&#x2033;" horiz-adv-x="480" 
d="M262 541q-11 -16 -27 -8q-15 8 -7 25l68 167q7 18 27.5 26.5t36.5 -1.5q18 -11 21 -32.5t-9 -36.5zM129 560q-11 -16 -27 -8q-15 8 -7 25l67 167q3 9 10.5 16t16.5 11t19 4t19 -6q18 -10 20 -32t-11 -37z" />
    <glyph glyph-name="uni203B" unicode="&#x203b;" horiz-adv-x="960" 
d="M852 320q0 -29 -19.5 -47.5t-48.5 -18.5q-27 0 -46.5 18.5t-19.5 46.5q0 27 18.5 47t47.5 20q28 0 48 -19t20 -47zM241 320q0 -29 -19.5 -47.5t-46.5 -18.5q-29 0 -48.5 18.5t-19.5 46.5q0 27 19 47t49 20q26 0 46 -19t20 -47zM527 578q-18 -19 -47 -19q-28 0 -48 19
t-20 48q0 27 19 47t49 20q27 0 46.5 -20t19.5 -47q0 -29 -19 -48zM527 -34q-18 -19 -47 -19q-28 0 -48 19t-20 48q0 27 19 46.5t49 19.5q27 0 46.5 -19t19.5 -46q0 -30 -19 -49zM842 4l-48 -47l-314 314l-316 -314l-47 47l313 316l-313 315l47 48l316 -314l314 314l48 -48
l-314 -315z" />
    <glyph glyph-name="uni2074" unicode="&#x2074;" horiz-adv-x="480" 
d="M215 500h-43v51h-131v44l134 186h40v-190h44v-40h-44v-51zM172 591v121l-44 -61l-22 -30l-21 -30h87z" />
    <glyph glyph-name="uni207F" unicode="&#x207f;" horiz-adv-x="480" 
d="M253 489h-42v161q0 45 -14 61t-41 16q-26 0 -50 -26q-11 -11 -18.5 -25.5t-7.5 -29.5v-157h-42v270h40v-31q16 18 39 29t50 11q22 0 38 -10t27 -24q10 -14 15.5 -31t5.5 -32v-182z" />
    <glyph glyph-name="uni2081" unicode="&#x2081;" horiz-adv-x="480" 
d="M173 -90h-42v211h-60v32q25 0 46 9t21 39h35v-291z" />
    <glyph glyph-name="uni2082" unicode="&#x2082;" horiz-adv-x="480" 
d="M241 -86h-205q0 33 16 62t59 57l46 30q15 10 25 23t10 29q0 21 -12.5 34t-36.5 13q-32 0 -42.5 -16.5t-10.5 -39.5h-45q0 33 24 65q24 31 74 31q48 0 72 -27t24 -60q0 -18 -6 -31t-14.5 -23t-18.5 -17t-19 -13q-11 -7 -24.5 -15.5t-26.5 -17.5q-13 -10 -24 -21t-15 -23
h150v-40z" />
    <glyph glyph-name="uni2083" unicode="&#x2083;" horiz-adv-x="480" 
d="M84 3q0 -21 13 -38t46 -17q25 0 40 15.5t15 36.5t-18.5 32t-39.5 11h-22v40q36 0 54 9.5t18 33.5q0 15 -12.5 25.5t-36.5 10.5t-38 -12t-13 -36h-45q0 43 27.5 65.5t69.5 22.5q19 0 36.5 -5.5t30.5 -15.5t20.5 -24t7.5 -31q0 -23 -11 -38.5t-20 -21.5q17 -10 28.5 -26.5
t11.5 -40.5q0 -39 -28.5 -65.5t-74.5 -26.5q-45 0 -75 25.5t-30 65.5v5h46z" />
    <glyph glyph-name="uni2084" unicode="&#x2084;" horiz-adv-x="480" 
d="M215 -80h-43v52h-131v43l134 186h40v-190h44v-39h-44v-52zM172 11v121l-44 -61l-22 -30l-21 -30h87z" />
    <glyph glyph-name="Euro" unicode="&#x20ac;" horiz-adv-x="960" 
d="M575 127h-187q22 -79 75.5 -119t134.5 -40q48 0 80 10.5t59 29.5q10 -15 21 -30t22 -29q-33 -25 -86 -40.5t-108 -15.5q-107 0 -189 60t-115 174h-112v81h96q-3 33 -3 66.5t4 68.5h-96v81h112q31 116 115 185q82 67 191 67q54 0 102 -14t73 -35q-11 -15 -21.5 -32
t-21.5 -31q-26 17 -56 26.5t-75 9.5q-78 0 -130.5 -42.5t-76.5 -133.5h222v-81h-235q-3 -33 -2.5 -66.5t3.5 -68.5h204v-81z" />
    <glyph glyph-name="uni2103" unicode="&#x2103;" horiz-adv-x="960" 
d="M821 25q-14 -24 -35 -49.5t-50 -46.5t-66 -34.5t-82 -13.5q-69 0 -125 26t-98 74q-40 48 -62 116.5t-22 155.5q0 85 21.5 154t60.5 120t93.5 79t120.5 28q45 0 83.5 -13t68.5 -32q30 -20 51 -43.5t33 -45.5l-64 -35q-24 31 -63 60q-39 30 -100 30q-47 0 -84.5 -20
t-64.5 -58.5t-41.5 -93t-14.5 -123.5t14 -124.5t41 -94t65.5 -59t86.5 -20.5q31 0 57 8.5t47 22t37 31t28 35.5q7 -5 15 -9t17 -8l16 -9zM271 533q-34 -34 -81 -34q-48 0 -82 34t-34 82q0 47 34 81t82 34q47 0 81 -34q35 -35 35 -81q0 -47 -35 -82zM233 571q18 17 18 44
q0 26 -17.5 43t-43.5 17q-27 0 -44 -17t-17 -43q0 -27 17 -44t44 -17q26 0 43 17z" />
    <glyph glyph-name="uni2109" unicode="&#x2109;" horiz-adv-x="960" 
d="M761 218h-314v-301h-83v684h439v-80h-356v-222h314v-81zM276 533q-34 -34 -81 -34q-48 0 -82 34t-34 82q0 47 34 81t82 34q47 0 81 -34t34 -81q0 -48 -34 -82zM236 572q18 17 18 43q0 24 -17.5 41.5t-41.5 17.5q-26 0 -43 -17.5t-17 -41.5q0 -26 17 -43t43 -17
q24 0 41 17z" />
    <glyph glyph-name="uni2113" unicode="&#x2113;" horiz-adv-x="960" 
d="M664 4q-24 -48 -50.5 -73t-60.5 -35t-75 9t-73 68q-17 -10 -46 -19t-53 -10l-27 79q15 1 41 5t47 15q-30 69 -39 147t-6 163q2 73 16 136t38 111q23 48 54.5 75.5t67.5 30.5q39 2 66 -25t42 -76t18 -116.5t-6 -145.5q-9 -65 -23.5 -117t-33 -93.5t-39.5 -71.5t-42 -50
q16 -27 34.5 -33t34.5 3q32 14 55 73zM412 445q-8 -47 -9 -93q-2 -39 0.5 -79.5t6.5 -76.5q5 -37 12 -67t16 -47q39 42 65.5 111t35.5 157q4 45 5.5 94t-2.5 89q-4 39 -15 64.5t-31 25.5q-19 -2 -35 -27t-29 -64q-12 -39 -20 -87z" />
    <glyph glyph-name="uni2116" unicode="&#x2116;" horiz-adv-x="960" 
d="M921 -6q0 -24 -16 -40t-37 -16t-36.5 16t-15.5 40q0 21 15.5 39t36.5 18t37 -18t16 -39zM492 282q12 44 34 77q23 32 55.5 51.5t75.5 19.5q42 0 74.5 -19.5t55.5 -51.5q22 -33 34 -76.5t12 -92.5q0 -51 -12 -94t-34 -75q-23 -33 -55.5 -51.5t-74.5 -18.5
q-43 0 -75.5 18.5t-55.5 51.5q-22 32 -33.5 75t-11.5 94q0 49 11 92zM448 -41h-81l-235 555v-555h-68v690h82l235 -554v554h67v-690zM702 33q21 13 35.5 35.5t22 54t7.5 67.5q0 71 -30 121q-29 50 -80 50q-52 0 -81 -50q-28 -49 -28 -121q0 -36 7 -67.5t21 -54t34 -35.5
t47 -13q25 0 45 13z" />
    <glyph glyph-name="uni2121" unicode="&#x2121;" horiz-adv-x="960" 
d="M876 -47h-72v638h72v-638zM738 71q-8 -25 -22 -48.5t-36 -41.5q-22 -19 -52 -30t-70 -11q-45 0 -80 17t-60 47q-26 30 -39.5 70.5t-13.5 86.5q0 45 13.5 85.5t38.5 70.5t60 48t80 18q40 0 75.5 -15.5t61.5 -45.5q26 -31 41.5 -76t15.5 -105h-314q1 -32 12 -58t28 -44
q36 -38 81 -38t70.5 20.5t34.5 49.5h75zM309 -48h-72v574h-178v64h427v-64h-177v-574zM675 201q-4 53 -37 87.5t-81 34.5q-45 0 -78 -32.5t-39 -89.5h235z" />
    <glyph glyph-name="trademark" unicode="&#x2122;" horiz-adv-x="960" 
d="M816 279h-54l-1 273l-96 -273h-44l-99 266v-266h-54v361h76l98 -263l91 263h83v-361zM313 279h-58v314h-122v47h300v-47h-120v-314z" />
    <glyph glyph-name="Omega" unicode="&#x2126;" horiz-adv-x="960" 
d="M707 -69h-174q-21 0 -26 14t-5 31v103q0 27 7 40t18 17q63 18 100 76t37 157q0 108 -53 173t-139 65q-43 0 -78 -17.5t-60 -49.5t-38.5 -76t-13.5 -98q0 -91 31.5 -146.5t97.5 -83.5q15 -3 22 -13t10 -22q3 -11 3 -21v-13q0 -1 -0.5 -12t-0.5 -27t-0.5 -34.5t-0.5 -32.5
q0 -12 -6.5 -21t-21.5 -9h-169v74h125v58q-38 13 -69.5 39.5t-55 65t-36.5 87.5t-13 109q-1 66 19.5 124.5t57.5 103.5q36 45 86.5 70.5t110.5 25.5t110 -24.5t86 -67.5t56.5 -101t20.5 -127q0 -57 -14 -106t-38 -88q-23 -39 -54 -67t-65 -41v-61h133v-74z" />
    <glyph glyph-name="uni212B" unicode="&#x212b;" horiz-adv-x="960" 
d="M361 665q0 46 33 81q34 34 82 34q47 0 81 -34q35 -35 35 -81q0 -47 -35 -82q-35 -33 -81 -33q-24 0 -45 9t-36.5 24.5t-24.5 36.5t-9 45zM766 -99h-87l-61 153h-286l-61 -153h-86l246 622h89zM517 622q18 17 18 43q0 25 -17.5 42t-41.5 17q-25 0 -42 -17t-17 -42
q0 -26 17 -42.5t42 -16.5q24 0 41 16zM590 128l-114 295l-115 -295h229z" />
    <glyph glyph-name="onethird" unicode="&#x2153;" horiz-adv-x="960" 
d="M145 -145l-54 40l669 816l54 -38zM616 -34q-3 -33 18.5 -57t66.5 -24q39 0 61 20.5t23 52.5q1 22 -14.5 40t-39.5 24q-8 1 -16.5 2t-16.5 1q-4 1 -8 1h-8h-15v57q17 0 35 1.5t31 7.5q37 17 41 59q0 23 -18.5 42t-54.5 19q-42 0 -59 -22t-16 -50h-68q-3 60 40 94
q44 35 103 35q61 0 102 -35q40 -34 40 -83q0 -20 -5.5 -35.5t-14 -27t-18 -20t-17.5 -12.5q28 -13 49 -39.5t21 -59.5q0 -55 -44 -93t-112 -38t-114 39q-45 39 -42 101h70zM307 329h-69v290h-93v57q21 0 41 4.5t35 14.5q11 7 20 21.5t9 32.5h57v-420z" />
    <glyph glyph-name="twothirds" unicode="&#x2154;" horiz-adv-x="960" 
d="M160 -145l-54 40l670 816l52 -38zM705 21q-4 1 -8 1h-8h-32v57q18 0 35.5 2t30.5 8q18 8 28.5 22.5t11.5 36.5t-17.5 41.5t-54.5 19.5q-42 0 -59 -22.5t-15 -49.5l-69 -1q-3 60 40 94q44 35 104 35q61 0 102 -35q40 -34 40 -82q0 -20 -5.5 -35.5t-14 -27.5t-18 -20
t-18.5 -12q29 -13 49 -39.5t20 -59.5q0 -29 -11.5 -53t-32 -41t-49 -27t-61.5 -10q-68 0 -114 39q-45 39 -43 101l70 -1q-3 -33 19 -56.5t67 -23.5q38 0 60.5 20.5t24.5 52.5q0 22 -16 39.5t-40 24.5zM381 327h-300q0 45 22 92t79 83l75 48q21 14 37.5 34t16.5 49
q0 30 -18.5 51t-54.5 21q-43 0 -62 -26t-18 -59h-69q0 25 9 50.5t28 45.5t46.5 33t65.5 13q35 0 61.5 -10.5t44.5 -28.5t27.5 -41.5t9.5 -49.5q0 -52 -28 -81q-14 -14 -27.5 -26t-27.5 -21q-4 -3 -16.5 -11t-27.5 -18t-28.5 -20t-19.5 -14q-17 -13 -28.5 -28t-14.5 -29h218
v-57z" />
    <glyph glyph-name="oneeighth" unicode="&#x215b;" horiz-adv-x="960" 
d="M304 328h-69v290h-92v57q21 0 41 4.5t35 14.5q11 7 19.5 21t8.5 32h57v-419zM551 12q20 28 59 47q-63 37 -63 93q0 47 43 80t106 33t107 -33t44 -80q0 -55 -63 -92q78 -43 78 -107q0 -26 -13 -48.5t-35 -39.5q-48 -37 -118 -37q-72 0 -117 37q-22 17 -34.5 39.5
t-12.5 48.5q0 32 19 59zM753 104q21 17 21 44q0 25 -20.5 42.5t-57.5 17.5q-38 0 -57 -17.5t-19 -42.5q0 -27 19 -44t57 -17q37 0 57 17zM764 -95q25 20 25 51q0 30 -25 51t-68 21q-42 0 -66 -21t-24 -51q0 -31 24 -51t66 -20q43 0 68 20zM174 -145l-54 40l670 816l53 -38z
" />
    <glyph glyph-name="threeeighths" unicode="&#x215c;" horiz-adv-x="960" 
d="M551 12q20 28 59 47q-63 37 -63 93q0 47 43 80t106 33t107 -33t44 -80q0 -55 -63 -92q78 -43 78 -107q0 -26 -13 -48.5t-35 -39.5q-48 -37 -118 -37q-72 0 -117 37q-22 17 -34.5 39.5t-12.5 48.5q0 32 19 59zM174 -145l-54 40l670 816l53 -38zM271 515q-4 1 -8 1h-8h-31
v58q17 0 34.5 1t30.5 7q36 18 40 59q0 24 -18 43.5t-54 19.5q-41 0 -58 -23t-15 -50h-68q-3 58 39 93q43 35 103 35t100 -35q40 -34 40 -83q0 -20 -5.5 -35.5t-13.5 -27t-17.5 -19.5t-18.5 -12q29 -13 49 -39.5t20 -59.5q0 -29 -11.5 -53t-31.5 -41t-48.5 -27t-61.5 -10
q-67 0 -113 39q-45 39 -42 100h69q-3 -33 19.5 -56.5t65.5 -23.5q38 0 60 20t23 52q0 23 -15.5 41t-38.5 24zM764 -95q25 20 25 51q0 30 -25 51t-68 21q-42 0 -66 -21t-24 -51q0 -31 24 -51t66 -20q43 0 68 20zM753 104q21 17 21 44q0 25 -20.5 42.5t-57.5 17.5
q-38 0 -57 -17.5t-19 -42.5q0 -27 19 -44t57 -17q37 0 57 17z" />
    <glyph glyph-name="fiveeighths" unicode="&#x215d;" horiz-adv-x="960" 
d="M162 448q3 -27 25 -46t58 -19q35 0 57.5 24t25.5 63q2 39 -21 65t-59 26q-26 0 -44.5 -9t-28.5 -24l-73 -1l36 225h241v-59h-184l-18 -99q21 12 50.5 17t54.5 1q18 -4 38 -13t37 -25q17 -17 28.5 -42t11.5 -59q0 -36 -13.5 -63.5t-35.5 -46.5t-49 -28.5t-54 -9.5
q-35 0 -62 10.5t-47 28.5q-39 38 -44 88zM551 12q20 28 59 47q-63 37 -63 93q0 47 43 80t106 33t107 -33t44 -80q0 -55 -63 -92q78 -43 78 -107q0 -26 -13 -48.5t-35 -39.5q-48 -37 -118 -37q-72 0 -117 37q-22 17 -34.5 39.5t-12.5 48.5q0 32 19 59zM753 104q21 17 21 44
q0 25 -20.5 42.5t-57.5 17.5q-38 0 -57 -17.5t-19 -42.5q0 -27 19 -44t57 -17q37 0 57 17zM764 -95q25 20 25 51q0 30 -25 51t-68 21q-42 0 -66 -21t-24 -51q0 -31 24 -51t66 -20q43 0 68 20zM174 -145l-54 40l670 816l53 -38z" />
    <glyph glyph-name="seveneighths" unicode="&#x215e;" horiz-adv-x="960" 
d="M551 12q20 28 59 47q-63 37 -63 93q0 47 43 80t106 33t107 -33t44 -80q0 -55 -63 -92q78 -43 78 -106q0 -26 -13 -48.5t-35 -39.5q-48 -37 -118 -37q-72 0 -117 37q-22 17 -34.5 39.5t-12.5 48.5q0 31 19 58zM498 264q-85 -103 -167.5 -204t-166.5 -204l-54 39l669 816
q6 -5 12.5 -10t13.5 -10q13 -11 27 -18zM188 333q2 30 15 77t43 104q27 52 59.5 94t53.5 64h-238v64h299v-65q-18 -16 -44.5 -50t-52.5 -88q-14 -27 -24.5 -55.5t-18 -54.5t-11 -49t-3.5 -41h-78zM764 -94q25 20 25 50q0 31 -25 51.5t-68 20.5q-42 0 -66 -20.5t-24 -51.5
q0 -30 24 -50.5t66 -20.5q43 0 68 21zM753 104q21 17 21 44q0 25 -20.5 42.5t-57.5 17.5q-38 0 -57 -17.5t-19 -42.5q0 -27 19 -44t57 -17q37 0 57 17z" />
    <glyph glyph-name="uni2160" unicode="&#x2160;" horiz-adv-x="960" 
d="M523 -62h-86v745h86v-745z" />
    <glyph glyph-name="uni2161" unicode="&#x2161;" horiz-adv-x="960" 
d="M677 -62h-85v746h85v-746zM367 -62h-85v746h85v-746z" />
    <glyph glyph-name="uni2162" unicode="&#x2162;" horiz-adv-x="960" 
d="M720 -62h-85v746h85v-746zM523 -62h-86v746h86v-746zM324 -62h-85v746h85v-746z" />
    <glyph glyph-name="uni2163" unicode="&#x2163;" horiz-adv-x="960" 
d="M608 -62h-106q-27 94 -53 186.5t-52 186.5q-27 94 -53 186.5t-52 186.5h94l171 -636l168 636h94l-106 -373zM256 -62h-86v746h86v-746z" />
    <glyph glyph-name="uni2164" unicode="&#x2164;" horiz-adv-x="960" 
d="M434 -62q-34 94 -67.5 186.5t-66.5 186.5q-34 94 -67.5 186.5t-66.5 186.5h94q28 -81 56.5 -161.5t56.5 -161.5t56.5 -161.5t57.5 -161.5q28 81 56.5 161.5t57.5 161.5q28 81 56.5 161.5t57.5 161.5h94q-34 -94 -67.5 -186.5t-66.5 -186.5q-34 -94 -67.5 -186.5
t-66.5 -186.5h-107z" />
    <glyph glyph-name="uni2165" unicode="&#x2165;" horiz-adv-x="960" 
d="M456 -62h-105q-27 94 -53 186.5t-52 186.5q-27 94 -53 186.5t-51 186.5h93l84 -318q21 -80 42 -159t43 -159l168 636h93q-14 -48 -27 -94t-26 -93l-52 -186l-52 -187zM791 -62h-85v746h85v-746z" />
    <glyph glyph-name="uni2166" unicode="&#x2166;" horiz-adv-x="960" 
d="M279 -62q-23 94 -45.5 186.5t-45.5 186.5l-46 186l-45 187h95q17 -81 34.5 -159.5t35.5 -159.5q17 -81 34.5 -160t35.5 -158l70 318l71 319h93q-23 -94 -45.5 -186.5t-45.5 -186.5t-45.5 -186.5t-44.5 -186.5h-106zM684 -62h-79v746h79v-746zM832 -62h-79v746h79v-746z
" />
    <glyph glyph-name="uni2167" unicode="&#x2167;" horiz-adv-x="960" 
d="M884 -62h-75v745h75v-745zM747 -62h-75v745h75v-745zM609 -62h-75v745h75v-745zM334 -62h-104q-21 94 -41.5 186t-40.5 186q-21 94 -41.5 186.5t-40.5 186.5h87l129 -639l129 639h86q-21 -94 -41.5 -186.5t-40.5 -186.5z" />
    <glyph glyph-name="uni2168" unicode="&#x2168;" horiz-adv-x="960" 
d="M738 -64q-23 37 -46 74.5t-46 75.5q-24 37 -47 74.5t-45 75.5q-24 -38 -47 -75.5t-45 -74.5q-23 -38 -46 -75.5t-46 -74.5h-97q28 48 57 96t59 96l116 192q-28 45 -56 90.5t-55 91.5q-28 46 -56 91.5t-55 91.5h99q14 -26 37 -64.5t48 -80.5t47.5 -80t37.5 -62l174 287h98
q-28 -46 -55.5 -92t-55.5 -91l-110 -183l116 -192q29 -48 58 -95.5t59 -95.5h-98zM232 -64h-83v749h83v-749z" />
    <glyph glyph-name="uni2169" unicode="&#x2169;" horiz-adv-x="960" 
d="M683 -64l-198 312l-99 -156q-25 -39 -49.5 -78t-48.5 -78h-95l121 194l123 194q-59 90 -114 180l-113 181h96q22 -36 44.5 -71.5t44.5 -70.5q22 -36 44.5 -71.5t45.5 -70.5q22 35 44.5 70.5t45.5 71.5q22 35 44.5 70.5t45.5 71.5h95q-29 -46 -57.5 -91t-56.5 -90
q-29 -45 -57.5 -90.5t-56.5 -90.5q16 -26 48 -75.5t68 -106.5t71 -112.5t59 -92.5h-95z" />
    <glyph glyph-name="uni2170" unicode="&#x2170;" horiz-adv-x="960" 
d="M526 595h-88v91h88v-91zM525 -60h-86v542h86v-542z" />
    <glyph glyph-name="uni2171" unicode="&#x2171;" horiz-adv-x="960" 
d="M669 593h-87v91h87v-91zM379 593h-86v91h86v-91zM668 -62h-85v542h85v-542zM378 -62h-84v542h84v-542z" />
    <glyph glyph-name="uni2172" unicode="&#x2172;" horiz-adv-x="960" 
d="M715 593h-87v91h87v-91zM525 593h-88v91h88v-91zM333 593h-87v91h87v-91zM714 -62h-85v542h85v-542zM524 -62h-86v542h86v-542zM332 -62h-85v542h85v-542z" />
    <glyph glyph-name="uni2173" unicode="&#x2173;" horiz-adv-x="960" 
d="M637 -56h-111q-26 67 -51.5 134t-51.5 134q-53 133 -102 270h98l81 -220q21 -55 41 -110t41 -109q20 54 40 109t41 110l40 110q10 28 20 55t21 55h99q-26 -69 -52 -136t-51 -134l-52 -134zM276 -60h-85v542h85v-542zM278 595h-88v92h88v-92z" />
    <glyph glyph-name="uni2174" unicode="&#x2174;" horiz-adv-x="960" 
d="M430 -66l-51 138l-50 138l-100 277h91l80 -227q20 -57 40 -113t41 -113l82 226q20 57 40.5 113.5t41.5 113.5h92q-26 -69 -51.5 -138.5t-51.5 -138.5q-53 -138 -102 -276h-102z" />
    <glyph glyph-name="uni2175" unicode="&#x2175;" horiz-adv-x="960" 
d="M455 -57h-106q-26 67 -51 134t-51 134q-25 67 -50.5 134t-50.5 136h96q19 -55 39 -110t41 -110l40 -110q10 -28 20 -55l20 -54l39 109l120 330h98zM797 -61h-85v542h85v-542zM798 594h-87v92h87v-92z" />
    <glyph glyph-name="uni2176" unicode="&#x2176;" horiz-adv-x="960" 
d="M279 -58q-23 67 -46 134.5t-46 134.5l-46 134t-45 136h94q8 -28 17 -55t18 -55l36 -110q34 -110 71 -219q18 54 35.5 109t35.5 110l71 220h93q-23 -69 -45.5 -136t-45.5 -134t-46 -134.5t-45 -134.5h-106zM689 -61h-78v542h78v-542zM835 -61h-77v542h77v-542zM690 594
h-81v91h81v-91zM836 594h-80v91h80v-91z" />
    <glyph glyph-name="uni2177" unicode="&#x2177;" horiz-adv-x="960" 
d="M219 -57l-85 268l-84 270h93q16 -57 32.5 -112t32.5 -110q31 -113 66 -222q16 55 32.5 110t32.5 112q31 109 66 222h94q-43 -136 -86 -269.5t-85 -268.5h-109zM611 -61h-76v542h76v-542zM748 -61h-76v542h76v-542zM885 -61h-75v542h75v-542zM749 594h-78v92h78v-92z
M611 594h-77v92h77v-92zM886 594h-77v92h77v-92z" />
    <glyph glyph-name="uni2178" unicode="&#x2178;" horiz-adv-x="960" 
d="M711 -62l-36 50q-9 13 -18 25t-17 25q-18 24 -36 49t-35 51q-18 -26 -36 -51t-36 -49l-71 -100h-106q48 69 97 138.5t100 138.5q-24 33 -47.5 66t-46.5 66q-24 33 -47.5 66.5t-46.5 66.5h105l135 -189q16 23 33 46.5t34 47.5q16 24 33 47.5t34 47.5h105
q-24 -33 -47.5 -66.5t-46.5 -66.5q-24 -33 -47.5 -66t-46.5 -66q24 -35 49 -69.5t50 -69.5q24 -35 49 -69.5t50 -68.5h-107zM285 -61h-85v541h85v-541zM287 594h-88v91h88v-91z" />
    <glyph glyph-name="uni2179" unicode="&#x2179;" horiz-adv-x="960" 
d="M631 -63l-147 207l-147 -207h-102l98 140t98 142q-48 66 -94 133t-92 136h103q33 -49 67 -97.5t69 -96.5q16 24 33 48t35 49l34 48q8 12 17 24t17 25h103q-48 -69 -93.5 -136t-93.5 -133q49 -72 98 -142l98 -140h-101z" />
    <glyph glyph-name="arrowleft" unicode="&#x2190;" horiz-adv-x="960" 
d="M913 268h-579l30 -94l-332 129l332 124l-30 -94h579v-65z" />
    <glyph glyph-name="arrowup" unicode="&#x2191;" horiz-adv-x="960" 
d="M512 -153h-64v631l-95 -30l127 332l126 -332l-94 30v-631z" />
    <glyph glyph-name="arrowright" unicode="&#x2192;" horiz-adv-x="960" 
d="M931 303l-331 -129l30 93h-580v65h580l-30 95z" />
    <glyph glyph-name="arrowdown" unicode="&#x2193;" horiz-adv-x="960" 
d="M480 -179l-127 332l94 -30v632h65v-631l94 30z" />
    <glyph glyph-name="arrowboth" unicode="&#x2194;" horiz-adv-x="960" 
d="M938 300l-289 -165l30 132h-400l30 -132l-288 165l288 164l-30 -131h400l-30 131z" />
    <glyph glyph-name="arrowupdn" unicode="&#x2195;" horiz-adv-x="960" 
d="M478 -189l-163 288l132 -30v461l-132 -30l163 288l166 -288l-132 30v-461l132 30z" />
    <glyph glyph-name="uni2196" unicode="&#x2196;" horiz-adv-x="960" 
d="M863 -128l-640 640l-29 -90l-152 318l317 -153l-90 -29l639 -640z" />
    <glyph glyph-name="uni2197" unicode="&#x2197;" horiz-adv-x="960" 
d="M768 422l-29 90l-639 -640l-46 46l639 640l-90 29l317 153z" />
    <glyph glyph-name="uni2198" unicode="&#x2198;" horiz-adv-x="960" 
d="M915 -135l-316 153l88 29l-638 639l46 46l638 -639l31 89z" />
    <glyph glyph-name="uni2199" unicode="&#x2199;" horiz-adv-x="960" 
d="M364 18l-317 -153l152 317l29 -89l639 639l46 -46l-639 -639z" />
    <glyph glyph-name="arrowdblright" unicode="&#x21d2;" horiz-adv-x="960" 
d="M917 299l-276 -274l-45 42l113 110h-630v58h688l66 64l-66 64h-688v58h630l-113 110l45 42z" />
    <glyph glyph-name="arrowdblboth" unicode="&#x21d4;" horiz-adv-x="960" 
d="M916 299l-278 -274l-43 42l113 110h-456l113 -110l-44 -42l-278 274l278 274l44 -42l-113 -110h456l-113 110l43 42zM831 299l-66 64h-570l-67 -64l67 -64h570z" />
    <glyph glyph-name="universal" unicode="&#x2200;" horiz-adv-x="960" 
d="M535 -70h-106l-268 748h90l68 -188h325l69 186h90zM482 35l134 371h-268z" />
    <glyph glyph-name="partialdiff" unicode="&#x2202;" horiz-adv-x="960" 
d="M125 588q22 54 64.5 90.5t105.5 40.5q72 0 118 -58q47 -58 47 -151q0 -39 -8.5 -88.5t-22.5 -103.5t-33 -104t-40 -92q-31 -57 -72.5 -87t-86.5 -30q-38 0 -72 16.5t-54 43.5q-12 18 -19 42t-7 56q0 58 16.5 108.5t44.5 87.5q27 38 63.5 60t76.5 23q68 1 115 -76
q7 33 11.5 56t6.5 41q3 17 4 30.5t1 27.5q0 48 -23 82t-63 34q-58 0 -95 -91zM127 233q-9 -33 -6 -58q0 -39 19 -65.5t54 -26.5q50 0 82 63q15 30 26 62t11 61q0 18 -5 35.5t-14 31t-22 22t-29 8.5q-26 -1 -49 -21t-40 -49q-17 -30 -27 -63z" />
    <glyph glyph-name="existential" unicode="&#x2203;" horiz-adv-x="960" 
d="M736 -69h-468v84h381v236h-366v83h366v257h-392v85h479v-745z" />
    <glyph glyph-name="gradient" unicode="&#x2207;" horiz-adv-x="960" 
d="M921 675q-112 -193 -221 -382.5t-220 -380.5q-112 191 -221.5 380.5t-220.5 382.5h883zM480 24q43 75 86 149t86 149q42 75 84.5 149.5t87.5 149.5h-689z" />
    <glyph glyph-name="element" unicode="&#x2208;" horiz-adv-x="960" 
d="M834 13h-419q-73 0 -130.5 21.5t-97.5 60.5q-40 38 -61 90t-21 115q0 60 21 112.5t61 91.5q40 38 97.5 60.5t130.5 22.5h419v-64h-432q-58 0 -100 -19.5t-70 -47.5q-28 -29 -42.5 -62t-16.5 -61h660v-66h-660q2 -29 16.5 -62t42.5 -62q28 -28 70 -47t100 -19h432v-64z
" />
    <glyph glyph-name="suchthat" unicode="&#x220b;" horiz-adv-x="960" 
d="M556 77q58 0 100 19t70 47q28 29 42.5 62t16.5 62h-659v66h659q-2 27 -16.5 60.5t-42.5 61.5q-28 29 -70 48.5t-100 19.5h-431v64h419q72 0 129.5 -22.5t97.5 -60.5q40 -39 61.5 -91.5t21.5 -112.5q0 -63 -21.5 -115t-61.5 -90q-40 -39 -97.5 -60.5t-129.5 -21.5h-419v64
h431z" />
    <glyph glyph-name="product" unicode="&#x220f;" horiz-adv-x="960" 
d="M665 -44h-83v600h-203v-600h-83v600h-143v90h657v-90h-145v-600z" />
    <glyph glyph-name="summation" unicode="&#x2211;" horiz-adv-x="960" 
d="M697 -9h-525l18 78l295 295l-179 245l23 80h475l-13 -89h-385l184 -246l-287 -275h416z" />
    <glyph glyph-name="radical" unicode="&#x221a;" horiz-adv-x="960" 
d="M305 -105l-160 409l-53 -57l-23 37l118 124l127 -324l215 694h341v-51h-300z" />
    <glyph glyph-name="proportional" unicode="&#x221d;" horiz-adv-x="960" 
d="M848 141q-37 -24 -65.5 -33.5t-63.5 -9.5q-42 0 -74 12.5t-55 30.5q-24 18 -40.5 39t-25.5 38q-10 -17 -26.5 -37.5t-40.5 -39.5q-24 -18 -55 -30.5t-70 -12.5q-43 0 -81 15.5t-66 43.5q-28 27 -44 64t-16 79t16 78.5t44 64.5q28 27 66 43t81 16q39 0 70 -13t55 -32
t40.5 -40t26.5 -36q10 15 26.5 36t40.5 40t55 32t73 13q34 0 64 -10t63 -34l-39 -58q-26 18 -44 24t-44 6q-40 0 -68 -17t-46 -39q-19 -22 -29 -43.5t-13 -30.5q3 -10 13 -31.5t29 -43.5q18 -22 46 -38.5t68 -16.5q24 0 43.5 6t43.5 23zM394 186q27 17 46 39t30 43.5
t16 31.5q-5 9 -16 30.5t-30 43.5t-46 39t-62 17q-56 0 -96 -38q-39 -38 -39 -92q0 -56 39 -93q38 -37 96 -37q35 0 62 16z" />
    <glyph glyph-name="infinity" unicode="&#x221e;" horiz-adv-x="960" 
d="M502 201q-15 20 -22 34q-8 -14 -23 -34t-37 -38t-52 -31t-68 -13q-39 0 -73 14t-59 39q-26 24 -40.5 57t-14.5 71q0 37 14.5 70t40.5 58q25 24 59 38.5t73 14.5q38 0 68 -13.5t52 -31.5t37 -38t23 -33q7 13 22 33t37 38t51.5 31.5t67.5 13.5t72.5 -14.5t59.5 -38.5
q26 -25 41 -58t15 -70q0 -38 -15 -71t-41 -57q-25 -25 -59.5 -39t-72.5 -14t-67.5 13t-51.5 31t-37 38zM356 197q24 15 41 36q16 20 26 39.5t13 27.5q-3 7 -13 26.5t-26 39.5q-17 20 -41 36t-56 16q-51 0 -86 -35t-35 -83q0 -49 35 -84q34 -34 86 -34q32 0 56 15zM744 216
q36 34 36 84q0 48 -36 83q-37 35 -86 35q-32 0 -56 -16t-41 -36t-26.5 -39.5t-12.5 -26.5q3 -8 12.5 -27.5t26.5 -39.5q17 -21 41 -36t56 -15q51 0 86 34z" />
    <glyph glyph-name="angle" unicode="&#x2220;" horiz-adv-x="960" 
d="M849 -33h-702q-30 1 -32 20.5t22 40.5l607 613l51 -48l-557 -560h611v-66z" />
    <glyph glyph-name="uni2225" unicode="&#x2225;" horiz-adv-x="960" 
d="M613 -192h-62v980h62v-980zM407 -192h-61v980h61v-980z" />
    <glyph glyph-name="logicaland" unicode="&#x2227;" horiz-adv-x="960" 
d="M835 -26l-66 -36q-36 75 -72.5 148.5t-72.5 148.5l-72 148l-72 149l-291 -594q-9 4 -17 8.5t-16 9.5q-8 4 -16 8.5t-16 9.5l79 163l80 164l161 328q3 6 13.5 18t22.5 12t21 -10.5t15 -19.5q39 -84 79 -165.5t80 -162.5l80 -164z" />
    <glyph glyph-name="logicalor" unicode="&#x2228;" horiz-adv-x="960" 
d="M516 -27q-6 -10 -15 -20t-21 -10t-22.5 12t-13.5 18q-163 327 -320 655q8 4 16 8.5t16 9.5q8 4 16 8.5t17 9.5q72 -150 145 -297.5t146 -297.5l144 297q36 75 72.5 149t72.5 149l66 -36l-240 -492z" />
    <glyph glyph-name="intersection" unicode="&#x2229;" horiz-adv-x="960" 
d="M778 -69h-76v446q0 61 -21 105t-54 72t-73 41.5t-79 13.5q-36 0 -74.5 -13.5t-70.5 -41.5q-31 -28 -51.5 -72t-20.5 -105v-446h-77v435q0 73 22 132.5t64 101.5q40 42 94.5 65t118.5 23q63 0 117 -23t94 -65t63.5 -101.5t23.5 -132.5v-435z" />
    <glyph glyph-name="union" unicode="&#x222a;" horiz-adv-x="960" 
d="M764 234q0 -75 -23.5 -134.5t-63.5 -101.5t-94 -64.5t-117 -22.5q-64 0 -118.5 22.5t-94.5 64.5q-42 42 -64 101.5t-22 134.5v434h76v-445q0 -63 21 -107.5t54 -73.5q33 -28 73.5 -41t79.5 -11q34 0 72.5 13t69.5 41q32 28 53 72t21 107v445h77v-434z" />
    <glyph glyph-name="integral" unicode="&#x222b;" horiz-adv-x="960" 
d="M609 679q0 21 -19 21q-15 0 -28.5 -14t-23.5 -37q-10 -22 -15.5 -52t-4.5 -61q0 -57 5 -120t7 -129q3 -66 -0.5 -128.5t-19.5 -114.5q-18 -56 -68 -97q-51 -41 -118 -40q-42 0 -64 19t-22 50q0 19 14 33t38 14q22 0 36.5 -14.5t16.5 -40.5q0 -14 3 -19t15 -5
q20 0 38.5 16t32.5 43q14 26 22 60t8 70q-1 32 -3.5 69.5t-5.5 77.5q-3 42 -5.5 84t-2.5 84q0 76 11.5 130t32.5 87.5t52 49t70 15.5q46 0 73 -19t27 -47q0 -24 -15.5 -39t-38.5 -15q-48 0 -48 49v20z" />
    <glyph glyph-name="uni222C" unicode="&#x222c;" horiz-adv-x="960" 
d="M631 362q1 -49 1.5 -87t0.5 -45q0 -80 -13.5 -140.5t-36.5 -101.5t-55.5 -62t-69.5 -21q-27 0 -43 14.5t-16 36.5q0 18 11 30t29 12q17 -1 25.5 -9.5t12.5 -18.5q5 -10 8.5 -18.5t11.5 -8.5q15 -2 28.5 24t23.5 63q10 36 15.5 75.5t5.5 65.5q-2 42 -3 82.5t-1 82.5
l-4 166q0 45 13 86.5t35 72.5q22 32 51 50.5t62 18.5q27 0 45.5 -17t18.5 -39q0 -19 -14 -32t-35 -13q-20 0 -31.5 10.5t-17.5 22.5q-6 13 -9.5 22t-6.5 6q-10 -9 -18.5 -26.5t-14.5 -37.5q-7 -21 -10 -43t-2 -40zM419 233q0 -75 -11.5 -133.5t-33.5 -100.5q-21 -40 -61 -66
q-39 -27 -74 -27q-24 0 -39.5 14.5t-15.5 35.5q0 4 3 11.5t8.5 15t13 12.5t16.5 5q17 -1 25 -10t12 -19q5 -11 8.5 -20t13.5 -9q15 -2 28 23t22 63t14.5 81.5t5.5 80.5q0 36 -1 71.5t-2 71.5q-2 36 -2.5 73t-0.5 79q0 60 13.5 105.5t36.5 76.5q22 31 51 47t59 16
q25 0 42.5 -17t17.5 -39q0 -20 -13.5 -33t-31.5 -12q-20 0 -31 10t-17 22q-6 11 -9 20t-6 9q-6 -2 -14 -16t-16 -36q-7 -21 -12 -46.5t-5 -47.5q3 -101 4.5 -156.5t1.5 -85.5v-69z" />
    <glyph glyph-name="uni222E" unicode="&#x222e;" horiz-adv-x="960" 
d="M604 197q-33 -37 -96 -49q-6 -69 -12 -102q-3 -17 -7.5 -31t-9.5 -27q-41 -102 -147 -102q-40 0 -62.5 15.5t-22.5 46.5q0 22 13.5 36.5t35.5 14.5q21 0 35 -11.5t18 -31.5q1 -7 1.5 -13t2.5 -10q4 -10 14 -10q13 0 31.5 19.5t28.5 55.5q4 18 7 37t5 38q1 19 2 39t3 40
q-54 15 -82.5 50t-28.5 89q0 55 32 91t93 54q5 43 10 73t14 55q21 69 61 108.5t95 39.5q33 0 53.5 -17t20.5 -47q0 -24 -13 -36t-35 -12q-23 0 -33 9.5t-11 21.5q-2 5 -2.5 12t-2.5 13q-5 14 -16 14q-11 -1 -17.5 -7.5t-15.5 -24.5q-11 -24 -17 -45t-10 -44q-4 -24 -6.5 -52
t-5.5 -64q57 -18 84 -52.5t27 -88.5q0 -57 -34 -95zM516 297q-2 -28 -3.5 -58t-1.5 -58q48 15 70 43t22 70q0 35 -16 57.5t-62 48.5zM387 232q19 -24 59 -42q0 34 0.5 61t2.5 51q1 24 2.5 48t4.5 52q-45 -20 -66 -46.5t-21 -63.5q0 -36 18 -60z" />
    <glyph glyph-name="therefore" unicode="&#x2234;" horiz-adv-x="960" 
d="M555 521q0 -32 -21.5 -52.5t-50.5 -20.5q-31 0 -52.5 20.5t-21.5 52.5q0 30 21 51.5t53 21.5q29 0 50.5 -21.5t21.5 -51.5zM821 84q0 -32 -21 -52.5t-51 -20.5q-31 0 -52 20.5t-21 52.5q0 30 21 51.5t51 21.5t51.5 -21.5t21.5 -51.5zM282 83q0 -31 -22 -52t-51 -21
q-31 0 -52.5 21t-21.5 52q0 30 21.5 52t52.5 22q29 0 50.5 -22t21.5 -52h1z" />
    <glyph glyph-name="uni2235" unicode="&#x2235;" horiz-adv-x="960" 
d="M821 525q0 -31 -21.5 -52.5t-52.5 -21.5q-29 0 -50.5 21.5t-21.5 52.5q0 30 21.5 51.5t50.5 21.5q31 0 52.5 -21.5t21.5 -51.5zM554 84q0 -31 -21.5 -52t-51.5 -21t-51.5 21t-21.5 52t21.5 52t51.5 21t51.5 -21t21.5 -52zM284 525q0 -31 -22 -52.5t-52 -21.5t-51 21.5
t-21 52.5q0 30 21 51.5t51 21.5t52 -21.5t22 -51.5z" />
    <glyph glyph-name="similar" unicode="&#x223c;" horiz-adv-x="960" 
d="M532 348q5 -3 10.5 -6t10.5 -5q21 -13 44 -13q50 -4 92 14q40 18 54 35q6 9 17.5 14.5t22.5 6.5q10 1 17.5 -5t6.5 -20q-4 -24 -33.5 -59t-75.5 -62q-38 -22 -80.5 -27t-90.5 13q-15 5 -27 10t-21 11q-10 5 -17.5 9.5t-13.5 9.5q-58 37 -103 30q-46 -8 -86 -33
q-9 -6 -18.5 -14.5t-20.5 -14.5q-10 -7 -21 -11.5t-22 -2.5q-18 2 -20.5 16t8.5 32q7 13 26.5 35.5t47.5 44.5t63 37.5t73 14.5q45 -3 78.5 -18t58.5 -30z" />
    <glyph glyph-name="uni223D" unicode="&#x223d;" horiz-adv-x="960" 
d="M586 209q2 -2 11 -7.5t23 -11.5q14 -7 31.5 -11.5t36.5 -4.5q49 0 84 33q33 33 35 76q0 60 -33 98t-90 41q-35 1 -61 -11t-46 -33q-21 -21 -36 -48t-28 -53q-9 -18 -26.5 -48.5t-46.5 -59.5q-28 -28 -68.5 -48t-94.5 -17q-36 2 -71 16t-63 39q-27 26 -44 63t-15 86
q1 35 15 68.5t40 59.5q25 27 61 43t81 16q55 0 88 -18q32 -18 44 -26l-34 -59q-1 0 -10 5.5t-23 11.5q-15 6 -33 11t-36 5q-60 0 -91 -39q-30 -38 -30 -84q-2 -47 30 -87q31 -40 96 -43q37 -2 65.5 16t50.5 46q23 28 41 60.5t34 59.5q35 59 84 100q49 40 129 39
q36 -2 71 -15t63 -39q27 -25 44 -63t16 -87q-5 -79 -55 -132q-26 -25 -61.5 -40t-80.5 -15q-28 0 -50 5t-39 13q-16 7 -27 14.5t-16 11.5z" />
    <glyph glyph-name="uni2252" unicode="&#x2252;" horiz-adv-x="960" 
d="M829 348h-699v70h699v-70zM829 182h-699v69h699v-69zM343 508q-21 -21 -53 -21q-31 0 -52 21.5t-21 52.5t21 53t52 22q32 0 53 -22t21 -53t-21 -53zM744 39q0 -31 -22.5 -53t-52.5 -22q-31 0 -52 22t-21 53q0 30 21 52.5t52 22.5q30 0 52.5 -22.5t22.5 -52.5z" />
    <glyph glyph-name="notequal" unicode="&#x2260;" horiz-adv-x="960" 
d="M813 167h-398q-20 -25 -39 -49.5t-37 -48.5l-76 -97q-15 9 -30 23q-4 2 -7.5 5t-7.5 6l-14 12l57 74q14 19 28.5 37.5t29.5 37.5h-171v71h227l59 76l30 38l30 39h-346v71h401q16 21 32.5 42.5t33.5 42.5t33.5 42.5t33.5 43.5l14 -12l15 -12q12 -11 29 -23
q-24 -32 -48 -63t-48 -61h169v-71h-224l-118 -153h342v-71z" />
    <glyph glyph-name="equivalence" unicode="&#x2261;" horiz-adv-x="960" 
d="M823 435h-686v64h686v-64zM823 268h-687v64h687v-64zM823 101h-687v64h687v-64z" />
    <glyph glyph-name="lessequal" unicode="&#x2264;" horiz-adv-x="960" 
d="M717 148l-517 265q-3 1 -12.5 7.5t-9.5 9.5t9 8.5t13 7.5l504 263l37 -73l-378 -205l393 -211zM782 -8h-610v81h610v-81z" />
    <glyph glyph-name="greaterequal" unicode="&#x2265;" horiz-adv-x="960" 
d="M752 446q4 -2 14 -7.5t10 -8.5t-10.5 -9.5t-13.5 -7.5l-516 -265l-40 72l394 211l-378 205l37 73zM782 -8h-611v81h611v-81z" />
    <glyph glyph-name="uni226A" unicode="&#x226a;" horiz-adv-x="960" 
d="M847 -85q-75 51 -139 97t-125 89t-120.5 84.5t-122.5 84.5q-7 5 -13.5 12t-6.5 18t9 19.5t18 14.5l501 351l44 -60l-469 -325l472 -328zM608 -85q-75 51 -139.5 97t-125.5 89t-120.5 84.5t-122.5 84.5q-7 5 -13.5 12t-6.5 18t9 19.5t18 14.5l502 351l44 -60l-469 -325
l472 -328z" />
    <glyph glyph-name="uni226B" unicode="&#x226b;" horiz-adv-x="960" 
d="M619 272l-9 -6l-501 -351l-48 57l471 328l-468 325l44 60l502 -351q3 -3 8 -6.5t9 -7.5q11 -11 11 -20t-5.5 -15t-9.5 -9zM849 334q8 -6 18 -14.5t10 -19.5q0 -9 -5.5 -15t-8.5 -9t-7 -5.5t-7 -4.5l-500 -351l-48 57l472 328l-469 325l44 60z" />
    <glyph glyph-name="propersubset" unicode="&#x2282;" horiz-adv-x="960" 
d="M845 4h-428v-1q-76 0 -135.5 22.5t-101.5 62.5q-42 39 -64 93.5t-22 118.5q0 63 21.5 117t63.5 94t101 63t134 23h431v-78h-444q-60 0 -103 -21t-70 -52q-28 -32 -40.5 -69.5t-12.5 -71.5v-10q0 -35 12.5 -72.5t40.5 -68.5q27 -32 70 -52t103 -20h444v-78z" />
    <glyph glyph-name="propersuperset" unicode="&#x2283;" horiz-adv-x="960" 
d="M785 305q0 34 -13.5 71.5t-40.5 68.5q-28 32 -70 52.5t-102 20.5h-445v79h431q73 0 132 -23t101 -63t64.5 -94t22.5 -117q0 -64 -22.5 -118t-64.5 -94t-101 -62t-132 -22l-431 -1v78h445q60 0 102 20.5t70 51.5q27 32 40.5 69.5t13.5 72.5v10z" />
    <glyph glyph-name="reflexsubset" unicode="&#x2286;" horiz-adv-x="960" 
d="M845 123h-428v-1q-84 0 -144 19.5t-100 54.5t-59.5 82t-19.5 101t19.5 101t59.5 82q40 34 100 54.5t141 20.5h431v-79h-445q-63 0 -105.5 -16t-69.5 -42q-27 -25 -39 -57t-12 -64q0 -33 12 -65t39 -57q27 -26 69.5 -41t105.5 -15h445v-78zM865 -37h-771v80h771v-80z" />
    <glyph glyph-name="reflexsuperset" unicode="&#x2287;" horiz-adv-x="960" 
d="M559 200q61 0 104 15t71 41q27 25 39.5 57t12.5 66q0 32 -12.5 63.5t-39.5 57.5q-28 25 -71 41t-104 16h-445v80h431q81 0 140.5 -20.5t99.5 -54.5q40 -35 60 -82t20 -101t-19.5 -101t-59.5 -81q-40 -35 -100 -54.5t-141 -19.5l-431 -1v78h445zM865 -37h-771v80h771v-80z
" />
    <glyph glyph-name="uni2299" unicode="&#x2299;" horiz-adv-x="960" 
d="M864 133q-31 -76 -86 -131q-57 -57 -131.5 -88t-162.5 -31q-91 0 -167.5 31t-133.5 88t-89 132t-32 165q0 88 32 162.5t89 131.5q57 55 134 87t168 32q88 0 162.5 -32t129.5 -87q57 -57 88 -131.5t31 -162.5q0 -90 -32 -166zM623 -44q66 28 115 79t78 117t29 144t-29 145
t-80 118t-118 80.5t-143 29.5q-75 0 -139.5 -30t-113.5 -81t-77.5 -118.5t-28.5 -143.5q0 -78 28 -144t79 -117q49 -51 116 -79t143 -28q75 0 141 28zM664 221q-15 -36 -42 -62q-26 -26 -62.5 -40t-78.5 -14q-88 0 -142 54q-27 25 -41.5 61t-14.5 79q0 42 14.5 77.5
t40.5 60.5q56 54 143 54q86 0 142 -54q56 -53 56 -137q0 -43 -15 -79z" />
    <glyph glyph-name="perpendicular" unicode="&#x22a5;" horiz-adv-x="960" 
d="M824 -24h-688v65h311v564h66v-564h311v-65z" />
    <glyph glyph-name="uni2312" unicode="&#x2312;" horiz-adv-x="960" 
d="M762 554q-10 42 -36.5 76.5t-65.5 59.5q-39 24 -87 37.5t-100 13.5q-54 0 -102.5 -13.5t-86.5 -37.5t-64.5 -58.5t-35.5 -77.5h-69q10 52 41.5 96t79.5 76t108 50t129 18q67 0 127.5 -18t108.5 -50t79.5 -76t42.5 -96h-69z" />
    <glyph glyph-name="uni2460" unicode="&#x2460;" horiz-adv-x="960" 
d="M788 -8q-60 -60 -138.5 -93.5t-169.5 -33.5t-170 33.5t-139 93.5t-93.5 139t-33.5 170t34 169.5t94 138.5t138.5 93.5t169.5 33.5q90 0 168.5 -33.5t138.5 -93.5t94.5 -138.5t34.5 -169.5t-34 -170t-94 -139zM636 -70q73 31 128 86q54 55 86 127.5t32 157.5t-32.5 157.5
t-86.5 127.5q-55 54 -128 85.5t-155 31.5q-84 0 -157 -31.5t-127 -85.5q-55 -55 -87 -127.5t-32 -157.5t31.5 -157.5t86.5 -127.5t127.5 -86.5t157.5 -31.5q84 0 156 32zM522 41h-69v383h-82v50q34 6 59 20q25 15 40 66h52v-519z" />
    <glyph glyph-name="uni2461" unicode="&#x2461;" horiz-adv-x="960" 
d="M788 -8q-60 -60 -138.5 -93.5t-169.5 -33.5t-170 33.5t-139 93.5t-93.5 139t-33.5 170t34 170t94 139t138.5 93.5t169.5 33.5q90 0 168.5 -33.5t138.5 -93.5t94.5 -139t34.5 -170t-34 -170t-94 -139zM633 41h-308q2 35 9.5 62t21.5 51q13 23 32.5 45.5t46.5 48.5
q24 24 47.5 40.5t42.5 34.5q18 17 29.5 39t11.5 58q0 24 -7 42t-17.5 30t-23.5 18t-25 6q-30 0 -47 -16t-26 -37q-8 -22 -10.5 -43.5t-2.5 -33.5h-70q2 37 11 71t27 60t46.5 41.5t70.5 15.5q23 0 48 -8t46 -26q20 -18 33.5 -47t13.5 -72q0 -59 -25 -96q-26 -39 -84 -83
q-35 -29 -55.5 -49.5t-31.5 -36.5q-12 -17 -17 -30.5t-9 -26.5h222v-58zM849 458q-32 73 -86 128q-55 54 -128 85.5t-155 31.5q-84 0 -157 -31.5t-127 -85.5q-55 -55 -87 -127.5t-32 -157.5t31.5 -157.5t86.5 -127.5q55 -54 127.5 -85.5t157.5 -31.5q84 0 156.5 31.5
t127.5 85.5q54 55 86 127.5t32 157.5t-33 157z" />
    <glyph glyph-name="uni2462" unicode="&#x2462;" horiz-adv-x="960" 
d="M788 -8q-60 -60 -138.5 -93.5t-169.5 -33.5t-170 33.5t-139 93.5t-93.5 139t-33.5 170t34 170t94 139t138.5 93.5t169.5 33.5q90 0 168.5 -33.5t138.5 -93.5t94.5 -139t34.5 -170t-34 -170t-94 -139zM393 205q0 -16 2.5 -37t10.5 -39q9 -19 26 -31.5t48 -12.5q29 0 58 24
t29 84q0 45 -22 71.5t-67 26.5h-30v51q24 0 43.5 3.5t33.5 13.5t22 26.5t8 43.5q0 43 -22.5 65t-48.5 22q-41 0 -57 -33q-16 -30 -19 -69h-67q5 86 46 123q43 37 98 37q30 0 55 -9.5t43.5 -27t29 -43t10.5 -56.5q0 -33 -8.5 -54.5t-20.5 -34.5q-11 -13 -22.5 -19t-17.5 -9
q8 -4 21.5 -10.5t26.5 -19.5q13 -14 22.5 -37t9.5 -59q0 -38 -11.5 -68.5t-31.5 -53t-49 -34.5t-63 -12q-69 0 -110 45t-44 133h68zM849 458q-32 73 -86 128q-55 54 -128 85.5t-155 31.5q-84 0 -157 -31.5t-127 -85.5q-55 -55 -87 -127.5t-32 -157.5t31.5 -157.5
t86.5 -127.5q55 -54 127.5 -85.5t157.5 -31.5q84 0 156.5 31.5t127.5 85.5q54 55 86 127.5t32 157.5t-33 157z" />
    <glyph glyph-name="uni2463" unicode="&#x2463;" horiz-adv-x="960" 
d="M788 -8q-60 -60 -138.5 -93.5t-169.5 -33.5t-170 33.5t-139 93.5t-93.5 139t-33.5 170t34 170t94 139t138.5 93.5t169.5 33.5q90 0 168.5 -33.5t138.5 -93.5t94.5 -139t34.5 -170t-34 -170t-94 -139zM849 458q-32 73 -86 128q-55 54 -128 85.5t-155 31.5
q-84 0 -157 -31.5t-127 -85.5q-55 -55 -87 -127.5t-32 -157.5t31.5 -157.5t86.5 -127.5q55 -54 127.5 -85.5t157.5 -31.5q84 0 156.5 31.5t127.5 85.5q54 55 86 127.5t32 157.5t-33 157zM560 53h-67v122h-190v59l48 84l24 42t25 42l97 170h63v-338h54v-59h-54v-122zM493 234
v222l-32 -56l-32 -55q-17 -28 -33 -56t-31 -55h128z" />
    <glyph glyph-name="uni2464" unicode="&#x2464;" horiz-adv-x="960" 
d="M788 -8q-60 -60 -138.5 -93.5t-169.5 -33.5t-170 33.5t-139 93.5t-93.5 139t-33.5 170t34 170t94 139t138.5 93.5t169.5 33.5q90 0 168.5 -33.5t138.5 -93.5t94.5 -139t34.5 -170t-34 -170t-94 -139zM636 -70q73 31 128 86q54 55 86 127.5t32 157.5t-32.5 157.5
t-86.5 127.5q-55 54 -128 85.5t-155 31.5q-84 0 -157 -31.5t-127 -85.5q-55 -55 -87 -127.5t-32 -157.5t31.5 -157.5t86.5 -127.5t127.5 -86.5t157.5 -31.5q84 0 156 32zM395 178q2 -15 6.5 -31t12.5 -30t22 -23t37 -9q24 0 41.5 12t28.5 30q11 19 16.5 42t5.5 45
q0 17 -4.5 37t-14.5 37t-25 28.5t-37 11.5q-8 0 -33 -9q-24 -7 -39 -38h-70l37 279h232v-58h-170l-20 -152q6 6 23 19t53 13q63 0 100 -47t37 -125q0 -84 -44 -133.5t-116 -49.5q-45 0 -72.5 16.5t-43.5 40.5q-17 24 -24 50t-8 44h69z" />
    <glyph glyph-name="uni2465" unicode="&#x2465;" horiz-adv-x="960" 
d="M788 -8q-60 -60 -138.5 -93.5t-169.5 -33.5t-170 33.5t-139 93.5t-93.5 139t-33.5 170t34 170t94 139t138.5 93.5t169.5 33.5q90 0 168.5 -33.5t138.5 -93.5t94.5 -139t34.5 -170t-34 -170t-94 -139zM636 -70q73 31 128 86q54 55 86 127.5t32 157.5t-32.5 157.5
t-86.5 127.5q-55 54 -128 85.5t-155 31.5q-84 0 -157 -31.5t-127 -85.5q-55 -55 -87 -127.5t-32 -157.5t31.5 -157.5t86.5 -127.5t127.5 -86.5t157.5 -31.5q84 0 156 32zM558 440q-12 75 -67 75q-34 0 -53 -22.5t-29 -53.5q-10 -32 -12.5 -66t-2.5 -58q4 8 11 19.5t19 21.5
q12 11 29 18.5t43 7.5q20 0 44 -8t45 -27q21 -20 35 -52.5t14 -81.5q0 -89 -45 -138q-44 -48 -103 -48q-48 0 -79 25t-50 64q-18 39 -25 85.5t-7 89.5q0 52 9.5 108t31.5 96q28 49 64 64t61 15q27 0 50.5 -10.5t41.5 -28.5t29.5 -42.5t14.5 -52.5h-69zM483 85q31 0 56 30
t25 94q0 43 -18 81q-18 37 -61 37q-33 0 -58 -29.5t-25 -86.5q0 -16 3 -37.5t12 -41.5t24.5 -33.5t41.5 -13.5z" />
    <glyph glyph-name="uni2466" unicode="&#x2466;" horiz-adv-x="960" 
d="M788 -8q-60 -60 -138.5 -93.5t-169.5 -33.5t-170 33.5t-139 93.5t-93.5 139t-33.5 170t34 170t94 139t138.5 93.5t169.5 33.5q90 0 168.5 -33.5t138.5 -93.5t94.5 -139t34.5 -170t-34 -170t-94 -139zM636 -70q73 31 128 86q54 55 86 127.5t32 157.5t-32.5 157.5
t-86.5 127.5q-55 54 -128 85.5t-155 31.5q-84 0 -157 -31.5t-127 -85.5q-55 -55 -87 -127.5t-32 -157.5t31.5 -157.5t86.5 -127.5t127.5 -86.5t157.5 -31.5q84 0 156 32zM398 22q6 95 43 213q37 121 120 246h-228v59h300v-59q-49 -69 -79.5 -131.5t-48.5 -119.5
q-18 -58 -26 -110t-11 -98h-70z" />
    <glyph glyph-name="uni2467" unicode="&#x2467;" horiz-adv-x="960" 
d="M582 342q-12 -13 -30 -21q8 -5 21.5 -13t27.5 -24q13 -16 23 -40t10 -60q0 -34 -10 -63t-29.5 -50t-48.5 -32.5t-66 -11.5q-38 0 -67 12t-48.5 33t-29.5 50t-10 62t9 57t22 40q13 15 27 24.5t25 15.5q-37 16 -52 49t-15 66q0 28 9 53.5t26.5 44t43.5 29.5t60 11
q33 0 58.5 -11t43.5 -29.5t27 -44t9 -53.5q0 -16 -3.5 -33t-11.5 -32.5t-21 -28.5zM517 351q14 10 21 24t9.5 28.5t2.5 24.5q-1 40 -19 64t-51 24q-21 0 -35 -8.5t-21 -21.5q-8 -13 -11 -28.5t-3 -29.5q0 -40 18 -63.5t52 -23.5q23 0 37 10zM520 94q17 10 26 25
q10 15 14.5 33.5t4.5 35.5q0 42 -21.5 74t-63.5 32q-40 0 -62.5 -30.5t-22.5 -75.5q0 -18 4 -36t14 -33q9 -15 25.5 -24.5t41.5 -9.5q24 0 40 9zM788 -8q-60 -60 -138.5 -93.5t-169.5 -33.5t-170 33.5t-139 93.5t-93.5 139t-33.5 170t34 170t94 139t138.5 93.5t169.5 33.5
q90 0 168.5 -33.5t138.5 -93.5t94.5 -139t34.5 -170t-34 -170t-94 -139zM636 -70q73 31 128 86q54 55 86 127.5t32 157.5t-32.5 157.5t-86.5 127.5q-55 54 -128 85.5t-155 31.5q-84 0 -157 -31.5t-127 -85.5q-55 -55 -87 -127.5t-32 -157.5t31.5 -157.5t86.5 -127.5
t127.5 -86.5t157.5 -31.5q84 0 156 32z" />
    <glyph glyph-name="uni2468" unicode="&#x2468;" horiz-adv-x="960" 
d="M788 -8q-60 -60 -138.5 -93.5t-169.5 -33.5t-170 33.5t-139 93.5t-93.5 139t-33.5 170t34 170t94 139t138.5 93.5t169.5 33.5q90 0 168.5 -33.5t138.5 -93.5t94.5 -139t34.5 -170t-34 -170t-94 -139zM636 -70q73 31 128 86q54 55 86 127.5t32 157.5t-32.5 157.5
t-86.5 127.5q-55 54 -128 85.5t-155 31.5q-84 0 -157 -31.5t-127 -85.5q-55 -55 -87 -127.5t-32 -157.5t31.5 -157.5t86.5 -127.5t127.5 -86.5t157.5 -31.5q84 0 156 32zM402 161q5 -39 22 -56.5t44 -17.5q33 0 52 21.5t28 52.5q10 31 12.5 65t4.5 60q-4 -8 -11 -19t-19 -22
t-29.5 -18.5t-41.5 -7.5q-21 0 -45.5 7.5t-45.5 27.5q-21 19 -34.5 51t-13.5 83q0 86 44 136t104 50q48 0 78.5 -25.5t48.5 -64.5q19 -39 26.5 -85.5t7.5 -88.5q0 -54 -10 -109.5t-31 -94.5q-29 -50 -66 -65q-37 -14 -59 -14q-57 0 -93 38.5t-43 95.5h70zM473 274
q35 0 59.5 31t24.5 85q0 15 -3.5 36.5t-12.5 41.5t-24.5 34t-40.5 14q-33 0 -57 -30t-24 -93q0 -57 21.5 -88t56.5 -31z" />
    <glyph glyph-name="uni2469" unicode="&#x2469;" horiz-adv-x="960" 
d="M733 126q-17 -39 -46 -63.5t-75 -24.5q-48 0 -76.5 25t-44.5 64q-16 38 -21.5 84.5t-5.5 89.5q0 42 5.5 88.5t21.5 85.5q16 38 44.5 63.5t76.5 25.5q46 0 75 -25.5t46 -64.5q16 -38 22 -84.5t6 -88.5q0 -45 -6 -91t-22 -84zM612 93q26 0 42 19.5t25 49.5t12 67t3 72
q0 34 -3 70.5t-12 66.5t-25 49.5t-42 19.5t-42 -19t-25 -48q-10 -30 -13 -66.5t-3 -72.5q0 -19 1 -54t9 -69q8 -35 24.5 -60t48.5 -25zM788 -8q-60 -60 -138.5 -93.5t-169.5 -33.5t-170 33.5t-139 93.5t-93.5 139t-33.5 170t34 170t94 139t138.5 93.5t169.5 33.5
q90 0 168.5 -33.5t138.5 -93.5t94.5 -139t34.5 -170t-34 -170t-94 -139zM354 51h-67v369h-79v47q30 4 56 18q25 13 39 65h51v-499zM849 458q-32 73 -86 128q-55 54 -128 85.5t-155 31.5q-84 0 -157 -31.5t-127 -85.5q-55 -55 -87 -127.5t-32 -157.5t31.5 -157.5t86.5 -127.5
q55 -54 127.5 -85.5t157.5 -31.5q84 0 156.5 31.5t127.5 85.5q54 55 86 127.5t32 157.5t-33 157z" />
    <glyph glyph-name="uni246A" unicode="&#x246a;" horiz-adv-x="960" 
d="M788 -8q-60 -60 -138.5 -93.5t-169.5 -33.5t-170 33.5t-139 93.5t-93.5 139t-33.5 170t34 170t94 139t138.5 93.5t169.5 33.5q90 0 168.5 -33.5t138.5 -93.5t94.5 -139t34.5 -170t-34 -170t-94 -139zM355 51h-67v369h-79v47q16 3 30.5 6.5t26 12.5t21 24t17.5 40h51v-499
zM688 51h-68v369h-79v47q16 3 30.5 6.5t26.5 12.5t21.5 24t16.5 40h52v-499zM849 458q-32 73 -86 128q-55 54 -128 85.5t-155 31.5q-84 0 -157 -31.5t-127 -85.5q-55 -55 -87 -127.5t-32 -157.5t31.5 -157.5t86.5 -127.5q55 -54 127.5 -85.5t157.5 -31.5q84 0 156.5 31.5
t127.5 85.5q54 55 86 127.5t32 157.5t-33 157z" />
    <glyph glyph-name="uni246B" unicode="&#x246b;" horiz-adv-x="960" 
d="M788 -8q-60 -60 -138.5 -93.5t-169.5 -33.5t-170 33.5t-139 93.5t-93.5 139t-33.5 170t34 170t94 139t138.5 93.5t169.5 33.5q90 0 168.5 -33.5t138.5 -93.5t94.5 -139t34.5 -170t-34 -170t-94 -139zM342 51h-67v369h-79v47q16 3 30.5 6.5t26.5 12.5t21.5 24t16.5 40h51
v-499zM748 51h-297q3 34 10.5 60t19.5 48q13 23 31.5 44.5t43.5 46.5q24 22 47 38.5t40 33.5q18 17 28.5 38.5t10.5 54.5q0 45 -22.5 68.5t-46.5 23.5q-29 0 -45.5 -15.5t-25.5 -36.5q-8 -21 -10.5 -42t-2.5 -31h-66q1 36 10 69t26 58q18 25 45.5 40t67.5 15q23 0 47 -8
t44 -25q19 -18 32 -45.5t13 -69.5q0 -56 -24 -93q-23 -34 -80 -79q-35 -27 -55 -46.5t-31 -35.5t-16 -29t-9 -26h215v-56zM849 458q-32 73 -86 128q-55 54 -128 85.5t-155 31.5q-84 0 -157 -31.5t-127 -85.5q-55 -55 -87 -127.5t-32 -157.5t31.5 -157.5t86.5 -127.5
q55 -54 127.5 -85.5t157.5 -31.5q84 0 156.5 31.5t127.5 85.5q54 55 86 127.5t32 157.5t-33 157z" />
    <glyph glyph-name="uni246C" unicode="&#x246c;" horiz-adv-x="960" 
d="M788 -8q-60 -60 -138.5 -93.5t-169.5 -33.5t-170 33.5t-139 93.5t-93.5 139t-33.5 170t34 170t94 139t138.5 93.5t169.5 33.5q90 0 168.5 -33.5t138.5 -93.5t94.5 -139t34.5 -170t-34 -170t-94 -139zM342 51h-67v369h-79v47q16 3 30.5 6.5t26.5 12.5t21.5 24t16.5 40h51
v-499zM516 208q0 -17 2.5 -37.5t10.5 -37.5q9 -17 25.5 -28.5t45.5 -11.5q12 0 27 4.5t27 15.5q13 12 22 32t9 52q0 43 -21 69t-64 26h-30v48q22 0 41 3.5t33 12.5t21.5 25.5t7.5 43.5q0 42 -18.5 62t-49.5 20q-39 0 -55 -31q-16 -30 -19 -67h-64q3 40 14.5 69.5t30 48.5
t43 28t51.5 9q57 0 94.5 -36t37.5 -96q0 -32 -8 -52t-18 -32q-11 -13 -22 -19t-18 -9q8 -3 21 -9t25 -19q13 -13 22 -35.5t9 -57.5q0 -36 -10.5 -65.5t-30 -51t-47.5 -33t-62 -11.5q-69 0 -106.5 44.5t-40.5 125.5h64zM849 458q-32 73 -86 128q-55 54 -128 85.5t-155 31.5
q-84 0 -157 -31.5t-127 -85.5q-55 -55 -87 -127.5t-32 -157.5t31.5 -157.5t86.5 -127.5q55 -54 127.5 -85.5t157.5 -31.5q84 0 156.5 31.5t127.5 85.5q54 55 86 127.5t32 157.5t-33 157z" />
    <glyph glyph-name="uni246D" unicode="&#x246d;" horiz-adv-x="960" 
d="M788 -8q-60 -60 -138.5 -93.5t-169.5 -33.5t-170 33.5t-139 93.5t-93.5 139t-33.5 170t34 170t94 139t138.5 93.5t169.5 33.5q90 0 168.5 -33.5t138.5 -93.5t94.5 -139t34.5 -170t-34 -170t-94 -139zM849 458q-32 73 -86 128q-55 54 -128 85.5t-155 31.5
q-84 0 -157 -31.5t-127 -85.5q-55 -55 -87 -127.5t-32 -157.5t31.5 -157.5t86.5 -127.5q55 -54 127.5 -85.5t157.5 -31.5q84 0 156.5 31.5t127.5 85.5q54 55 86 127.5t32 157.5t-33 157zM698 51h-64v118h-183v57l93 162l94 162h60v-324h52v-57h-52v-118zM342 51h-67v369h-79
v47q16 3 30.5 6.5t26.5 12.5t21.5 24t16.5 40h51v-499zM634 226v212q-32 -54 -63 -106t-61 -106h124z" />
    <glyph glyph-name="uni246E" unicode="&#x246e;" horiz-adv-x="960" 
d="M788 -8q-60 -60 -138.5 -93.5t-169.5 -33.5t-170 33.5t-139 93.5t-93.5 139t-33.5 170t34 170t94 139t138.5 93.5t169.5 33.5q90 0 168.5 -33.5t138.5 -93.5t94.5 -139t34.5 -170t-34 -170t-94 -139zM636 -70q73 31 128 86q54 55 86 127.5t32 157.5t-32.5 157.5
t-86.5 127.5q-55 54 -128 85.5t-155 31.5q-84 0 -157 -31.5t-127 -85.5q-55 -55 -87 -127.5t-32 -157.5t31.5 -157.5t86.5 -127.5t127.5 -86.5t157.5 -31.5q84 0 156 32zM517 182q3 -15 7.5 -31t12.5 -29t21.5 -21t34.5 -8q24 0 41.5 11.5t27.5 29.5q11 18 16 40t5 43
q0 18 -5.5 37t-15.5 36q-10 16 -24.5 26.5t-32.5 10.5q-5 0 -13.5 -1.5t-18.5 -6.5t-20.5 -14t-17.5 -24h-66q1 17 6 54.5t10 79.5l17 135h225v-56h-165q-2 -9 -4.5 -29.5t-5.5 -43.5l-9 -73q6 8 22.5 19.5t50.5 11.5q30 0 55 -12.5t42 -34t26.5 -52t9.5 -66.5
q0 -39 -11 -71.5t-31 -55.5t-49 -36t-65 -13q-46 0 -73.5 18t-42.5 43q-14 24 -19 48t-6 35h65zM342 51h-67v369h-79v47q16 3 30.5 6.5t26.5 12.5t21.5 24t16.5 40h51v-499z" />
    <glyph glyph-name="uni2474" unicode="&#x2474;" horiz-adv-x="960" 
d="M527 12h-76v426h-90v56q34 4 63 21q30 17 46 74h57v-577zM753 -116q13 21 34 59.5t41 92.5t35 120.5t15 144.5t-15 144t-36 120q-20 54 -41.5 92.5t-34.5 60.5h37q63 -94 96.5 -199.5t33.5 -217.5q0 -115 -33.5 -219t-96.5 -198h-35zM173 -116q-64 94 -97 198t-33 219
q0 112 33 217.5t97 199.5h36q-14 -22 -35 -60.5t-42 -92.5q-20 -54 -34.5 -120t-14.5 -144t14.5 -144.5t34.5 -120.5q21 -54 42 -92.5t35 -59.5h-36z" />
    <glyph glyph-name="uni2475" unicode="&#x2475;" horiz-adv-x="960" 
d="M647 12h-336q3 39 11.5 69.5t23.5 56.5q14 26 35 50.5t50 53.5q24 24 49.5 43.5t45.5 40.5q21 21 34.5 46t13.5 61q0 38 -20 73q-19 34 -59 34q-33 0 -51.5 -18t-28.5 -42q-9 -24 -12 -48t-3 -37h-76q2 36 11 73.5t28 67.5q20 30 51 49.5t79 19.5q26 0 53 -9t50 -29
q22 -20 36.5 -52.5t14.5 -80.5q0 -33 -6.5 -58.5t-20.5 -48.5t-36.5 -45.5t-54.5 -47.5q-39 -31 -61.5 -54t-34.5 -41q-13 -18 -18.5 -32.5t-9.5 -29.5h242v-65zM753 -116q13 21 34 59.5t41 92.5t35 120.5t15 144.5t-15 144t-36 120q-20 54 -41.5 92.5t-34.5 60.5h37
q63 -94 96.5 -199.5t33.5 -217.5q0 -115 -33.5 -219t-96.5 -198h-35zM173 -116q-64 94 -97 198t-33 219q0 112 33 217.5t97 199.5h36q-14 -22 -35 -60.5t-42 -92.5q-20 -54 -34.5 -120t-14.5 -144t14.5 -144.5t34.5 -120.5q21 -54 42 -92.5t35 -59.5h-36z" />
    <glyph glyph-name="uni2476" unicode="&#x2476;" horiz-adv-x="960" 
d="M385 194q1 -18 3.5 -41t11.5 -44q10 -20 28.5 -34t52.5 -14q15 0 32 5.5t30 19.5q14 14 23 37t9 57q0 51 -23.5 81t-72.5 30h-33v55h26q43 0 67 28.5t24 70.5q0 39 -21 66t-54 27q-6 0 -19 -3t-27 -14t-26 -33.5t-15 -62.5h-72q2 49 16 83.5t35 55.5t48.5 31t57.5 10
q33 0 60.5 -10.5t47.5 -30.5t31 -48t11 -63q0 -28 -7 -50t-17.5 -38t-24 -26t-26.5 -15q9 -5 23.5 -12t29.5 -22q14 -15 24.5 -41t10.5 -66q0 -42 -12.5 -76.5t-34.5 -58.5t-53.5 -37.5t-68.5 -13.5q-34 0 -58.5 8t-40.5 20q-17 12 -27.5 26.5t-16.5 27.5q-17 33 -21.5 63
t-4.5 52h74zM753 -116q13 21 34 59.5t41 92.5t35 120.5t15 144.5t-15 144t-36 120q-20 54 -41.5 92.5t-34.5 60.5h37q63 -94 96.5 -199.5t33.5 -217.5q0 -115 -33.5 -219t-96.5 -198h-35zM173 -116q-64 94 -97 198t-33 219q0 112 33 217.5t97 199.5h36q-14 -22 -35 -60.5
t-42 -92.5q-20 -54 -34.5 -120t-14.5 -144t14.5 -144.5t34.5 -120.5q21 -54 42 -92.5t35 -59.5h-36z" />
    <glyph glyph-name="uni2477" unicode="&#x2477;" horiz-adv-x="960" 
d="M571 12h-74v136h-208v66l213 375h69v-375h57v-66h-57v-136zM497 214v246q-18 -31 -35.5 -62t-34.5 -61q-18 -31 -35.5 -62t-34.5 -61h140zM753 -116q13 21 34 59.5t41 92.5t35 120.5t15 144.5t-15 144t-36 120q-20 54 -41.5 92.5t-34.5 60.5h37q63 -94 96.5 -199.5
t33.5 -217.5q0 -115 -33.5 -219t-96.5 -198h-35zM173 -116q-64 94 -97 198t-33 219q0 112 33 217.5t97 199.5h36q-14 -22 -35 -60.5t-42 -92.5q-20 -54 -34.5 -120t-14.5 -144t14.5 -144.5t34.5 -120.5q21 -54 42 -92.5t35 -59.5h-36z" />
    <glyph glyph-name="uni2478" unicode="&#x2478;" horiz-adv-x="960" 
d="M387 164q2 -15 6.5 -33t13.5 -34q10 -15 25.5 -25.5t40.5 -10.5q27 0 46 13.5t31 34.5t17.5 46t5.5 49q0 20 -5.5 42.5t-15.5 40.5q-11 19 -27.5 31t-39.5 12q-20 0 -42.5 -12.5t-36.5 -39.5h-75l9 77l30 234h254v-64h-186q-6 -43 -11.5 -85t-10.5 -84q3 4 9 10t15.5 12
t23.5 10t33 4q35 0 63 -14.5t48 -40t30.5 -60.5t10.5 -77q0 -93 -49 -148q-48 -55 -126 -55q-53 0 -84 20.5t-48 48.5t-23 55.5t-7 42.5h75zM753 -116q13 21 34 59.5t41 92.5t35 120.5t15 144.5t-15 144t-36 120q-20 54 -41.5 92.5t-34.5 60.5h37q63 -94 96.5 -199.5
t33.5 -217.5q0 -115 -33.5 -219t-96.5 -198h-35zM173 -116q-64 94 -97 198t-33 219q0 112 33 217.5t97 199.5h36q-14 -22 -35 -60.5t-42 -92.5q-20 -54 -34.5 -120t-14.5 -144t14.5 -144.5t34.5 -120.5q21 -54 42 -92.5t35 -59.5h-36z" />
    <glyph glyph-name="uni2479" unicode="&#x2479;" horiz-adv-x="960" 
d="M566 456q-6 42 -25.5 62.5t-48.5 20.5q-37 0 -57.5 -25t-31.5 -60q-10 -35 -13 -73t-3 -64q4 7 11.5 20t20.5 25q13 13 32.5 22t46.5 9q21 0 47 -9t49 -31q23 -21 39 -58t16 -92q0 -51 -13.5 -89.5t-36.5 -64.5q-22 -26 -51.5 -39.5t-60.5 -13.5q-52 0 -86 28t-54 71
t-28 95t-8 100q0 28 2.5 59t8.5 60.5t14.5 57t20.5 50.5q30 55 69 71q40 17 66 17q61 0 100 -45q40 -43 49 -104h-75zM483 61q34 0 61 32.5t27 104.5q0 22 -4 45.5t-14 42.5t-26 31.5t-41 12.5q-18 0 -34 -8t-29 -24.5t-20.5 -40.5t-7.5 -55q0 -19 3.5 -43.5t13.5 -45.5
q10 -22 27 -37t44 -15zM753 -116q13 21 34 59.5t41 92.5t35 120.5t15 144.5t-15 144t-36 120q-20 54 -41.5 92.5t-34.5 60.5h37q63 -94 96.5 -199.5t33.5 -217.5q0 -115 -33.5 -219t-96.5 -198h-35zM173 -116q-64 94 -97 198t-33 219q0 112 33 217.5t97 199.5h36
q-14 -22 -35 -60.5t-42 -92.5q-20 -54 -34.5 -120t-14.5 -144t14.5 -144.5t34.5 -120.5q21 -54 42 -92.5t35 -59.5h-36z" />
    <glyph glyph-name="uni247A" unicode="&#x247a;" horiz-adv-x="960" 
d="M394 0q4 57 16 119.5t34 128t53.5 132.5t75.5 133h-248v64h326v-64q-34 -49 -64 -104t-54 -116q-33 -83 -45 -150q-6 -34 -10.5 -69.5t-6.5 -73.5h-77zM753 -116q13 21 34 59.5t41 92.5t35 120.5t15 144.5t-15 144t-36 120q-20 54 -41.5 92.5t-34.5 60.5h37
q63 -94 96.5 -199.5t33.5 -217.5q0 -115 -33.5 -219t-96.5 -198h-35zM173 -116q-64 94 -97 198t-33 219q0 112 33 217.5t97 199.5h36q-14 -22 -35 -60.5t-42 -92.5q-20 -54 -34.5 -120t-14.5 -144t14.5 -144.5t34.5 -120.5q21 -54 42 -92.5t35 -59.5h-36z" />
    <glyph glyph-name="uni247B" unicode="&#x247b;" horiz-adv-x="960" 
d="M374 305q16 11 27 17q-10 5 -22.5 14.5t-23.5 25.5q-11 15 -18.5 37t-7.5 52q0 60 38 107q39 47 114 47q72 0 111 -46q39 -45 39 -108q0 -18 -4 -37.5t-12.5 -37t-22.5 -31.5t-33 -23q8 -5 23 -12.5t30 -24.5q15 -16 26 -44t11 -71q0 -38 -11.5 -69.5t-33 -54.5t-53 -36
t-70.5 -13q-42 0 -73.5 13t-53 36t-32.5 54.5t-11 69.5q0 36 10 62t24 44t29 29zM440 529q-15 -11 -23 -27q-9 -15 -11 -31.5t-2 -27.5q0 -45 20 -71.5t57 -26.5q25 0 40 11t23 27q7 16 9.5 32.5t2.5 27.5q0 42 -18.5 69.5t-56.5 27.5q-26 0 -41 -11zM391 134q5 -20 16 -36
q10 -17 28.5 -27t45.5 -10q26 0 43.5 10.5t28.5 26.5q10 17 15 37t5 39q0 47 -24 83q-22 37 -68 37q-45 0 -69.5 -34.5t-24.5 -85.5q0 -20 4 -40zM753 -116q13 21 34 59.5t41 92.5t35 120.5t15 144.5t-15 144t-36 120q-20 54 -41.5 92.5t-34.5 60.5h37q63 -94 96.5 -199.5
t33.5 -217.5q0 -115 -33.5 -219t-96.5 -198h-35zM173 -116q-64 94 -97 198t-33 219q0 112 33 217.5t97 199.5h36q-14 -22 -35 -60.5t-42 -92.5q-20 -54 -34.5 -120t-14.5 -144t14.5 -144.5t34.5 -120.5q21 -54 42 -92.5t35 -59.5h-36z" />
    <glyph glyph-name="uni247C" unicode="&#x247c;" horiz-adv-x="960" 
d="M394 145q12 -83 74 -83q36 0 56.5 24.5t31.5 59.5q10 35 13 73t4 65q-4 -8 -12 -21t-21 -25t-32 -20.5t-45 -8.5q-23 0 -49.5 8.5t-49.5 30.5t-38 57.5t-15 92.5q0 49 13 88t35 65q48 54 114 54q51 0 85 -28.5t54 -71.5q20 -45 28.5 -95.5t8.5 -98.5q0 -30 -2.5 -61
t-8.5 -61t-14.5 -57t-20.5 -48q-32 -56 -70 -72t-65 -16q-30 0 -55 11t-44.5 30.5t-32.5 47t-17 60.5h75zM473 271q38 0 65 34.5t27 94.5q0 17 -4 41t-14 46t-27 37.5t-43 15.5q-36 0 -62.5 -34t-26.5 -104q0 -60 22.5 -95.5t62.5 -35.5zM753 -116q13 21 34 59.5t41 92.5
t35 120.5t15 144.5t-15 144t-36 120q-20 54 -41.5 92.5t-34.5 60.5h37q63 -94 96.5 -199.5t33.5 -217.5q0 -115 -33.5 -219t-96.5 -198h-35zM173 -116q-64 94 -97 198t-33 219q0 112 33 217.5t97 199.5h36q-14 -22 -35 -60.5t-42 -92.5q-20 -54 -34.5 -120t-14.5 -144
t14.5 -144.5t34.5 -120.5q21 -54 42 -92.5t35 -59.5h-36z" />
    <glyph glyph-name="uni247D" unicode="&#x247d;" horiz-adv-x="960" 
d="M757 106q-18 -43 -49.5 -70.5t-82.5 -27.5q-52 0 -83.5 27.5t-49.5 70.5q-17 43 -23 95t-6 100t6 99.5t23 94.5q18 43 49.5 71t83.5 28q51 0 82.5 -28.5t49.5 -71.5q17 -43 23.5 -94t6.5 -99q0 -49 -6.5 -101t-23.5 -94zM626 69q27 0 44.5 21t27.5 55q10 33 14 74.5
t4 81.5q0 39 -4 80t-13 75q-10 33 -28 54.5t-46 21.5q-29 0 -46.5 -21.5t-27.5 -55.5q-10 -33 -13 -74t-3 -80q0 -21 1 -60t10 -77q8 -38 26.5 -66.5t53.5 -28.5zM346 23h-73v410h-87v53q32 6 61 21q28 16 43 72h56v-556zM753 -116q13 21 34 59.5t41 92.5t35 120.5t15 144.5
t-15 144t-36 120q-20 54 -41.5 92.5t-34.5 60.5h37q63 -94 96.5 -199.5t33.5 -217.5q0 -115 -33.5 -219t-96.5 -198h-35zM173 -116q-64 94 -97 198t-33 219q0 112 33 217.5t97 199.5h36q-14 -22 -35 -60.5t-42 -92.5q-20 -54 -34.5 -120t-14.5 -144t14.5 -144.5t34.5 -120.5
q21 -54 42 -92.5t35 -59.5h-36z" />
    <glyph glyph-name="uni247E" unicode="&#x247e;" horiz-adv-x="960" 
d="M704 23h-73v410h-87v54q31 4 61 20q28 16 43 72h56v-556zM347 23h-73v410h-87v54q31 4 61 20q30 17 43 72h56v-556zM753 -116q13 21 34 59.5t41 92.5t35 120.5t15 144.5t-15 144t-36 120q-20 54 -41.5 92.5t-34.5 60.5h37q63 -94 96.5 -199.5t33.5 -217.5
q0 -115 -33.5 -219t-96.5 -198h-35zM173 -116q-64 94 -97 198t-33 219q0 112 33 217.5t97 199.5h36q-14 -22 -35 -60.5t-42 -92.5q-20 -54 -34.5 -120t-14.5 -144t14.5 -144.5t34.5 -120.5q21 -54 42 -92.5t35 -59.5h-36z" />
    <glyph glyph-name="uni247F" unicode="&#x247f;" horiz-adv-x="960" 
d="M346 23h-73v410h-87v53q32 6 61 21q28 16 43 72h56v-556zM785 23h-324q3 37 10.5 66t21.5 54t34.5 49t49.5 52q25 25 50 43t44 37q20 19 32 42.5t12 61.5q0 16 -5 34t-14 34q-10 15 -24.5 25.5t-33.5 10.5q-32 0 -50 -17t-27 -40t-12 -46.5t-3 -36.5h-72q2 40 11.5 76.5
t28.5 64.5t48.5 44.5t74.5 16.5q25 0 51.5 -9t47.5 -28q21 -20 35 -51t14 -76q0 -59 -26 -102q-13 -21 -35 -43.5t-53 -47.5q-38 -30 -59.5 -52t-33.5 -39t-17.5 -31.5t-9.5 -29.5h234v-62zM753 -116q13 21 34 59.5t41 92.5t35 120.5t15 144.5t-15 144t-36 120
q-20 54 -41.5 92.5t-34.5 60.5h37q63 -94 96.5 -199.5t33.5 -217.5q0 -115 -33.5 -219t-96.5 -198h-35zM173 -116q-64 94 -97 198t-33 219q0 112 33 217.5t97 199.5h36q-14 -22 -35 -60.5t-42 -92.5q-20 -54 -34.5 -120t-14.5 -144t14.5 -144.5t34.5 -120.5q21 -54 42 -92.5
t35 -59.5h-36z" />
    <glyph glyph-name="uni2480" unicode="&#x2480;" horiz-adv-x="960" 
d="M346 23h-73v410h-87v53q32 6 61 21q28 16 43 72h56v-556zM528 197q0 -17 2.5 -39.5t11.5 -41.5q9 -20 27.5 -33.5t50.5 -13.5q14 0 30.5 5t30.5 19q13 13 22.5 35.5t9.5 56.5q0 48 -23 77t-71 29h-32v53h25q42 0 65 27t23 69q0 46 -23.5 69t-50.5 23t-43 -13.5t-25 -31.5
q-8 -19 -11 -37.5t-3 -28.5h-70q3 49 18 82t36 53q22 20 48 29t51 9q31 0 58 -10.5t46 -29.5t30 -46t11 -60q0 -35 -9 -58t-21 -37t-24 -20.5t-19 -9.5q8 -4 22.5 -11t27.5 -22q14 -15 24 -39.5t10 -63.5q0 -41 -11.5 -74t-33 -56t-52 -36t-67.5 -13q-72 0 -115 47.5
t-46 141.5h70zM753 -116q13 21 34 59.5t41 92.5t35 120.5t15 144.5t-15 144t-36 120q-20 54 -41.5 92.5t-34.5 60.5h37q63 -94 96.5 -199.5t33.5 -217.5q0 -115 -33.5 -219t-96.5 -198h-35zM173 -116q-64 94 -97 198t-33 219q0 112 33 217.5t97 199.5h36q-14 -22 -35 -60.5
t-42 -92.5q-20 -54 -34.5 -120t-14.5 -144t14.5 -144.5t34.5 -120.5q21 -54 42 -92.5t35 -59.5h-36z" />
    <glyph glyph-name="uni2481" unicode="&#x2481;" horiz-adv-x="960" 
d="M724 23h-71v131h-200v62l204 363h67v-363h56v-62h-56v-131zM653 216v238q-34 -60 -68 -119t-67 -119h135zM346 23h-73v410h-87v53q32 6 61 21q28 16 43 72h56v-556zM753 -116q13 21 34 59.5t41 92.5t35 120.5t15 144.5t-15 144t-36 120q-20 54 -41.5 92.5t-34.5 60.5h37
q63 -94 96.5 -199.5t33.5 -217.5q0 -115 -33.5 -219t-96.5 -198h-35zM173 -116q-64 94 -97 198t-33 219q0 112 33 217.5t97 199.5h36q-14 -22 -35 -60.5t-42 -92.5q-20 -54 -34.5 -120t-14.5 -144t14.5 -144.5t34.5 -120.5q21 -54 42 -92.5t35 -59.5h-36z" />
    <glyph glyph-name="uni2482" unicode="&#x2482;" horiz-adv-x="960" 
d="M535 168q2 -15 6.5 -32.5t13.5 -32.5q8 -15 23 -24.5t39 -9.5q26 0 44.5 13t30.5 33t17.5 45t5.5 48q0 19 -5 40.5t-15 39.5q-11 18 -27 30t-38 12q-10 0 -35 -9q-27 -9 -43 -42h-72l38 300h245v-62h-180q-2 -10 -5 -33.5t-6 -48.5l-10 -81l9 9q7 7 15 11q10 6 23.5 10
t33.5 4q33 0 60 -13.5t45.5 -38t29 -58.5t10.5 -74q0 -44 -12 -80t-34.5 -61.5t-54 -40t-70.5 -14.5q-51 0 -80.5 19.5t-44.5 46.5q-16 27 -22 53.5t-7 40.5h72zM346 23h-73v410h-87v53q32 6 61 21q28 16 43 72h56v-556zM753 -116q13 21 34 59.5t41 92.5t35 120.5t15 144.5
t-15 144t-36 120q-20 54 -41.5 92.5t-34.5 60.5h37q63 -94 96.5 -199.5t33.5 -217.5q0 -115 -33.5 -219t-96.5 -198h-35zM173 -116q-64 94 -97 198t-33 219q0 112 33 217.5t97 199.5h36q-14 -22 -35 -60.5t-42 -92.5q-20 -54 -34.5 -120t-14.5 -144t14.5 -144.5t34.5 -120.5
q21 -54 42 -92.5t35 -59.5h-36z" />
    <glyph glyph-name="uni249C" unicode="&#x249c;" horiz-adv-x="960" 
d="M727 -105q63 94 88.5 196.5t25.5 208.5q0 103 -25 207t-89 198h42q21 -28 44.5 -66.5t43.5 -89.5q19 -51 32.5 -112.5t13.5 -136.5q0 -76 -13.5 -138.5t-33.5 -113.5t-43.5 -89t-43.5 -64h-42zM191 -105q-21 26 -44.5 64t-43.5 89t-33 113.5t-13 138.5q0 75 13 136.5
t33 112.5q19 51 43 89.5t45 66.5h41q-64 -94 -88.5 -198t-24.5 -207q0 -106 25 -208.5t88 -196.5h-41zM606 71q-14 26 -14 58q-11 -14 -26.5 -27t-36 -24t-44 -17.5t-48.5 -6.5q-30 0 -55.5 8t-44 24.5t-29.5 41.5t-11 59q0 39 12.5 64.5t33.5 41.5q20 16 46.5 24t54.5 13
t54.5 8t46.5 10q21 6 34 17.5t13 32.5q0 13 -5 26t-16.5 23.5t-30 17t-45.5 6.5q-19 0 -37 -4.5t-32 -14.5q-14 -9 -22 -25t-5 -38h-79q-3 34 10 62.5t37 48.5q48 43 128 43q73 0 123 -39q24 -19 38.5 -46t14.5 -60v-256q0 -30 7 -50t8 -21h-80zM592 303q-8 -11 -27 -17.5
t-43 -10.5q-23 -4 -46 -7.5t-38 -8.5q-28 -11 -44 -27.5t-16 -41.5q0 -32 22 -45.5t51 -13.5q32 0 58 11t44 28q19 16 29 36t10 37v60z" />
    <glyph glyph-name="uni249D" unicode="&#x249d;" horiz-adv-x="960" 
d="M727 -105q63 94 88.5 196.5t25.5 208.5q0 103 -25 207t-89 198h42q21 -28 44.5 -66.5t43.5 -89.5q19 -51 32.5 -112.5t13.5 -136.5q0 -76 -13.5 -138.5t-33.5 -113.5t-43.5 -89t-43.5 -64h-42zM191 -105q-21 26 -44.5 64t-43.5 89t-33 113.5t-13 138.5q0 75 13 136.5
t33 112.5q19 51 43 89.5t45 66.5h41q-64 -94 -88.5 -198t-24.5 -207q0 -106 25 -208.5t88 -196.5h-41zM376 -15h-79v625h79v-215q24 29 57 45.5t73 16.5q42 0 75.5 -18.5t58.5 -50.5q24 -32 37.5 -76.5t13.5 -98.5t-13.5 -99t-37.5 -77q-51 -68 -134 -68q-40 0 -73 16.5
t-57 45.5v-46zM540 59q22 13 37 35t23 52.5t8 66.5t-8 67t-23 53t-36.5 34.5t-48.5 12.5t-48.5 -12.5t-36.5 -34.5t-23 -53t-8 -67q0 -73 30.5 -119.5t85.5 -46.5q27 0 48 12z" />
    <glyph glyph-name="uni249E" unicode="&#x249e;" horiz-adv-x="960" 
d="M191 -105q-21 26 -44.5 64t-43.5 89t-33 113.5t-13 138.5q0 75 13 136.5t33 112.5q19 51 43 89.5t45 66.5h41q-64 -94 -88.5 -198t-24.5 -207q0 -106 25 -208.5t88 -196.5h-41zM727 -105q63 94 88.5 196.5t25.5 208.5q0 103 -25 207t-89 198h42q21 -28 44.5 -66.5
t43.5 -89.5q19 -51 32.5 -112.5t13.5 -136.5q0 -76 -13.5 -138.5t-33.5 -113.5t-43.5 -89t-43.5 -64h-42zM676 210q-8 -30 -23 -58t-38 -50t-54.5 -34.5t-71.5 -12.5q-48 0 -84 19t-62 52q-25 33 -38.5 77.5t-13.5 95.5t13.5 95t38.5 77q26 33 62 52.5t84 19.5
q40 0 72.5 -14.5t56.5 -36.5q23 -22 38 -49.5t20 -54.5h-87q-6 23 -29 51q-22 28 -70 28q-54 0 -86 -50q-31 -49 -31 -118t31 -118t86 -49q42 0 66.5 24t32.5 54h87z" />
    <glyph glyph-name="uni249F" unicode="&#x249f;" horiz-adv-x="960" 
d="M727 -105q63 94 88.5 196.5t25.5 208.5q0 103 -25 207t-89 198h42q21 -28 44.5 -66.5t43.5 -89.5q19 -51 32.5 -112.5t13.5 -136.5q0 -76 -13.5 -138.5t-33.5 -113.5t-43.5 -89t-43.5 -64h-42zM191 -105q-21 26 -44.5 64t-43.5 89t-33 113.5t-13 138.5q0 75 13 136.5
t33 112.5q19 51 43 89.5t45 66.5h41q-64 -94 -88.5 -198t-24.5 -207q0 -106 25 -208.5t88 -196.5h-41zM662 -12h-80v47q-24 -30 -57 -46.5t-72 -16.5q-42 0 -76.5 18t-58.5 50q-51 66 -51 176q0 109 51 175q24 32 58.5 50.5t76.5 18.5q39 0 72 -16t57 -45v215h80v-626z
M467 50q55 0 85 46.5t30 119.5q0 36 -7.5 67t-22.5 53t-36.5 34.5t-48.5 12.5q-28 0 -49.5 -12.5t-36.5 -34.5t-22.5 -53t-7.5 -67q0 -73 29.5 -119.5t86.5 -46.5z" />
    <glyph glyph-name="uni24A0" unicode="&#x24a0;" horiz-adv-x="960" 
d="M191 -105q-21 26 -44.5 64t-43.5 89t-33 113.5t-13 138.5q0 75 13 136.5t33 112.5q19 51 43 89.5t45 66.5h41q-64 -94 -88.5 -198t-24.5 -207q0 -106 25 -208.5t88 -196.5h-41zM727 -105q63 94 88.5 196.5t25.5 208.5q0 103 -25 207t-89 198h42q21 -28 44.5 -66.5
t43.5 -89.5q19 -51 32.5 -112.5t13.5 -136.5q0 -76 -13.5 -138.5t-33.5 -113.5t-43.5 -89t-43.5 -64h-42zM663 192q-7 -24 -20.5 -49t-35.5 -44q-22 -20 -53 -32.5t-73 -12.5q-45 0 -81.5 19t-63.5 52t-41.5 77.5t-14.5 95.5t14 95t40 78q26 33 62.5 52.5t82.5 19.5
q40 0 77 -17t64 -51q28 -35 43.5 -86t13.5 -120h-312q0 -27 9 -51.5t25 -44.5q15 -19 35.5 -30.5t44.5 -11.5q21 0 37.5 5.5t28 14.5t19 20t10.5 21h89zM591 341q-5 50 -34 87q-29 38 -78 38q-48 0 -77 -35.5t-35 -89.5h224z" />
    <glyph glyph-name="uni24A1" unicode="&#x24a1;" horiz-adv-x="960" 
d="M727 -105q63 94 88.5 196.5t25.5 208.5q0 103 -25 207t-89 198h42q21 -28 44.5 -66.5t43.5 -89.5q19 -51 32.5 -112.5t13.5 -136.5q0 -76 -13.5 -138.5t-33.5 -113.5t-43.5 -89t-43.5 -64h-42zM515 -11h-79v382h-51v71h51v51q0 118 87 118h49v-71q-36 0 -46.5 -14.5
t-10.5 -45.5v-38h57v-71h-57v-382zM191 -105q-21 26 -44.5 64t-43.5 89t-33 113.5t-13 138.5q0 75 13 136.5t33 112.5q19 51 43 89.5t45 66.5h41q-64 -94 -88.5 -198t-24.5 -207q0 -106 25 -208.5t88 -196.5h-41z" />
    <glyph glyph-name="uni24A2" unicode="&#x24a2;" horiz-adv-x="960" 
d="M671 177q0 -54 -17 -89.5t-44 -57.5q-28 -22 -62 -31t-68 -9q-43 0 -77 12t-58 33q-24 20 -37.5 47t-14.5 56h80q1 -30 27.5 -53.5t80.5 -23.5t82.5 29.5t28.5 83.5v59q-51 -62 -130 -62q-40 0 -74 17t-59 48q-25 30 -39 70.5t-14 88.5q0 46 13.5 87t37.5 71
q25 30 59 47.5t76 17.5q39 0 72 -16t58 -43v43h79v-425zM727 -105q63 94 88.5 196.5t25.5 208.5q0 103 -25 207t-89 198h42q21 -28 44.5 -66.5t43.5 -89.5q19 -51 32.5 -112.5t13.5 -136.5q0 -76 -13.5 -138.5t-33.5 -113.5t-43.5 -89t-43.5 -64h-42zM191 -105
q-21 26 -44.5 64t-43.5 89t-33 113.5t-13 138.5q0 75 13 136.5t33 112.5q19 51 43 89.5t45 66.5h41q-64 -94 -88.5 -198t-24.5 -207q0 -106 25 -208.5t88 -196.5h-41zM475 248q52 0 84.5 40.5t32.5 106.5t-32.5 106t-84.5 40q-54 0 -84.5 -40t-30.5 -106t30.5 -106.5
t84.5 -40.5z" />
    <glyph glyph-name="uni24A3" unicode="&#x24a3;" horiz-adv-x="960" 
d="M727 -105q63 94 88.5 196.5t25.5 208.5q0 103 -25 207t-89 198h42q21 -28 44.5 -66.5t43.5 -89.5q19 -51 32.5 -112.5t13.5 -136.5q0 -76 -13.5 -138.5t-33.5 -113.5t-43.5 -89t-43.5 -64h-42zM191 -105q-21 26 -44.5 64t-43.5 89t-33 113.5t-13 138.5q0 75 13 136.5
t33 112.5q19 51 43 89.5t45 66.5h41q-64 -94 -88.5 -198t-24.5 -207q0 -106 25 -208.5t88 -196.5h-41zM660 -14h-79v278q0 57 -20.5 83t-65.5 26q-23 0 -42 -9.5t-33 -26t-22 -38.5t-8 -48v-265h-79v626h79v-218q20 22 52 42.5t77 20.5q37 0 63.5 -14.5t43.5 -37.5
q17 -22 25.5 -49.5t8.5 -52.5v-317z" />
    <glyph glyph-name="uni24A4" unicode="&#x24a4;" horiz-adv-x="960" 
d="M191 -105q-21 26 -44.5 64t-43.5 89t-33 113.5t-13 138.5q0 75 13 136.5t33 112.5q19 51 43 89.5t45 66.5h41q-64 -94 -88.5 -198t-24.5 -207q0 -106 25 -208.5t88 -196.5h-41zM727 -105q63 94 88.5 196.5t25.5 208.5q0 103 -25 207t-89 198h42q21 -28 44.5 -66.5
t43.5 -89.5q19 -51 32.5 -112.5t13.5 -136.5q0 -76 -13.5 -138.5t-33.5 -113.5t-43.5 -89t-43.5 -64h-42zM519 -13h-79v456h79v-456zM519 525h-79v88h79v-88z" />
    <glyph glyph-name="uni24A5" unicode="&#x24a5;" horiz-adv-x="960" 
d="M191 -105q-21 26 -44.5 64t-43.5 89t-33 113.5t-13 138.5q0 75 13 136.5t33 112.5q19 51 43 89.5t45 66.5h41q-64 -94 -88.5 -198t-24.5 -207q0 -106 25 -208.5t88 -196.5h-41zM727 -105q63 94 88.5 196.5t25.5 208.5q0 103 -25 207t-89 198h42q21 -28 44.5 -66.5
t43.5 -89.5q19 -51 32.5 -112.5t13.5 -136.5q0 -76 -13.5 -138.5t-33.5 -113.5t-43.5 -89t-43.5 -64h-42zM533 600h-80v88h80v-88zM533 32q0 -33 -5 -54t-15 -34q-12 -14 -30.5 -22.5t-42.5 -8.5h-44v72q5 0 11 -0.5t12 0.5t11.5 3t10.5 7q8 8 10 21q1 6 1.5 13t0.5 16v469
h80v-482z" />
    <glyph glyph-name="uni24A6" unicode="&#x24a6;" horiz-adv-x="960" 
d="M584 -12l-40 56l-40 57q-20 28 -40 56.5t-40 57.5l-47 -47v-180h-79v625h79v-345l85 87l86 88h95l-165 -171q24 -36 48.5 -71.5t49.5 -71.5q24 -35 48.5 -70.5t49.5 -70.5h-90zM191 -105q-21 26 -44.5 64t-43.5 89t-33 113.5t-13 138.5q0 75 13 136.5t33 112.5
q19 51 43 89.5t45 66.5h41q-64 -94 -88.5 -198t-24.5 -207q0 -106 25 -208.5t88 -196.5h-41zM727 -105q63 94 88.5 196.5t25.5 208.5q0 103 -25 207t-89 198h42q21 -28 44.5 -66.5t43.5 -89.5q19 -51 32.5 -112.5t13.5 -136.5q0 -76 -13.5 -138.5t-33.5 -113.5t-43.5 -89
t-43.5 -64h-42z" />
    <glyph glyph-name="uni24A7" unicode="&#x24a7;" horiz-adv-x="960" 
d="M727 -105q63 94 88.5 196.5t25.5 208.5q0 103 -25 207t-89 198h42q21 -28 44.5 -66.5t43.5 -89.5q19 -51 32.5 -112.5t13.5 -136.5q0 -76 -13.5 -138.5t-33.5 -113.5t-43.5 -89t-43.5 -64h-42zM519 -13h-79v626h79v-626zM191 -105q-21 26 -44.5 64t-43.5 89t-33 113.5
t-13 138.5q0 75 13 136.5t33 112.5q19 51 43 89.5t45 66.5h41q-64 -94 -88.5 -198t-24.5 -207q0 -106 25 -208.5t88 -196.5h-41z" />
    <glyph glyph-name="uni24A8" unicode="&#x24a8;" horiz-adv-x="960" 
d="M727 -105q63 94 88.5 196.5t25.5 208.5q0 103 -25 207t-89 198h42q21 -28 44.5 -66.5t43.5 -89.5q19 -51 32.5 -112.5t13.5 -136.5q0 -76 -13.5 -138.5t-33.5 -113.5t-43.5 -89t-43.5 -64h-42zM747 63h-79v290q0 48 -11.5 75t-49.5 27q-42 0 -65 -30.5t-23 -85.5v-276
h-79v290q0 48 -11 75t-49 27q-40 0 -64.5 -30.5t-24.5 -85.5v-276h-78v456h78v-51q9 10 19.5 22t24 22t31 16.5t40.5 6.5q33 0 59 -18t41 -53q6 8 15.5 20t23.5 23q14 12 33.5 20t46.5 8q34 0 57 -13t38 -34q14 -21 20.5 -49t6.5 -58v-318zM191 -105q-21 26 -44.5 64
t-43.5 89t-33 113.5t-13 138.5q0 75 13 136.5t33 112.5q19 51 43 89.5t45 66.5h41q-64 -94 -88.5 -198t-24.5 -207q0 -106 25 -208.5t88 -196.5h-41z" />
    <glyph glyph-name="uni24A9" unicode="&#x24a9;" horiz-adv-x="960" 
d="M727 -105q63 94 88.5 196.5t25.5 208.5q0 103 -25 207t-89 198h42q21 -28 44.5 -66.5t43.5 -89.5q19 -51 32.5 -112.5t13.5 -136.5q0 -76 -13.5 -138.5t-33.5 -113.5t-43.5 -89t-43.5 -64h-42zM191 -105q-21 26 -44.5 64t-43.5 89t-33 113.5t-13 138.5q0 75 13 136.5
t33 112.5q19 51 43 89.5t45 66.5h41q-64 -94 -88.5 -198t-24.5 -207q0 -106 25 -208.5t88 -196.5h-41zM654 62h-79v279q0 57 -21.5 83t-64.5 26q-23 0 -42.5 -9.5t-33.5 -26t-22 -39t-8 -47.5v-266h-79v457h79v-49q20 24 52.5 44t77.5 20q36 0 63 -15t44 -38t25.5 -50.5
t8.5 -51.5v-317z" />
    <glyph glyph-name="uni24AA" unicode="&#x24aa;" horiz-adv-x="960" 
d="M191 -105q-21 26 -44.5 64t-43.5 89t-33 113.5t-13 138.5q0 75 13 136.5t33 112.5q19 51 43 89.5t45 66.5h41q-64 -94 -88.5 -198t-24.5 -207q0 -106 25 -208.5t88 -196.5h-41zM727 -105q63 94 88.5 196.5t25.5 208.5q0 103 -25 207t-89 198h42q21 -28 44.5 -66.5
t43.5 -89.5q19 -51 32.5 -112.5t13.5 -136.5q0 -76 -13.5 -138.5t-33.5 -113.5t-43.5 -89t-43.5 -64h-42zM625 125q-26 -33 -62.5 -52t-82.5 -19q-48 0 -84 19t-62 52t-39.5 77.5t-13.5 95.5t13.5 95t39.5 78q26 33 62 52.5t84 19.5q46 0 82.5 -19.5t62.5 -52.5
q26 -34 40 -78t14 -95t-14 -95.5t-40 -77.5zM480 131q53 0 84 49q32 50 32 118t-32 118t-84 50q-53 0 -85 -50q-31 -49 -31 -118t31 -118t85 -49z" />
    <glyph glyph-name="uni24AB" unicode="&#x24ab;" horiz-adv-x="960" 
d="M384 -3h-79v605h79v-46q24 29 57.5 45.5t72.5 16.5q42 0 76 -18.5t58 -50.5q25 -32 38.5 -76.5t13.5 -98.5t-13.5 -99t-38.5 -77q-24 -32 -58 -50t-76 -18q-80 0 -130 62v-195zM727 -105q63 94 88.5 196.5t25.5 208.5q0 103 -25 207t-89 198h42q21 -28 44.5 -66.5
t43.5 -89.5q19 -51 32.5 -112.5t13.5 -136.5q0 -76 -13.5 -138.5t-33.5 -113.5t-43.5 -89t-43.5 -64h-42zM191 -105q-21 26 -44.5 64t-43.5 89t-33 113.5t-13 138.5q0 75 13 136.5t33 112.5q19 51 43 89.5t45 66.5h41q-64 -94 -88.5 -198t-24.5 -207q0 -106 25 -208.5
t88 -196.5h-41zM501 208q54 0 84.5 45.5t30.5 120.5q0 36 -8 67t-22.5 53t-36 34.5t-48.5 12.5t-49 -12.5t-37 -34.5t-23 -53t-8 -67q0 -75 31 -120.5t86 -45.5z" />
    <glyph glyph-name="uni24AC" unicode="&#x24ac;" horiz-adv-x="960" 
d="M652 -3h-79v195q-24 -30 -57 -46t-72 -16q-42 0 -76.5 18t-59.5 50q-51 66 -51 176q0 109 51 175q25 32 59.5 50.5t76.5 18.5q79 0 129 -62v46h79v-605zM727 -105q63 94 88.5 196.5t25.5 208.5q0 103 -25 207t-89 198h42q21 -28 44.5 -66.5t43.5 -89.5
q19 -51 32.5 -112.5t13.5 -136.5q0 -76 -13.5 -138.5t-33.5 -113.5t-43.5 -89t-43.5 -64h-42zM191 -105q-21 26 -44.5 64t-43.5 89t-33 113.5t-13 138.5q0 75 13 136.5t33 112.5q19 51 43 89.5t45 66.5h41q-64 -94 -88.5 -198t-24.5 -207q0 -106 25 -208.5t88 -196.5h-41z
M457 208q54 0 85 45.5t31 120.5q0 36 -8 67t-23 53t-36.5 34.5t-48.5 12.5t-48.5 -12.5t-36.5 -34.5t-23 -53t-8 -67q0 -75 30.5 -120.5t85.5 -45.5z" />
    <glyph glyph-name="uni24AD" unicode="&#x24ad;" horiz-adv-x="960" 
d="M470 72h-79v456h79v-68q15 26 31 42t43 29q18 9 37.5 11t21.5 2v-88q-63 0 -98 -40.5t-35 -118.5v-225zM727 -105q63 94 88.5 196.5t25.5 208.5q0 103 -25 207t-89 198h42q21 -28 44.5 -66.5t43.5 -89.5q19 -51 32.5 -112.5t13.5 -136.5q0 -76 -13.5 -138.5t-33.5 -113.5
t-43.5 -89t-43.5 -64h-42zM191 -105q-21 26 -44.5 64t-43.5 89t-33 113.5t-13 138.5q0 75 13 136.5t33 112.5q19 51 43 89.5t45 66.5h41q-64 -94 -88.5 -198t-24.5 -207q0 -106 25 -208.5t88 -196.5h-41z" />
    <glyph glyph-name="uni24AE" unicode="&#x24ae;" horiz-adv-x="960" 
d="M727 -105q63 94 88.5 196.5t25.5 208.5q0 103 -25 207t-89 198h42q21 -28 44.5 -66.5t43.5 -89.5q19 -51 32.5 -112.5t13.5 -136.5q0 -76 -13.5 -138.5t-33.5 -113.5t-43.5 -89t-43.5 -64h-42zM191 -105q-21 26 -44.5 64t-43.5 89t-33 113.5t-13 138.5q0 75 13 136.5
t33 112.5q19 51 43 89.5t45 66.5h41q-64 -94 -88.5 -198t-24.5 -207q0 -106 25 -208.5t88 -196.5h-41zM653 194q-2 -30 -16 -55t-36 -44t-51 -29.5t-62 -10.5q-54 0 -88.5 16.5t-55.5 41.5q-21 24 -30 51.5t-9 48.5h78q3 -35 27.5 -57.5t73.5 -22.5q42 0 64.5 18.5
t22.5 46.5q-1 23 -21 38t-48 24q-28 10 -57 17t-46 15q-36 15 -57 42.5t-21 69.5q0 25 9.5 49.5t29.5 44.5t49 32.5t71 12.5q40 0 70 -13.5t50 -33.5q20 -21 30 -46t10 -48h-77q0 9 -4 20t-13 21q-10 9 -26 16t-41 7q-43 0 -61 -18t-19 -36q0 -19 10.5 -31.5t28.5 -20.5
q18 -9 41 -15.5t47 -13.5q23 -7 46 -16.5t41 -24.5t29 -36.5t11 -52.5v-7z" />
    <glyph glyph-name="uni24AF" unicode="&#x24af;" horiz-adv-x="960" 
d="M727 -105q63 94 88.5 196.5t25.5 208.5q0 103 -25 207t-89 198h42q21 -28 44.5 -66.5t43.5 -89.5q19 -51 32.5 -112.5t13.5 -136.5q0 -76 -13.5 -138.5t-33.5 -113.5t-43.5 -89t-43.5 -64h-42zM191 -105q-21 26 -44.5 64t-43.5 89t-33 113.5t-13 138.5q0 75 13 136.5
t33 112.5q19 51 43 89.5t45 66.5h41q-64 -94 -88.5 -198t-24.5 -207q0 -106 25 -208.5t88 -196.5h-41zM572 2h-49q-39 0 -63 28t-24 91v265h-50v72h50v138h79v-138h57v-72h-57v-252q0 -33 13 -46.5t44 -13.5v-72z" />
    <glyph glyph-name="uni24B0" unicode="&#x24b0;" horiz-adv-x="960" 
d="M191 -105q-21 26 -44.5 64t-43.5 89t-33 113.5t-13 138.5q0 75 13 136.5t33 112.5q19 51 43 89.5t45 66.5h41q-64 -94 -88.5 -198t-24.5 -207q0 -106 25 -208.5t88 -196.5h-41zM727 -105q63 94 88.5 196.5t25.5 208.5q0 103 -25 207t-89 198h42q21 -28 44.5 -66.5
t43.5 -89.5q19 -51 32.5 -112.5t13.5 -136.5q0 -76 -13.5 -138.5t-33.5 -113.5t-43.5 -89t-43.5 -64h-42zM655 79h-79v53q-18 -27 -52.5 -48.5t-79.5 -20.5q-55 0 -97 42q-41 43 -41 118v312h80v-280q0 -58 23 -85t66 -24q43 2 72 33.5t29 91.5v264h79v-456z" />
    <glyph glyph-name="uni24B1" unicode="&#x24b1;" horiz-adv-x="960" 
d="M527 72h-93l-76 227q-19 57 -38 113.5t-37 113.5h84l114 -354l114 354h84q-20 -57 -39 -113.5t-37 -113.5zM191 -105q-21 26 -44.5 64t-43.5 89t-33 113.5t-13 138.5q0 75 13 136.5t33 112.5q19 51 43 89.5t45 66.5h41q-64 -94 -88.5 -198t-24.5 -207q0 -106 25 -208.5
t88 -196.5h-41zM727 -105q63 94 88.5 196.5t25.5 208.5q0 103 -25 207t-89 198h42q21 -28 44.5 -66.5t43.5 -89.5q19 -51 32.5 -112.5t13.5 -136.5q0 -76 -13.5 -138.5t-33.5 -113.5t-43.5 -89t-43.5 -64h-42z" />
    <glyph glyph-name="uni24B2" unicode="&#x24b2;" horiz-adv-x="960" 
d="M641 70h-86q-19 78 -37.5 156t-36.5 156q-5 -20 -9.5 -39t-9.5 -39l-18 -78q-5 -20 -9.5 -39t-9.5 -39l-18 -78h-87l-56 226q-15 57 -29 113.5t-27 113.5h79q9 -42 18.5 -82t19.5 -82l39 -164l18 82q5 20 9.5 41t9.5 41l18 82q5 20 9.5 41t9.5 41h86l18 -82
q5 -20 9.5 -41t9.5 -41l18 -82q5 -20 9.5 -41t9.5 -41q9 42 18.5 82t19.5 82l39 164h79q-15 -57 -29 -113.5t-28 -113.5zM191 -105q-21 26 -44.5 64t-43.5 89t-33 113.5t-13 138.5q0 75 13 136.5t33 112.5q19 51 43 89.5t45 66.5h41q-64 -94 -88.5 -198t-24.5 -207
q0 -106 25 -208.5t88 -196.5h-41zM727 -105q63 94 88.5 196.5t25.5 208.5q0 103 -25 207t-89 198h42q21 -28 44.5 -66.5t43.5 -89.5q19 -51 32.5 -112.5t13.5 -136.5q0 -76 -13.5 -138.5t-33.5 -113.5t-43.5 -89t-43.5 -64h-42z" />
    <glyph glyph-name="uni24B3" unicode="&#x24b3;" horiz-adv-x="960" 
d="M675 70h-92q-26 40 -51.5 80.5t-50.5 80.5q-26 -40 -51.5 -80.5t-50.5 -80.5h-92q18 29 36.5 58t37.5 58q18 30 36.5 59t37.5 58q-36 55 -71 110.5t-70 110.5h92q12 -19 23.5 -37.5t23.5 -36.5l48 -74q12 18 23.5 36.5t23.5 37.5l48 74h91q-36 -55 -71 -110.5t-70 -110.5
q18 -29 36.5 -58t37.5 -59zM191 -105q-21 26 -44.5 64t-43.5 89t-33 113.5t-13 138.5q0 75 13 136.5t33 112.5q19 51 43 89.5t45 66.5h41q-64 -94 -88.5 -198t-24.5 -207q0 -106 25 -208.5t88 -196.5h-41zM727 -105q63 94 88.5 196.5t25.5 208.5q0 103 -25 207t-89 198h42
q21 -28 44.5 -66.5t43.5 -89.5q19 -51 32.5 -112.5t13.5 -136.5q0 -76 -13.5 -138.5t-33.5 -113.5t-43.5 -89t-43.5 -64h-42z" />
    <glyph glyph-name="uni24B4" unicode="&#x24b4;" horiz-adv-x="960" 
d="M342 -8v72h39q15 0 25.5 8.5t16.5 21.5q7 13 11 27t8 26q-40 115 -80 229t-79 229h83l57 -171q14 -43 28.5 -86t29.5 -85q14 42 28.5 85t29.5 86q14 42 28.5 85t29.5 86h81q-48 -135 -93.5 -267.5t-90.5 -267.5q-10 -27 -24 -42.5t-31 -23.5q-16 -8 -33 -10t-32 -2h-32z
M191 -105q-21 26 -44.5 64t-43.5 89t-33 113.5t-13 138.5q0 75 13 136.5t33 112.5q19 51 43 89.5t45 66.5h41q-64 -94 -88.5 -198t-24.5 -207q0 -106 25 -208.5t88 -196.5h-41zM727 -105q63 94 88.5 196.5t25.5 208.5q0 103 -25 207t-89 198h42q21 -28 44.5 -66.5
t43.5 -89.5q19 -51 32.5 -112.5t13.5 -136.5q0 -76 -13.5 -138.5t-33.5 -113.5t-43.5 -89t-43.5 -64h-42z" />
    <glyph glyph-name="uni24B5" unicode="&#x24b5;" horiz-adv-x="960" 
d="M661 71h-348v72q14 20 29 39t30 39l60 78l119 157h-217v72h313v-72l-239 -313h253v-72zM191 -105q-21 26 -44.5 64t-43.5 89t-33 113.5t-13 138.5q0 75 13 136.5t33 112.5q19 51 43 89.5t45 66.5h41q-64 -94 -88.5 -198t-24.5 -207q0 -106 25 -208.5t88 -196.5h-41z
M727 -105q63 94 88.5 196.5t25.5 208.5q0 103 -25 207t-89 198h42q21 -28 44.5 -66.5t43.5 -89.5q19 -51 32.5 -112.5t13.5 -136.5q0 -76 -13.5 -138.5t-33.5 -113.5t-43.5 -89t-43.5 -64h-42z" />
    <glyph glyph-name="uni24D0" unicode="&#x24d0;" horiz-adv-x="960" 
d="M778 -3q-57 -58 -133.5 -91.5t-164.5 -33.5t-165 33.5t-135 91.5t-91 135.5t-33 167.5q0 88 33 166t91 136t135 92t165 34t164.5 -34t133.5 -92q58 -58 91.5 -136t33.5 -166q0 -90 -33.5 -167.5t-91.5 -135.5zM626 -53q68 30 119 82q51 51 80.5 120.5t29.5 150.5
q0 79 -29.5 148.5t-80.5 121.5t-119 82.5t-146 30.5t-146.5 -30.5t-119.5 -82.5t-80 -121.5t-29 -148.5q0 -81 29 -150.5t80 -120.5q51 -52 119.5 -82t146.5 -30t146 30zM651 166q0 -28 7 -45q6 -17 7 -18h-78q-4 5 -6.5 11t-4.5 12q-3 13 -3 28q-21 -24 -60.5 -45
t-90.5 -21q-57 0 -96.5 29t-39.5 89q0 34 12 57t32 37q21 14 46.5 21t52.5 11q27 5 52.5 8t46.5 9q20 5 32.5 15t12.5 29q0 12 -5 23.5t-16.5 21t-29.5 15.5t-43 6q-14 0 -31.5 -3.5t-32.5 -11.5t-23.5 -22t-5.5 -36h-77q-3 32 10.5 57.5t37.5 43.5t56 27.5t67 9.5
q34 0 65 -9.5t54 -26.5q24 -17 38 -41t14 -53v-228zM573 308q-8 -9 -26.5 -14t-41.5 -8q-22 -4 -44.5 -7t-37.5 -8q-27 -9 -42 -24.5t-15 -36.5q0 -30 21 -42.5t51 -12.5q31 0 56 10t42 25q18 15 27.5 32.5t9.5 32.5v53z" />
    <glyph glyph-name="uni24D1" unicode="&#x24d1;" horiz-adv-x="960" 
d="M626 -53q68 30 119 82q51 51 80.5 120.5t29.5 150.5q0 79 -29.5 148.5t-80.5 121.5t-119 82.5t-146 30.5t-146.5 -30.5t-119.5 -82.5t-80 -121.5t-29 -148.5q0 -81 29 -150.5t80 -120.5q51 -52 119.5 -82t146.5 -30t146 30zM398 21h-78v558h78v-193q23 26 55 40.5
t71 14.5q82 0 131 -61q50 -61 50 -156t-50 -156q-50 -60 -131 -60q-78 0 -126 54v-41zM510 76q54 0 83.5 41t29.5 107t-29.5 107t-83.5 41t-83 -41t-29 -107t29 -107t83 -41zM778 -3q-57 -58 -133.5 -91.5t-164.5 -33.5t-165 33.5t-135 91.5t-91 135.5t-33 167.5
q0 88 33 166t91 136t135 92t165 34t164.5 -34t133.5 -92q58 -58 91.5 -136t33.5 -166q0 -90 -33.5 -167.5t-91.5 -135.5z" />
    <glyph glyph-name="uni24D2" unicode="&#x24d2;" horiz-adv-x="960" 
d="M778 -4q-57 -58 -133.5 -91.5t-164.5 -33.5t-165 33.5t-135 91.5t-91 136t-33 168q0 88 33 166t91 136t135 92t165 34t164.5 -34t133.5 -92q58 -58 91.5 -136t33.5 -166q0 -90 -33.5 -168t-91.5 -136zM626 -53q68 30 119 82q51 51 80.5 120.5t29.5 150.5
q0 79 -29.5 148.5t-80.5 121.5t-119 82.5t-146 30.5t-146.5 -30.5t-119.5 -82.5t-80 -121.5t-29 -148.5q0 -81 29 -150.5t80 -120.5q51 -52 119.5 -82t146.5 -30t146 30zM668 220q-13 -53 -59 -97q-45 -42 -123 -42q-45 0 -81 17t-61 47q-26 29 -39 69t-13 85t13 84t39 69
q25 29 61 46.5t81 17.5q39 0 70.5 -13t54.5 -33q24 -20 38 -45t19 -49h-84q-5 20 -29 47q-22 25 -69 25q-52 0 -83 -45q-31 -43 -31 -104q0 -32 8 -59t23 -47.5t36 -32t47 -11.5q42 0 65.5 22t31.5 49h85z" />
    <glyph glyph-name="uni24D3" unicode="&#x24d3;" horiz-adv-x="960" 
d="M778 -4q-57 -58 -133.5 -91.5t-164.5 -33.5t-165 33.5t-135 91.5t-91 136t-33 168q0 88 33 166t91 136t135 92t165 34t164.5 -34t133.5 -92q58 -58 91.5 -136t33.5 -166q0 -90 -33.5 -168t-91.5 -136zM626 -53q68 30 119 82q51 51 80.5 120.5t29.5 150.5
q0 79 -29.5 148.5t-80.5 121.5t-119 82.5t-146 30.5t-146.5 -30.5t-119.5 -82.5t-80 -121.5t-29 -148.5q0 -81 29 -150.5t80 -120.5q51 -52 119.5 -82t146.5 -30t146 30zM640 22h-77v41q-24 -26 -56 -40.5t-70 -14.5q-84 0 -133 60q-49 61 -49 157q0 95 49 156t133 61
q38 0 70 -14.5t56 -39.5v191h77v-557zM450 77q54 0 83.5 41t29.5 107t-29.5 107t-83.5 41t-83.5 -41t-29.5 -107t29.5 -107t83.5 -41z" />
    <glyph glyph-name="uni24D4" unicode="&#x24d4;" horiz-adv-x="960" 
d="M778 -4q-57 -58 -133.5 -91.5t-164.5 -33.5t-165 33.5t-135 91.5t-91 136t-33 168q0 88 33 166t91 136t135 92t165 34t164.5 -34t133.5 -92q58 -58 91.5 -136t33.5 -166q0 -90 -33.5 -168t-91.5 -136zM626 -53q68 30 119 82q51 51 80.5 120.5t29.5 150.5
q0 79 -29.5 148.5t-80.5 121.5t-119 82.5t-146 30.5t-146.5 -30.5t-119.5 -82.5t-80 -121.5t-29 -148.5q0 -81 29 -150.5t80 -120.5q51 -52 119.5 -82t146.5 -30t146 30zM660 203q-7 -22 -20 -43.5t-34 -39.5q-22 -17 -51.5 -28t-71.5 -11q-45 0 -80.5 17t-61.5 47
q-26 29 -40 69t-14 85t13.5 84t38.5 69q26 29 61.5 46.5t80.5 17.5q39 0 75 -15.5t63 -45.5t42 -76t13 -107h-305q0 -24 9 -46t24 -39t35 -27.5t44 -10.5q21 0 36.5 5t27 13t18.5 17.5t10 18.5h87zM590 336q-2 22 -10.5 42.5t-22.5 36t-33 24.5t-43 9q-46 0 -75 -31.5
t-35 -80.5h219z" />
    <glyph glyph-name="uni24D5" unicode="&#x24d5;" horiz-adv-x="960" 
d="M626 -53q68 30 119 82q51 51 80.5 120.5t29.5 150.5q0 79 -29.5 148.5t-80.5 121.5t-119 82.5t-146 30.5t-146.5 -30.5t-119.5 -82.5t-80 -121.5t-29 -148.5q0 -81 29 -150.5t80 -120.5q51 -52 119.5 -82t146.5 -30t146 30zM506 18h-77v340h-48v64h48v46q0 51 22.5 78
t62.5 27h48v-64q-33 1 -44.5 -10.5t-11.5 -43.5v-33h56v-64h-56v-340zM778 -3q-57 -58 -133.5 -91.5t-164.5 -33.5t-165 33.5t-135 91.5t-91 135.5t-33 167.5q0 88 33 166t91 136t135 92t165 34t164.5 -34t133.5 -92q58 -58 91.5 -136t33.5 -166q0 -90 -33.5 -167.5
t-91.5 -135.5z" />
    <glyph glyph-name="uni24D6" unicode="&#x24d6;" horiz-adv-x="960" 
d="M778 -4q-57 -58 -133.5 -91.5t-164.5 -33.5t-165 33.5t-135 91.5t-91 136t-33 168q0 88 33 166t91 136t135 92t165 34t164.5 -34t133.5 -92q58 -58 91.5 -136t33.5 -166q0 -90 -33.5 -168t-91.5 -136zM626 -53q68 30 119 82q51 51 80.5 120.5t29.5 150.5
q0 79 -29.5 148.5t-80.5 121.5t-119 82.5t-146 30.5t-146.5 -30.5t-119.5 -82.5t-80 -121.5t-29 -148.5q0 -81 29 -150.5t80 -120.5q51 -52 119.5 -82t146.5 -30t146 30zM655 186q0 -48 -16.5 -80.5t-43.5 -51.5q-26 -20 -59 -28t-66 -8q-85 0 -132 40q-48 40 -51 93h77
q2 -26 29 -47t78 -21q52 0 79.5 25.5t27.5 74.5v53q-25 -27 -57.5 -41.5t-68.5 -14.5q-39 0 -72.5 15.5t-57.5 42.5q-25 27 -38.5 63t-13.5 78t13 78t37 63t57 42.5t75 15.5q37 0 69.5 -14t56.5 -39v39h77v-378zM465 250q51 0 82 35.5t31 93.5t-31 94t-82 36t-82 -36
t-31 -94t31 -93.5t82 -35.5z" />
    <glyph glyph-name="uni24D7" unicode="&#x24d7;" horiz-adv-x="960" 
d="M778 -4q-57 -58 -133.5 -91.5t-164.5 -33.5t-165 33.5t-135 91.5t-91 136t-33 168q0 88 33 166t91 136t135 92t165 34t164.5 -34t133.5 -92q58 -58 91.5 -136t33.5 -166q0 -90 -33.5 -168t-91.5 -136zM626 -53q68 30 119 82q51 51 80.5 120.5t29.5 150.5
q0 79 -29.5 148.5t-80.5 121.5t-119 82.5t-146 30.5t-146.5 -30.5t-119.5 -82.5t-80 -121.5t-29 -148.5q0 -81 29 -150.5t80 -120.5q51 -52 119.5 -82t146.5 -30t146 30zM650 20h-78v249q0 97 -83 97q-22 0 -41 -8.5t-32.5 -23.5t-21 -35t-7.5 -42v-237h-79v557h79v-193
q21 22 57.5 41t88.5 14q30 -3 52 -17.5t36 -33.5q15 -20 22 -43t7 -43v-282z" />
    <glyph glyph-name="uni24D8" unicode="&#x24d8;" horiz-adv-x="960" 
d="M778 -4q-57 -58 -133.5 -91.5t-164.5 -33.5t-165 33.5t-135 91.5t-91 136t-33 168q0 88 33 166t91 136t135 92t165 34t164.5 -34t133.5 -92q58 -58 91.5 -136t33.5 -166q0 -90 -33.5 -168t-91.5 -136zM626 -53q68 30 119 82q51 51 80.5 120.5t29.5 150.5
q0 79 -29.5 148.5t-80.5 121.5t-119 82.5t-146 30.5t-146.5 -30.5t-119.5 -82.5t-80 -121.5t-29 -148.5q0 -81 29 -150.5t80 -120.5q51 -52 119.5 -82t146.5 -30t146 30zM518 20h-75v406h75v-406zM518 499h-75v78h75v-78z" />
    <glyph glyph-name="uni24D9" unicode="&#x24d9;" horiz-adv-x="960" 
d="M778 -4q-57 -58 -133.5 -91.5t-164.5 -33.5t-165 33.5t-135 91.5t-91 136t-33 168q0 88 33 166t91 136t135 92t165 34t164.5 -34t133.5 -92q58 -58 91.5 -136t33.5 -166q0 -90 -33.5 -168t-91.5 -136zM626 -53q68 30 119 82q51 51 80.5 120.5t29.5 150.5
q0 79 -29.5 148.5t-80.5 121.5t-119 82.5t-146 30.5t-146.5 -30.5t-119.5 -82.5t-80 -121.5t-29 -148.5q0 -81 29 -150.5t80 -120.5q51 -52 119.5 -82t146.5 -30t146 30zM534 551h-78v79h78v-79zM534 74q0 -30 -6 -48.5t-16 -29.5q-10 -12 -28 -20t-41 -8h-43v64
q5 0 10.5 -0.5t11.5 0.5t11.5 3t10.5 7q9 8 10.5 18t1.5 26v392h78v-404z" />
    <glyph glyph-name="uni24DA" unicode="&#x24da;" horiz-adv-x="960" 
d="M778 -3q-57 -58 -133.5 -91.5t-164.5 -33.5t-165 33.5t-135 91.5t-91 135.5t-33 167.5q0 88 33 166t91 136t135 92t165 34t164.5 -34t133.5 -92q58 -58 91.5 -136t33.5 -166q0 -90 -33.5 -167.5t-91.5 -135.5zM626 -53q68 30 119 82q51 51 80.5 120.5t29.5 150.5
q0 79 -29.5 148.5t-80.5 121.5t-119 82.5t-146 30.5t-146.5 -30.5t-119.5 -82.5t-80 -121.5t-29 -148.5q0 -81 29 -150.5t80 -120.5q51 -52 119.5 -82t146.5 -30t146 30zM585 21l-156 204l-22 -22l-12 -11l-10 -10v-161h-77v557h77v-307l165 156h94q-21 -20 -41 -39t-40 -37
q-11 -10 -21 -19t-20 -19l-40 -38l47 -64l48 -64q48 -65 96 -126h-88z" />
    <glyph glyph-name="uni24DB" unicode="&#x24db;" horiz-adv-x="960" 
d="M626 -53q68 30 119 82q51 51 80.5 120.5t29.5 150.5q0 79 -29.5 148.5t-80.5 121.5t-119 82.5t-146 30.5t-146.5 -30.5t-119.5 -82.5t-80 -121.5t-29 -148.5q0 -81 29 -150.5t80 -120.5q51 -52 119.5 -82t146.5 -30t146 30zM517 21h-75v558h75v-558zM778 -3
q-57 -58 -133.5 -91.5t-164.5 -33.5t-165 33.5t-135 91.5t-91 135.5t-33 167.5q0 88 33 166t91 136t135 92t165 34t164.5 -34t133.5 -92q58 -58 91.5 -136t33.5 -166q0 -90 -33.5 -167.5t-91.5 -135.5z" />
    <glyph glyph-name="uni24DC" unicode="&#x24dc;" horiz-adv-x="960" 
d="M626 -53q68 30 119 82q51 51 80.5 120.5t29.5 150.5q0 79 -29.5 148.5t-80.5 121.5t-119 82.5t-146 30.5t-146.5 -30.5t-119.5 -82.5t-80 -121.5t-29 -148.5q0 -81 29 -150.5t80 -120.5q51 -52 119.5 -82t146.5 -30t146 30zM742 93h-79v258q0 42 -11 66.5t-47 24.5
q-40 0 -64 -27.5t-24 -76.5v-245h-74v258q0 42 -11.5 66.5t-49.5 24.5q-39 0 -62 -26.5t-23 -77.5v-245h-78v406h78v-45q7 9 17 19.5t23 19t30 14.5t38 6q31 0 58.5 -15.5t41.5 -48.5q5 7 14.5 18t23.5 21t33.5 17.5t46.5 7.5q66 0 92 -42q27 -41 27 -95v-283zM778 -3
q-57 -58 -133.5 -91.5t-164.5 -33.5t-165 33.5t-135 91.5t-91 135.5t-33 167.5q0 88 33 166t91 136t135 92t165 34t164.5 -34t133.5 -92q58 -58 91.5 -136t33.5 -166q0 -90 -33.5 -167.5t-91.5 -135.5z" />
    <glyph glyph-name="uni24DD" unicode="&#x24dd;" horiz-adv-x="960" 
d="M626 -53q68 30 119 82q51 51 80.5 120.5t29.5 150.5q0 79 -29.5 148.5t-80.5 121.5t-119 82.5t-146 30.5t-146.5 -30.5t-119.5 -82.5t-80 -121.5t-29 -148.5q0 -81 29 -150.5t80 -120.5q51 -52 119.5 -82t146.5 -30t146 30zM651 88h-78v247q0 51 -20.5 74t-62.5 23
q-45 0 -73.5 -30.5t-28.5 -78.5v-235h-79v405h79v-42q19 20 51 38.5t78 18.5q34 0 59.5 -13.5t41.5 -34.5q17 -20 25 -44.5t8 -46.5v-281zM778 -3q-57 -58 -133.5 -91.5t-164.5 -33.5t-165 33.5t-135 91.5t-91 135.5t-33 167.5q0 88 33 166t91 136t135 92t165 34t164.5 -34
t133.5 -92q58 -58 91.5 -136t33.5 -166q0 -90 -33.5 -167.5t-91.5 -135.5z" />
    <glyph glyph-name="uni24DE" unicode="&#x24de;" horiz-adv-x="960" 
d="M778 -4q-57 -58 -133.5 -91.5t-164.5 -33.5t-165 33.5t-135 91.5t-91 136t-33 168q0 88 33 166t91 136t135 92t165 34t164.5 -34t133.5 -92q58 -58 91.5 -136t33.5 -166q0 -90 -33.5 -168t-91.5 -136zM626 -53q68 30 119 82q51 51 80.5 120.5t29.5 150.5
q0 79 -29.5 148.5t-80.5 121.5t-119 82.5t-146 30.5t-146.5 -30.5t-119.5 -82.5t-80 -121.5t-29 -148.5q0 -81 29 -150.5t80 -120.5q51 -52 119.5 -82t146.5 -30t146 30zM622 145q-25 -30 -60.5 -47t-80.5 -17q-46 0 -82 17t-61 47q-25 29 -38 69t-13 85t13 84.5t38 68.5
t61 46.5t82 17.5q45 0 80.5 -17.5t60.5 -46.5t38.5 -68.5t13.5 -84.5t-13.5 -85t-38.5 -69zM481 149q50 0 82 44q31 43 31 106q0 61 -31 104q-32 45 -82 45q-52 0 -83 -45q-31 -43 -31 -104q0 -63 31 -106q32 -44 83 -44z" />
    <glyph glyph-name="uni24DF" unicode="&#x24df;" horiz-adv-x="960" 
d="M626 -53q68 30 119 82q51 51 80.5 120.5t29.5 150.5q0 79 -29.5 148.5t-80.5 121.5t-119 82.5t-146 30.5t-146.5 -30.5t-119.5 -82.5t-80 -121.5t-29 -148.5q0 -81 29 -150.5t80 -120.5q51 -52 119.5 -82t146.5 -30t146 30zM390 28h-77v538h77v-41q23 26 55.5 40.5
t71.5 14.5q82 0 131 -61q50 -61 50 -155q0 -48 -13.5 -88.5t-36.5 -68.5q-24 -29 -57.5 -45t-73.5 -16q-79 0 -127 56v-174zM503 215q54 0 84 41.5t30 107.5q0 64 -30 105.5t-84 41.5t-83.5 -41.5t-29.5 -105.5q0 -66 29.5 -107.5t83.5 -41.5zM778 -3q-57 -58 -133.5 -91.5
t-164.5 -33.5t-165 33.5t-135 91.5t-91 135.5t-33 167.5q0 88 33 166t91 136t135 92t165 34t164.5 -34t133.5 -92q58 -58 91.5 -136t33.5 -166q0 -90 -33.5 -167.5t-91.5 -135.5z" />
    <glyph glyph-name="uni24E0" unicode="&#x24e0;" horiz-adv-x="960" 
d="M778 -4q-57 -58 -133.5 -91.5t-164.5 -33.5t-165 33.5t-135 91.5t-91 136t-33 168q0 88 33 166t91 136t135 92t165 34t164.5 -34t133.5 -92q58 -58 91.5 -136t33.5 -166q0 -90 -33.5 -168t-91.5 -136zM626 -53q68 30 119 82q51 51 80.5 120.5t29.5 150.5
q0 79 -29.5 148.5t-80.5 121.5t-119 82.5t-146 30.5t-146.5 -30.5t-119.5 -82.5t-80 -121.5t-29 -148.5q0 -81 29 -150.5t80 -120.5q51 -52 119.5 -82t146.5 -30t146 30zM638 30h-77v174q-24 -27 -56.5 -41.5t-70.5 -14.5q-42 0 -75 16t-56 44q-24 29 -37 69t-13 88
q0 95 50 156q49 61 131 61q78 0 127 -55v41h77v-538zM494 228q21 11 36 30.5t23 46.5t8 60t-8 60t-23 46.5t-36 30.5t-46 11q-54 0 -84 -41t-30 -107t30 -107t84 -41q25 0 46 11z" />
    <glyph glyph-name="uni24E1" unicode="&#x24e1;" horiz-adv-x="960" 
d="M626 -53q68 30 119 82q51 51 80.5 120.5t29.5 150.5q0 79 -29.5 148.5t-80.5 121.5t-119 82.5t-146 30.5t-146.5 -30.5t-119.5 -82.5t-80 -121.5t-29 -148.5q0 -81 29 -150.5t80 -120.5q51 -52 119.5 -82t146.5 -30t146 30zM481 81h-77v405h77v-60q21 35 52.5 54t76.5 20
v-77q-60 0 -94.5 -36.5t-34.5 -105.5v-200zM778 -3q-57 -58 -133.5 -91.5t-164.5 -33.5t-165 33.5t-135 91.5t-91 135.5t-33 167.5q0 88 33 166t91 136t135 92t165 34t164.5 -34t133.5 -92q58 -58 91.5 -136t33.5 -166q0 -90 -33.5 -167.5t-91.5 -135.5z" />
    <glyph glyph-name="uni24E2" unicode="&#x24e2;" horiz-adv-x="960" 
d="M626 -53q68 30 119 82q51 51 80.5 120.5t29.5 150.5q0 79 -29.5 148.5t-80.5 121.5t-119 82.5t-146 30.5t-146.5 -30.5t-119.5 -82.5t-80 -121.5t-29 -148.5q0 -81 29 -150.5t80 -120.5q51 -52 119.5 -82t146.5 -30t146 30zM649 207q-2 -27 -15.5 -50t-35.5 -40
q-22 -16 -51 -25.5t-61 -9.5q-51 0 -85 15t-54 37t-28.5 46.5t-8.5 42.5h75q3 -31 27 -51t72 -20q42 0 63.5 16t21.5 42q0 20 -19.5 33t-46.5 22t-55.5 15t-46.5 14q-36 13 -56.5 37.5t-20.5 63.5q0 22 10 43.5t30 38.5t48.5 28t66.5 11q40 0 69.5 -12t49.5 -30
q19 -18 29 -40t10 -43h-76q0 14 -17 36q-17 21 -65 21q-23 0 -37.5 -5.5t-23.5 -13.5t-12.5 -17t-3.5 -17q0 -16 10.5 -26.5t27.5 -17.5t39.5 -12t45.5 -11q23 -7 45.5 -15t39.5 -21t28 -32.5t11 -46.5v-6zM778 -3q-57 -58 -133.5 -91.5t-164.5 -33.5t-165 33.5t-135 91.5
t-91 135.5t-33 167.5q0 88 33 166t91 136t135 92t165 34t164.5 -34t133.5 -92q58 -58 91.5 -136t33.5 -166q0 -90 -33.5 -167.5t-91.5 -135.5z" />
    <glyph glyph-name="uni24E3" unicode="&#x24e3;" horiz-adv-x="960" 
d="M626 -53q68 30 119 82q51 51 80.5 120.5t29.5 150.5q0 79 -29.5 148.5t-80.5 121.5t-119 82.5t-146 30.5t-146.5 -30.5t-119.5 -82.5t-80 -121.5t-29 -148.5q0 -81 29 -150.5t80 -120.5q51 -52 119.5 -82t146.5 -30t146 30zM566 35h-48q-39 0 -61.5 26.5t-22.5 80.5v236
h-48v65h48v122h77v-122h55v-65h-55v-223q0 -31 10 -43t45 -11v-66zM778 -3q-57 -58 -133.5 -91.5t-164.5 -33.5t-165 33.5t-135 91.5t-91 135.5t-33 167.5q0 88 33 166t91 136t135 92t165 34t164.5 -34t133.5 -92q58 -58 91.5 -136t33.5 -166q0 -90 -33.5 -167.5
t-91.5 -135.5z" />
    <glyph glyph-name="uni24E4" unicode="&#x24e4;" horiz-adv-x="960" 
d="M778 -4q-57 -58 -133.5 -91.5t-164.5 -33.5t-165 33.5t-135 91.5t-91 136t-33 168q0 88 33 166t91 136t135 92t165 34t164.5 -34t133.5 -92q58 -58 91.5 -136t33.5 -166q0 -90 -33.5 -168t-91.5 -136zM626 -53q68 30 119 82q51 51 80.5 120.5t29.5 150.5
q0 79 -29.5 148.5t-80.5 121.5t-119 82.5t-146 30.5t-146.5 -30.5t-119.5 -82.5t-80 -121.5t-29 -148.5q0 -81 29 -150.5t80 -120.5q51 -52 119.5 -82t146.5 -30t146 30zM649 104h-79v46q-17 -24 -50 -43t-78 -18q-54 2 -93 38q-40 37 -40 106v277h77v-249q0 -103 88 -98
q42 2 69 30t27 82v235h79v-406z" />
    <glyph glyph-name="uni24E5" unicode="&#x24e5;" horiz-adv-x="960" 
d="M778 -3q-57 -58 -133.5 -91.5t-164.5 -33.5t-165 33.5t-135 91.5t-91 135.5t-33 167.5q0 88 33 166t91 136t135 92t165 34t164.5 -34t133.5 -92q58 -58 91.5 -136t33.5 -166q0 -90 -33.5 -167.5t-91.5 -135.5zM626 -53q68 30 119 82q51 51 80.5 120.5t29.5 150.5
q0 79 -29.5 148.5t-80.5 121.5t-119 82.5t-146 30.5t-146.5 -30.5t-119.5 -82.5t-80 -121.5t-29 -148.5q0 -81 29 -150.5t80 -120.5q51 -52 119.5 -82t146.5 -30t146 30zM436 73q-19 51 -37.5 101t-36.5 101q-19 51 -37.5 101t-36.5 101h82l27 -79l28 -78q7 -20 14 -39.5
t14 -39.5l28 -78q13 39 27 78t28 79l28 78q7 20 14 39.5t14 39.5h82q-19 -51 -37.5 -101t-36.5 -101q-19 -51 -37.5 -101t-36.5 -101h-90z" />
    <glyph glyph-name="uni24E6" unicode="&#x24e6;" horiz-adv-x="960" 
d="M778 -3q-57 -58 -133.5 -91.5t-164.5 -33.5t-165 33.5t-135 91.5t-91 135.5t-33 167.5q0 88 33 166t91 136t135 92t165 34t164.5 -34t133.5 -92q58 -58 91.5 -136t33.5 -166q0 -90 -33.5 -167.5t-91.5 -135.5zM626 -53q68 30 119 82q51 51 80.5 120.5t29.5 150.5
q0 79 -29.5 148.5t-80.5 121.5t-119 82.5t-146 30.5t-146.5 -30.5t-119.5 -82.5t-80 -121.5t-29 -148.5q0 -81 29 -150.5t80 -120.5q51 -52 119.5 -82t146.5 -30t146 30zM551 75l-36 138l-36 139l-36 -139l-36 -138h-85l-56 201q-14 51 -28 101t-27 101h79l37 -146
q9 -37 18.5 -73.5t19.5 -72.5l36 146q9 36 18 72.5t19 73.5h82l36 -146l37 -146l37 146l38 146h77q-14 -51 -28 -101t-27 -101q-14 -51 -28 -100.5t-27 -100.5h-84z" />
    <glyph glyph-name="uni24E7" unicode="&#x24e7;" horiz-adv-x="960" 
d="M778 -3q-57 -58 -133.5 -91.5t-164.5 -33.5t-165 33.5t-135 91.5t-91 135.5t-33 167.5q0 88 33 166t91 136t135 92t165 34t164.5 -34t133.5 -92q58 -58 91.5 -136t33.5 -166q0 -90 -33.5 -167.5t-91.5 -135.5zM626 -53q68 30 119 82q51 51 80.5 120.5t29.5 150.5
q0 79 -29.5 148.5t-80.5 121.5t-119 82.5t-146 30.5t-146.5 -30.5t-119.5 -82.5t-80 -121.5t-29 -148.5q0 -81 29 -150.5t80 -120.5q51 -52 119.5 -82t146.5 -30t146 30zM580 93q-13 18 -25.5 35.5t-24.5 35.5q-13 18 -25.5 36t-24.5 36q-25 -36 -50 -71.5t-49 -71.5h-90
l36 51l72 104l18 26t19 26q-18 24 -35 48.5t-34 49.5q-18 25 -35 49.5t-33 49.5h89q11 -17 22.5 -33.5t23.5 -33.5q11 -17 22.5 -33.5t23.5 -32.5l46 66l47 67h89l-69 -99q-17 -25 -34.5 -49.5t-33.5 -48.5l72 -104q18 -26 36 -51.5t37 -51.5h-90z" />
    </font>
</defs>
</svg>
